<svg xmlns="http://www.w3.org/2000/svg" width="103.5" height="103.5"><g data-name="Gruppe 169"><path d="M1101.077 1950.243c-25 0-49.516 28.831-49.516 53.832s24.516 46.169 49.516 46.169 50.484-21.169 50.484-46.169-25.484-53.832-50.484-53.832Z" data-name="Pfad 109" style="stroke:#ff0048;stroke-width:3.5px;fill:#fcfcff" transform="translate(-1049.811 -1948.493)"/><path d="M270.5 5376.5h66.11a84.954 84.954 0 0 0-12.874 7.591 82.593 82.593 0 0 0-10.954 9.981 77.078 77.078 0 0 0 2.053-17.573 114.916 114.916 0 0 0-2.053-19.838s5 4.988 10.954 10.335a96.194 96.194 0 0 0 12.874 9.5" data-name="Pfad 108" style="fill:none;stroke-linecap:round;stroke-linejoin:bevel;stroke:#ff0048;stroke-width:3.5px" transform="rotate(-90 -2484.155 2839.462)"/></g></svg>