<svg xmlns="http://www.w3.org/2000/svg" width="323.778" height="306.283"><path fill="none" stroke="#ffffa6" stroke-linecap="round" stroke-linejoin="round" stroke-miterlimit="7.07" stroke-width="8" d="M120.081 277.655c.714-1.189-.952-53.05.476-66.848a110.96 110.96 0 0 0-.238-28.071c-.476-4.758 0-9.754-2.379-14.274-.714-1.427.714-3.093 1.9-4.044 12.133-11.181 22.362-24.027 35.922-33.543a25.456 25.456 0 0 0 7.375-7.137c-13.084-.476-25.217.952-37.349 1.189s-24.265.714-36.636.714c6.661-9.754 14.987-17.366 23.789-24.5 7.375-6.185 15.463-11.181 23.789-16.177 7.85-4.758 14.987-10.943 21.886-17.6-8.326-27.834-27.834-45.438-53.764-57.094C93.675 5.268 81.543 3.602 69.41 4.078c-7.375.238-13.084 4.044-19.507 6.9-22.124 9.99-34.019 28.784-42.583 49.955-5.234 13.56-3.806 28.071.476 42.345 8.564 29.023 22.838 55.429 38.063 81.36 11.895 20.459 35.208 55.429 49.244 74.461l13.322 21.886c5 6.423 9.754 13.084 15.225 19.269 2.379 2.617 4.282 2.617 6.423.476 17.128-17.128 38.063-29.261 57.094-43.772 15.463-11.895 29.261-25.217 44.486-37.349 19.269-15.463 35.208-33.781 51.385-52.1 10.229-11.657 17.6-25.692 26.406-38.539 2.141-3.331 2.617-7.137 3.568-10.943 2.141-8.088 4.758-16.177 5.947-24.5 2.379-14.749-.476-28.547-9.992-40.442-6.661-8.326-13.56-16.415-23.076-22.124-14.511-8.564-29.023-7.85-43.772-1.427-7.375 3.093-14.512 6.423-21.886 9.754-8.8 3.806-15.463 10.229-22.362 16.653-9.516 8.8-16.177 19.745-23.076 30.45-1.9 3.093-.952 5 3.093 5.472 9.278.952 18.318 2.141 27.6 2.617 7.375.476 14.987-.238 22.6 0 2.379 0 4.758 0 6.9 2.141-7.375 9.04-14.987 17.842-24.5 24.979-17.366 13.084-34.97 26.168-52.812 39.015-3.331 2.379-5.234 6.661-9.516 7.613 0 0 17.128-4.044 23.314-5 6.185-1.189 12.133-2.855 18.08-4.282 1.665-.476 3.806-.714 4.758.714 1.189 1.9-.476 3.568-1.665 4.52-12.37 11.895-22.838 25.217-34.019 38.063-15.463 17.6-31.164 82.787-31.164 82.787" data-name="404"/></svg>