<svg xmlns="http://www.w3.org/2000/svg" xml:space="preserve" style="enable-background:new 0 0 105.4 67.3" viewBox="0 0 105.4 67.3"><style>.st1{fill:none;stroke:#000;stroke-width:.75;stroke-linecap:round;stroke-linejoin:round;stroke-miterlimit:7.0698}</style><g xmlns:vectornator="http://vectornator.io" id="Ebene_1"><path d="M77.8 3.8c-2.7-1-6.3-1.6-9.1-1.8-5.1-.2-9.4.3-13.9 2.8-4 2.2-8.9 5.1-11.4 9.6-2.2 4-3.4 8.3-3.8 12.9-.3 3.5-.2 7.5.5 10.9.7 3.2 3.1 6.6 4.8 9.4 2 3.3 4 4.7 7.3 6.6 2.8 1.5 8.7 3.1 11.9 3 12.3-.3 21.1-2.8 26.6-13.8" class="st1"/><path d="M76.2 25.2c-.3-.1-.7-.2-1-.2-1.3 0-2.5.3-3.4 1.3-.9 1.1-1.7 3.1-1.3 4.5.2.6.3 1.3.7 1.9.4.6 1 1 1.6 1.3.4.3 1 .4 1.5.5 2.9.4 6-.9 6.4-4.1.1-.4.1-.9 0-1.3-.5-2-2.7-3.2-4.5-3.9zM62 14.4h-1.1c-.3 0-.6.1-.8.2-1.1.2-2.3.7-3.1 1.8-.3.4-.3.8-.4 1.3v.1c.2.3.3.6.5.8.5.6 1.4.7 2 .8 1.6.3 3.4-.2 4.8-1.4.2-.2.4-.5.5-.9.1-.4.1-.9 0-1.3-.5-1.1-1.6-1.4-2.4-1.4zM77.7 3.8c-1.7 3.5-2.6 6.4-1.4 9.1 1.1 2.5 2.1 4.3 4.2 5.4s4.5 1.5 6.8 1.9c-2.4 2.9-3.2 7-2.2 10.6s3.9 6.7 7.4 7.9M38.3 14c-2.7-1-5.8-1.6-8.6-1.8-5.1-.2-9.4-.2-13.9 2.3-4 2.2-8.9 5.1-11.4 9.6C2.2 28.1 1 32.4.6 37c-.3 3.5-.2 7.5.5 10.9.7 3.2 3.1 6.6 4.8 9.4 2 3.3 4 4.7 7.3 6.6 2.8 1.5 8.7 3.1 11.9 3 12.3-.3 21.6-1.8 27.2-12.8" class="st1"/><path d="M29.2 19.3c.1 0-.9-.1-1.1-.1-.7 0-1.7.4-2.2.9-1.7 1.8-.6 5.7 2 6 2 .2 3.3-.6 3.8-2.6.1-.4.2-1 .1-1.4-.1-1-.9-1.8-1.7-2.4-.2-.2-.5-.3-.8-.4h-.1zm-16 11.4h-.5c-.4 0-.8.2-1.1.5-.8.9-.3 2.9 1 3 1 .1 1.7-.3 1.9-1.3.1-.2.1-.5.1-.7-.1-.5-.5-.9-.9-1.2-.1-.1-.3-.1-.4-.2 0 0-.2-.1-.1-.1zM26.6 37h-.5c-.4 0-.8.2-1.1.5-.8.9-.3 2.9 1 3 1 .1 1.7-.3 1.9-1.3.1-.2.1-.5.1-.7-.1-.5-.5-.9-.9-1.2-.1-.1-.3-.1-.4-.2l-.1-.1zm65-22.6h-.5c-.4 0-.8.2-1.1.5-.8.9-.3 2.9 1 3 1 .1 1.7-.3 1.9-1.3.1-.3.1-.6.1-.8-.1-.5-.5-.9-.9-1.2-.1-.1-.3-.1-.4-.2h-.1zm4.9-14c.1 0-.9-.1-1.1-.1-.7 0-1.7.4-2.2.9-1.7 1.8-.6 5.7 2 6 2 .2 3.3-.6 3.8-2.6.1-.4.2-1 .1-1.4-.1-1-.9-1.8-1.7-2.4-.2-.2-.5-.3-.8-.4.1.1-.2 0-.1 0zM15.3 44.8c.1 0-.9-.1-1.1-.1-.7 0-1.7.4-2.2.9-1.7 1.8-.6 5.7 2 6 2 .2 3.3-.6 3.8-2.6.1-.4.2-1 .1-1.4-.1-1-.9-1.8-1.7-2.4-.2-.2-.5-.3-.8-.4h-.1zm21.9 1.6c-.3-.1-.7-.2-1-.2-1.3 0-2.5.3-3.4 1.3-.9 1.1-1.7 3.1-1.3 4.5.2.6.3 1.3.7 1.9.4.6 1 1 1.6 1.3.4.3 1 .4 1.5.5 2.9.4 6-.9 6.4-4.1.1-.4.1-.9 0-1.3-.6-1.9-2.7-3.1-4.5-3.9zm26.7-3c-.2-.1-.4-.1-.6-.1-.7 0-1.4.2-1.9.7-.5.6-1 1.7-.8 2.6.1.4.2.8.4 1.1.2.3.6.5.9.8.2.2.5.2.8.3 1.7.2 3.4-.5 3.6-2.3 0-.2.1-.5 0-.7-.2-1.3-1.4-1.9-2.4-2.4zm39.8-22.9h-.6c-.2 0-.3.1-.5.2-.6.2-1.2.7-1.7 1.6-.2.3-.2.7-.2 1.1v.1c.1.2.1.5.2.7.2.5.7.5 1 .6.8.2 1.8-.2 2.6-1.4.1-.2.2-.5.3-.8.1-.4.1-.8 0-1.1-.1-.8-.6-1-1.1-1zm-50.7 8h-.6c-.1 0-.3.1-.5.2-.6.2-1.2.7-1.7 1.6-.2.3-.2.7-.2 1.1v.1c.1.2.1.5.2.7.2.5.7.5 1 .6.8.2 1.8-.2 2.6-1.4.1-.2.2-.5.3-.8.1-.4.1-.8 0-1.1-.1-.7-.7-1-1.1-1z" class="st1"/></g></svg>