<svg xmlns="http://www.w3.org/2000/svg" width="319.387" height="240.5"><defs><style>.cls-1{fill:#ffffa6}</style></defs><g id="Ebene_1" transform="translate(1.559 1.639)"><g id="Gruppe_180" data-name="Gruppe 180" transform="translate(.44 .361)"><g id="Gruppe_179" data-name="Gruppe 179" transform="translate(84.677)"><path id="Pfad_158" d="M204.16 159.038a2 2 0 0 1-1.631-.841 134.731 134.731 0 0 1-19.87-41.678l-.008-.028c-1.2-4.574-2.239-9.266-3.241-13.8-.993-4.5-2.02-9.151-3.2-13.647v-.016c-3.605-14.18-9.24-28.033-14.7-41.007a180.434 180.434 0 0 0-8.906-18.854A54.628 54.628 0 0 0 140.111 13.7l-.02-.017a46.6 46.6 0 0 0-17.631-9.121 58.824 58.824 0 0 0-9.882-1.864 64.789 64.789 0 0 0-10-.242 75.013 75.013 0 0 0-19.584 3.865 113.479 113.479 0 0 0-18.7 8.3l-.04.021c-6.765 3.518-11.8 7.267-15.4 11.462a35.587 35.587 0 0 0-4.454 6.567 45 45 0 0 0-3.065 7.387 73.783 73.783 0 0 0-2.986 16.177c-.839 10.351-.473 18.578 1.152 25.892a62.008 62.008 0 0 0 10.268 22.161 94.8 94.8 0 0 0 17.213 18.024 138.034 138.034 0 0 0 20.3 13.515c7.179 4.007 14.75 7.672 22.072 11.217l1.149.556a2 2 0 0 1-1.744 3.6l-1.148-.556c-14.84-7.185-30.184-14.615-43.166-25.236a98.782 98.782 0 0 1-17.935-18.795A65.976 65.976 0 0 1 35.6 83.011v-.012a73.109 73.109 0 0 1-1.628-13.525 118.21 118.21 0 0 1 .393-13.566V55.9a77.692 77.692 0 0 1 3.16-17.056 49.006 49.006 0 0 1 3.341-8.044 39.58 39.58 0 0 1 4.955-7.3c3.928-4.583 9.348-8.638 16.565-12.393a117.452 117.452 0 0 1 19.349-8.583 79 79 0 0 1 20.635-4.067 68.8 68.8 0 0 1 10.618.258A62.835 62.835 0 0 1 123.544.707a50.568 50.568 0 0 1 19.118 9.907 58.53 58.53 0 0 1 13.405 16.567 183.476 183.476 0 0 1 9.114 19.274v.008c5.521 13.111 11.218 27.121 14.891 41.567 1.2 4.572 2.238 9.262 3.24 13.8.992 4.494 2.018 9.141 3.2 13.633a130.733 130.733 0 0 0 19.272 40.419 2 2 0 0 1-1.628 3.16Z" class="cls-1" data-name="Pfad 158" transform="translate(-35.915 -.361)"/><path id="Pfad_159" d="M86.829 90.613a15.288 15.288 0 0 1-3.6-.423 2 2 0 1 1 .939-3.888 14.169 14.169 0 0 0 9.053-1.171 35.165 35.165 0 0 0 8.728-5.784 47.689 47.689 0 0 0 10.9-13.835c2.764-5.527 3.7-10.93 2.774-16.057a2 2 0 1 1 3.937-.709 26.656 26.656 0 0 1-.057 9.57 33.856 33.856 0 0 1-3.073 8.984 51.719 51.719 0 0 1-11.823 15.037l-.021.019a39.122 39.122 0 0 1-9.76 6.44 19.96 19.96 0 0 1-7.997 1.817Z" class="cls-1" data-name="Pfad 159" transform="translate(30.359 67.238)"/><path id="Pfad_160" d="M130.943 83.948a1.991 1.991 0 0 1-1.125-.348 70.146 70.146 0 0 0-11.964-6.506 99.884 99.884 0 0 0-12.99-4.486 269.081 269.081 0 0 0-27.654-5.546l-.535-.088a2 2 0 0 1 .649-3.947l.535.088c18.8 3.093 38.241 6.291 54.212 17.18a2 2 0 0 1-1.128 3.653Z" class="cls-1" data-name="Pfad 160" transform="translate(21.067 89.29)"/><path id="Pfad_161" d="M118.355 64.742c5.376 0 11.071 1.6 17.411 4.9a47.73 47.73 0 0 1 10.755 8.449 146.652 146.652 0 0 1 11.189 12.635A224.139 224.139 0 0 1 175.244 116a24.22 24.22 0 0 1 3.022 7.937 17.232 17.232 0 0 1-.338 7.693 18.246 18.246 0 0 1-4.131 7.3 28.654 28.654 0 0 1-7.685 5.85l-.025.013a17.783 17.783 0 0 1-8.341 2 22.144 22.144 0 0 1-9.439-2.2c-5.333-2.539-9.566-6.538-13.444-10.417l-.015-.015A244.209 244.209 0 0 1 105 97.335l-.014-.022a50 50 0 0 1-4.717-8.837 17.5 17.5 0 0 1-1.036-10.343 14.885 14.885 0 0 1 2.234-5.125 17.481 17.481 0 0 1 3.8-4.011 20.579 20.579 0 0 1 10.259-4.106 26.575 26.575 0 0 1 2.829-.149Zm45.863 76.516a24.683 24.683 0 0 0 6.609-5.007 14.289 14.289 0 0 0 3.249-5.7 13.266 13.266 0 0 0 .249-5.921 20.257 20.257 0 0 0-2.542-6.621v-.006a219.778 219.778 0 0 0-17.2-24.784 142.7 142.7 0 0 0-10.876-12.287 43.973 43.973 0 0 0-9.787-7.744c-5.756-2.993-10.848-4.448-15.566-4.448a22.557 22.557 0 0 0-2.393.127 16.525 16.525 0 0 0-8.24 3.294 12.01 12.01 0 0 0-4.581 6.848v.016a13.663 13.663 0 0 0 .876 8.03 46.462 46.462 0 0 0 4.346 8.1 240.219 240.219 0 0 0 29.339 36.2c3.63 3.63 7.572 7.362 12.328 9.626a18.123 18.123 0 0 0 7.72 1.814 13.826 13.826 0 0 0 6.47-1.537Z" class="cls-1" data-name="Pfad 161" transform="translate(54.165 91.706)"/><path id="Pfad_162" d="M82.234 73.52a2 2 0 0 1-1.5-.678c-4.412-5.008-8.9-10.042-13.24-14.909s-8.829-9.9-13.245-14.916q-.577-.634-1.149-1.268c-4.335-4.788-8.43-9.311-13.458-12.453A2 2 0 0 1 41.76 25.9c5.5 3.438 9.976 8.38 14.3 13.161q.575.636 1.154 1.273l.021.023c4.412 5.008 8.9 10.042 13.24 14.91s8.836 9.91 13.255 14.927a2 2 0 0 1-1.5 3.322Z" class="cls-1" data-name="Pfad 162" transform="translate(-29.279 37.419)"/><path id="Pfad_163" d="M116.578 93.815a1.992 1.992 0 0 1-1.334-.511C102.63 82 90.074 70.348 77.927 58.676S53.636 34.92 41.865 22.793a2 2 0 1 1 2.87-2.786C56.474 32.1 68.574 44.141 80.7 55.792s24.635 23.259 37.215 34.534a2 2 0 0 1-1.335 3.489Z" class="cls-1" data-name="Pfad 163" transform="translate(-25.673 28.819)"/><path id="Pfad_164" d="M142.512 105.578a1.991 1.991 0 0 1-1.175-.383c-2.634-1.916-5.248-3.861-7.775-5.742s-5.123-3.813-7.74-5.716l-.014-.01c-6.4-4.737-13.008-9.636-18.842-15.469a189.416 189.416 0 0 1-14.334-16.746 575.73 575.73 0 0 0-4.653-5.834A237.647 237.647 0 0 0 70.205 36.8c-6.241-6.015-12.839-11.924-19.22-17.639l-2.42-2.168a2 2 0 0 1 2.67-2.978l2.419 2.167c6.408 5.739 13.034 11.673 19.328 17.738A241.522 241.522 0 0 1 91.06 53.127l.016.019c1.59 1.957 3.168 3.954 4.7 5.886a186.4 186.4 0 0 0 14.024 16.4c5.622 5.622 12.111 10.429 18.387 15.078 2.632 1.914 5.243 3.857 7.768 5.737s5.123 3.813 7.74 5.716a2 2 0 0 1-1.178 3.618Z" class="cls-1" data-name="Pfad 164" transform="translate(-16.52 20.637)"/><path id="Pfad_165" d="M137.071 99.246a1.992 1.992 0 0 1-1.269-.455 193.091 193.091 0 0 1-20.665-20.061c-6.412-7.109-12.578-14.663-18.541-21.968-6.468-7.923-13.156-16.117-20.133-23.705A172.28 172.28 0 0 0 53.99 12.193a2 2 0 1 1 2.42-3.186 176.2 176.2 0 0 1 23 21.343c7.056 7.675 13.782 15.915 20.287 23.883 5.932 7.268 12.067 14.783 18.413 21.819A189.171 189.171 0 0 0 138.342 95.7a2 2 0 0 1-1.271 3.545Z" class="cls-1" data-name="Pfad 165" transform="translate(-9.169 13.84)"/><path id="Pfad_166" d="M128.835 76.189a2 2 0 0 1-1.495-.67C107.617 53.358 85.8 31.228 60.639 7.866a2 2 0 1 1 2.722-2.931C88.615 28.384 110.52 50.6 130.328 72.86a2 2 0 0 1-1.493 3.33Z" class="cls-1" data-name="Pfad 166" transform="translate(.262 8.015)"/><path id="Pfad_167" d="M46.9 80.164a2 2 0 0 1-1.449-3.378 484.588 484.588 0 0 1 36.642-34.695 496.381 496.381 0 0 1 40.054-30.737 2 2 0 0 1 2.271 3.293 492.362 492.362 0 0 0-39.73 30.488 480.566 480.566 0 0 0-36.339 34.407 2 2 0 0 1-1.449.622Z" class="cls-1" data-name="Pfad 167" transform="translate(-20.68 17.169)"/><path id="Pfad_168" d="M78.8 64.166a2 2 0 0 1-1.436-3.392 169.791 169.791 0 0 1 24.643-21.018 2 2 0 0 1 2.282 3.285 165.727 165.727 0 0 0-24.053 20.517 1.994 1.994 0 0 1-1.436.608Z" class="cls-1" data-name="Pfad 168" transform="translate(23.563 56.558)"/><path id="Pfad_169" d="M66 85.139a2 2 0 0 1-1.076-3.688 32.948 32.948 0 0 0 5.5-4.837c.349-.355.71-.723 1.067-1.08 7.747-8.1 15.566-16.408 23.127-24.439s15.4-16.356 23.164-24.477a2 2 0 1 1 2.891 2.764c-7.752 8.11-15.577 16.42-23.143 24.456s-15.4 16.356-23.163 24.477l-.032.032c-.349.349-.709.716-1.057 1.07a35.934 35.934 0 0 1-6.206 5.409 1.991 1.991 0 0 1-1.072.313Z" class="cls-1" data-name="Pfad 169" transform="translate(5.81 37.973)"/><path id="Pfad_170" d="M60.9 78.413a2 2 0 0 1-1.368-3.459 482.553 482.553 0 0 0 3.688-3.505c2.442-2.337 4.967-4.754 7.556-7.021l.3-.28c15.062-14.12 30.636-28.722 46.81-41.8a2 2 0 1 1 2.515 3.11C104.339 38.445 88.819 53 73.81 67.066l-.323.3-.051.046c-2.531 2.215-4.921 4.5-7.45 6.923a478.678 478.678 0 0 1-3.718 3.534 1.993 1.993 0 0 1-1.368.544Z" class="cls-1" data-name="Pfad 170" transform="translate(-1.263 32.287)"/><path id="Pfad_171" d="M50.6 91.1a2 2 0 0 1-1.5-3.325 649.222 649.222 0 0 1 37.144-38.643c12.708-12.177 26.229-24.147 40.187-35.579a2 2 0 1 1 2.534 3.095c-13.878 11.366-27.321 23.267-39.954 35.372A645.067 645.067 0 0 0 52.1 90.42a2 2 0 0 1-1.5.68Z" class="cls-1" data-name="Pfad 171" transform="translate(-15.549 20.082)"/><path id="Pfad_172" d="M41.2 76.151a2 2 0 0 1-1.4-3.429c23.16-22.682 46.7-45.5 69.468-67.558a2 2 0 1 1 2.784 2.873C89.289 30.095 65.752 52.9 42.6 75.579a1.994 1.994 0 0 1-1.4.572Z" class="cls-1" data-name="Pfad 172" transform="translate(-28.586 8.293)"/></g><path id="Pfad_173" d="M26.6 110.637a30.237 30.237 0 0 1-6.929-1.111A32.756 32.756 0 0 1 13 107.057c-3.49-1.862-6.154-3.5-8.646-7.655q-.024-.04-.046-.081a68.417 68.417 0 0 0-1.49-2.573C1.284 94.175-.307 91.514-.9 88.767l-.01-.05a49.131 49.131 0 0 1-.507-12.2v-.057a36.18 36.18 0 0 1 4.3-14.626l.033-.058c3.021-5.016 7.998-8.242 12.927-10.976h.007c5.185-2.852 10.041-2.885 15.85-2.633l.079.005a42.833 42.833 0 0 1 9.537 2.005l.051.018a41.768 41.768 0 0 1 8.579 4.776l.068.05c3.978 3.042 6.784 5.451 9.423 10.993a26.331 26.331 0 0 1 2.3 8.578 19.558 19.558 0 0 1-1.056 9.008 2 2 0 1 1-3.714-1.486 15.589 15.589 0 0 0 .791-7.154 22.229 22.229 0 0 0-1.935-7.239c-2.174-4.566-4.272-6.5-8.205-9.506a37.858 37.858 0 0 0-7.593-4.261 39.274 39.274 0 0 0-8.539-1.8c-5.327-.231-9.432-.208-13.7 2.141-4.432 2.463-8.88 5.319-11.41 9.515a32.325 32.325 0 0 0-3.8 13 47.1 47.1 0 0 0 .445 11.14c.456 2.094 1.868 4.457 3.234 6.743.556.93 1.081 1.809 1.556 2.687 1.9 3.15 3.7 4.347 7.08 6.148h.007a32.709 32.709 0 0 0 11.685 3.1 35.461 35.461 0 0 0 16.654-4.047 27.906 27.906 0 0 0 11.419-12.039 2 2 0 1 1 3.563 1.818 31.835 31.835 0 0 1-13.047 13.731 39.405 39.405 0 0 1-18.535 4.546Z" class="cls-1" data-name="Pfad 173" transform="translate(-.44 68.568)"/></g></g></svg>