<svg xmlns="http://www.w3.org/2000/svg" width="228.641" height="250.471" viewBox="0 0 228.641 250.471">
  <g id="Gruppe_468" data-name="Gruppe 468" transform="translate(3.358 3)">
    <path id="Pfad_2610" data-name="Pfad 2610" d="M4.73,226.909c.438-40.369,1.1-80.736-.876-119.19C1.882,68.313,0,0,0,0" transform="matrix(-0.946, -0.326, 0.326, -0.946, 147.507, 243.554)" fill="none" stroke="#ffffa6" stroke-linecap="round" stroke-linejoin="round" stroke-miterlimit="7.07" stroke-width="6"/>
    <path id="Pfad_2611" data-name="Pfad 2611" d="M-14362.951,12397.415a239.778,239.778,0,0,1-32.377-11.119c-2.365-1-7.91-3.477-7.91-3.477s-32.549-15.643-49.449-20.156c-3.59-.957-10.82-2.645-10.82-2.645s-18.654-2.984-39.027-4.947c-11.443-1.1-23.883-.848-32.834-2.219-25.926-3.969-21.031-6.072-21.031-6.072l-12.861,38.25s-2.256,9.758-3.1,15.078c-1.7,10.641-1.2,21.1-1.256,30.9-.074,13.34,0,23.8,0,23.8a15.758,15.758,0,0,0,10.514,2.242c5.4-.48,13.855-4.418,27.729-2.242,27.859,4.369,43.418,8.582,70.9,18.082s25.094,13.586,40.061,19.365,19.8,3.734,19.8,3.734" transform="translate(14576.26 -12346.78)" fill="none" stroke="#ffffa6" stroke-linecap="round" stroke-linejoin="round" stroke-width="6"/>
    <path id="Pfad_2612" data-name="Pfad 2612" d="M-14383.555,12409.426s-61.992-34.547-107.576-46.619-74.77-1.672-74.77-1.672" transform="translate(14579.877 -12334.642)" fill="none" stroke="#ffffa6" stroke-linecap="round" stroke-linejoin="round" stroke-width="6"/>
    <path id="Pfad_2613" data-name="Pfad 2613" d="M-14382.617,12415.963s-63.449-32.293-105.965-45.1-55.432-.842-74.494-3.121" transform="translate(14572.75 -12325.27)" fill="none" stroke="#ffffa6" stroke-linecap="round" stroke-linejoin="round" stroke-width="6"/>
    <path id="Pfad_2614" data-name="Pfad 2614" d="M-14380.859,12426.924s-40.533-23.078-79.42-35.848c-22.09-7.254-41.57-15.9-61.008-18.258-13.658-1.656-17.945,7.311-41.789,5.2" transform="translate(14570.992 -12316.016)" fill="none" stroke="#ffffa6" stroke-linecap="round" stroke-linejoin="round" stroke-width="6"/>
    <path id="Pfad_2615" data-name="Pfad 2615" d="M-14378.631,12426.346s-51.586-24.992-91.268-36.529-43.643-7.107-65.742-8.488-22.66,2.959-22.66,2.959" transform="translate(14558.301 -12305.962)" fill="none" stroke="#ffffa6" stroke-linecap="round" stroke-linejoin="round" stroke-width="6"/>
    <path id="Pfad_2616" data-name="Pfad 2616" d="M-14386.455,12438.035c-19.937-14.021-61.82-30.557-100.846-43.082s-38.107-6.33-55.256-7.012-12.631,7.012-12.631,7.012" transform="translate(14560.482 -12298.882)" fill="none" stroke="#ffffa6" stroke-linecap="round" stroke-linejoin="round" stroke-width="6"/>
  </g>
</svg>
