<svg xmlns="http://www.w3.org/2000/svg" width="240" height="240"><g fill="none" stroke="#ffffa6" stroke-linecap="round" stroke-width="4" data-name="Gruppe 279"><path stroke-linejoin="round" stroke-width="3.92756" d="M36.19 97.292c43.579 0 87.158-6.104 130.52-6.104" data-name="Pfad 351"/><path stroke-linejoin="bevel" stroke-width="3.92756" d="M47.55 102.546c0 4.662.651 9.305.868 13.967 1.62 35.5 2.946 70.998 4.366 106.518.277 6.954 28.605 4.742 33.168 4.8 21.375.295 42.789 0 64.164 0" data-name="Pfad 352"/><path stroke-linejoin="round" stroke-width="3.92756" d="M162.344 96.857c0 45.12.869 90.22.869 135.32" data-name="Pfad 353"/><path stroke-linejoin="round" stroke-width="3.92756" d="M173.703 236.109c3.694-2.963 6.954-5.891 10.47-9.166" data-name="Pfad 354"/><path stroke-linejoin="bevel" stroke-width="3.92756" d="M190.732 218.645c0-33.207-3.061-66.317-3.061-99.524V83.325c0-.533.572-9.246 0-9.601-4.682-2.924-15.981 16.338-16.594 19.638" data-name="Pfad 355"/><path stroke-linejoin="round" stroke-width="3.92756" d="M61.08 92.057c1.305-.573 19.203-9.463 20.522-10.036" data-name="Pfad 356"/><path stroke-linejoin="round" stroke-width="3.92756" d="M81.586 82.021c34.532 4.943 68.984-4.365 103.021-4.365" data-name="Pfad 357"/><path stroke-linejoin="bevel" stroke-width="3.92756" d="M90.752 120.88c0-2.767-.257-5.532 0-8.298 2.056-21.987 3.027-44.11 6.54-65.922.355-2.212 11.399-2.37 12.666-1.738 3.592 1.797 10.823 13.927 11.356 14.836 9.64 16.85 13.097 39.727 13.097 58.928" data-name="Pfad 358"/><path stroke-linejoin="bevel" stroke-width="3.92756" d="M113.016 86.385c0-4.8-.455-9.622 0-14.4 1.047-11.064-1.146-23.075 3.496-33.17 2.49-5.452 9.78-7.9 15.706-8.73 4.385-.612 7.19 5.453 9.6 9.167 8.515 13.117 11.36 24.239 11.36 39.292" data-name="Pfad 359"/><path stroke-linejoin="round" stroke-width="3.92756" d="M175.007 54.087c3.32-6.637 9.858-11.082 15.27-16.159" data-name="Pfad 360"/><path stroke-linejoin="round" stroke-width="3.92756" d="M175.876 19.161c.393-4.365.771-8.751 1.304-13.097" data-name="Pfad 361"/><path stroke-linejoin="round" stroke-width="3.92756" d="M93.381 18.292c0-7.862.098-3.496-.435-13.097" data-name="Pfad 362"/><path stroke-linejoin="round" stroke-width="3.92756" d="M63.254 55.826c-3.142-2.509-5.414-5.966-7.862-9.166" data-name="Pfad 363"/><path stroke-linejoin="round" stroke-width="3.92756" d="M37.494 72.423c-5.057-.556-9.147-4.665-13.098-7.865" data-name="Pfad 364"/><path stroke-linejoin="round" stroke-width="3.92756" d="M133.107 14.36c.533-7.882-.039-4.405 1.304-10.469" data-name="Pfad 365"/><path stroke-linejoin="round" stroke-width="3.92756" d="M210.368 71.096h5.236" data-name="Pfad 366"/><path stroke-linejoin="round" stroke-width="3.92756" d="M76.352 35.755c-3.16-5.53-5.966-11.28-8.732-17.029" data-name="Pfad 367"/></g></svg>