<svg xmlns="http://www.w3.org/2000/svg" width="199.546" height="241.697" viewBox="0 0 199.546 241.697">
  <g id="goodie_bag" transform="translate(2.443 2.005)">
    <g id="Ebene_2" transform="translate(0.37 0.38)">
      <g id="Gruppe_279" data-name="Gruppe 279">
        <path id="Pfad_351" data-name="Pfad 351" d="M6.34,50.787c44.383,0,88.766-6.217,132.927-6.217" transform="translate(5.671 44.337)" fill="none" stroke="#ffffa6" stroke-linecap="round" stroke-linejoin="round" stroke-width="4"/>
        <path id="Pfad_352" data-name="Pfad 352" d="M12.09,50.32c0,4.748.664,9.476.885,14.224,1.65,36.154,3,72.308,4.446,108.483.282,7.082,29.133,4.829,33.78,4.889,21.769.3,43.578,0,65.347,0" transform="translate(11.49 50.155)" fill="none" stroke="#ffffa6" stroke-linecap="round" stroke-linejoin="bevel" stroke-width="4"/>
        <path id="Pfad_353" data-name="Pfad 353" d="M70.2,47.44c0,45.952.885,91.884.885,137.816" transform="translate(70.292 47.241)" fill="none" stroke="#ffffa6" stroke-linecap="round" stroke-linejoin="round" stroke-width="4"/>
        <path id="Pfad_354" data-name="Pfad 354" d="M75.95,122.625c3.762-3.018,7.082-6,10.663-9.335" transform="translate(76.111 113.876)" fill="none" stroke="#ffffa6" stroke-linecap="round" stroke-linejoin="round" stroke-width="4"/>
        <path id="Pfad_355" data-name="Pfad 355" d="M94.639,183.478c0-33.82-3.118-67.54-3.118-101.36V45.662c0-.543.583-9.416,0-9.778-4.768-2.978-16.276,16.639-16.9,20" transform="translate(74.765 35.237)" fill="none" stroke="#ffffa6" stroke-linecap="round" stroke-linejoin="bevel" stroke-width="4"/>
        <path id="Pfad_356" data-name="Pfad 356" d="M18.94,50.151c1.328-.583,19.556-9.637,20.9-10.221" transform="translate(18.421 39.641)" fill="none" stroke="#ffffa6" stroke-linecap="round" stroke-linejoin="round" stroke-width="4"/>
        <path id="Pfad_357" data-name="Pfad 357" d="M29.32,42.166C64.488,47.2,99.576,37.72,134.241,37.72" transform="translate(28.925 37.405)" fill="none" stroke="#ffffa6" stroke-linecap="round" stroke-linejoin="round" stroke-width="4"/>
        <path id="Pfad_358" data-name="Pfad 358" d="M34.018,98.674c0-2.817-.262-5.633,0-8.45C36.111,67.831,37.1,45.3,40.678,23.086c.362-2.253,11.609-2.414,12.9-1.77C57.236,23.146,64.6,35.5,65.143,36.425c9.818,17.162,13.339,40.46,13.339,60.015" transform="translate(33.562 20.472)" fill="none" stroke="#ffffa6" stroke-linecap="round" stroke-linejoin="bevel" stroke-width="4"/>
        <path id="Pfad_359" data-name="Pfad 359" d="M45.333,71c0-4.889-.463-9.8,0-14.667,1.066-11.267-1.167-23.5,3.561-33.78C51.43,17,58.854,14.507,64.889,13.662c4.466-.624,7.323,5.553,9.778,9.335,8.671,13.359,11.569,24.686,11.569,40.017" transform="translate(44.921 13.016)" fill="none" stroke="#ffffa6" stroke-linecap="round" stroke-linejoin="bevel" stroke-width="4"/>
        <path id="Pfad_360" data-name="Pfad 360" d="M76.61,34.067c3.38-6.76,10.039-11.287,15.552-16.457" transform="translate(76.779 17.055)" fill="none" stroke="#ffffa6" stroke-linecap="round" stroke-linejoin="round" stroke-width="4"/>
        <path id="Pfad_361" data-name="Pfad 361" d="M77.05,14.819c.4-4.446.785-8.913,1.328-13.339" transform="translate(77.224 0.733)" fill="none" stroke="#ffffa6" stroke-linecap="round" stroke-linejoin="round" stroke-width="4"/>
        <path id="Pfad_362" data-name="Pfad 362" d="M35.513,14.379c0-8.007.1-3.561-.443-13.339" transform="translate(34.744 0.288)" fill="none" stroke="#ffffa6" stroke-linecap="round" stroke-linejoin="round" stroke-width="4"/>
        <path id="Pfad_363" data-name="Pfad 363" d="M24.067,31.365c-3.2-2.555-5.513-6.076-8.007-9.335" transform="translate(15.507 21.528)" fill="none" stroke="#ffffa6" stroke-linecap="round" stroke-linejoin="round" stroke-width="4"/>
        <path id="Pfad_364" data-name="Pfad 364" d="M13.709,39.1C8.559,38.534,4.394,34.349.37,31.09" transform="translate(-0.37 30.696)" fill="none" stroke="#ffffa6" stroke-linecap="round" stroke-linejoin="round" stroke-width="4"/>
        <path id="Pfad_365" data-name="Pfad 365" d="M55.4,11.043c.543-8.028-.04-4.487,1.328-10.663" transform="translate(55.316 -0.38)" fill="none" stroke="#ffffa6" stroke-linecap="round" stroke-linejoin="round" stroke-width="4"/>
        <path id="Pfad_366" data-name="Pfad 366" d="M94.51,34.4h5.332" transform="translate(94.892 34.045)" fill="none" stroke="#ffffa6" stroke-linecap="round" stroke-linejoin="round" stroke-width="4"/>
        <path id="Pfad_367" data-name="Pfad 367" d="M31.143,25.233C27.924,19.6,25.067,13.745,22.25,7.89" transform="translate(21.771 7.219)" fill="none" stroke="#ffffa6" stroke-linecap="round" stroke-linejoin="round" stroke-width="4"/>
      </g>
    </g>
  </g>
</svg>
