<svg xmlns="http://www.w3.org/2000/svg" width="180.435" height="165.989"><g fill="none" stroke="#ff0048" stroke-linecap="round" stroke-linejoin="round" stroke-miterlimit="7.07" stroke-width="5" data-name="Gruppe 255"><path d="M64.117 63.674a43.4 43.4 0 0 0-23.644-1.566 7.53 7.53 0 0 0-4.7 2.349 5.869 5.869 0 0 0-.939 4.228c.626 9.238 9.238 15.658 17.537 19.729s17.54 7.672 22.394 15.657c1.566 2.662 2.505 5.95 1.409 8.768s-3.758 4.7-6.576 5.637c-6.733 2.663-14.562.784-20.825-2.974s-11.274-9.242-16.128-14.719" data-name="Pfad 257"/><path d="M80.715 68.998c1.409 5.324 4.7 17.224 6.107 22.547" data-name="Pfad 258"/><path d="M68.345 84.813c9.708-2.505 19.416-5.324 29.124-8.612" data-name="Pfad 259"/><path d="M110.309 87.474a83.491 83.491 0 0 0 2.505-39.3 6.2 6.2 0 0 0-1.1-2.975c-1.409-1.722-4.071-1.566-5.793-.313s-2.505 3.445-3.132 5.48c-2.192 8.3-.47 17.224 1.879 25.522a146.206 146.206 0 0 0 7.833 21.45c.47 1.253 1.1 2.818 0 3.758-1.253 1.253-3.288-.157-4.384-1.566a31.9 31.9 0 0 1-5.95-14.249 4.257 4.257 0 0 1 0-1.409c.47-1.879 3.288-1.566 5.011-.783 7.672 2.818 17.537 11.117 25.679 10.021s15.971-5.792 19.415-13.151" data-name="Pfad 260"/><g data-name="Gruppe 254"><path d="M89.797 37.212c-4.854-11.587-16.128-21.138-31.316-23.957s-34.135 1.879-44.939 12.527S1.486 50.521 3.052 62.891c3.132 26.932 16.441 52.141 37.892 71.4 18.79 17.224 47.913 30.376 78.76 23.487" data-name="Pfad 261"/><path d="M94.807 31.419a47.562 47.562 0 0 1 12.057-21.138c3.131-3.288 7.043-6.576 11.9-7.52 3.914-.783 7.829.157 11.274 1.253 22.391 6.89 39.145 21.921 45.251 40.554 9.238 28.5-7.2 62.162-34.291 87.058-11.117 10.178-23.957 19.416-33.038 30.846" data-name="Pfad 262"/></g></g></svg>