<svg xmlns="http://www.w3.org/2000/svg" width="203.794" height="237.748"><g fill="none" stroke="#ffffa6" stroke-linecap="round" stroke-linejoin="round" stroke-width="6"><path d="M164.904 92.309c-21.276 19.87-41.9 39.992-60.931 62.023-2.014 2.329-4.112 4.553-6.232 6.777-1.616 1.7-7.553 9.9-11.246 7.952-2.812-1.49-18.065-12.967-22.891-16.345-10.869-7.637-21.318-14.687-31.683-22.744-7.448-5.791-15.233-11.289-22.471-17.332-1.115-.923-4.071-5.14-5.415-2.433-.357.734.063 1.637 0 2.434-.376 4.951-.88 9.924-.817 14.897.189 15.778 4.49 30.864 5.959 46.58 1.7 18.233 1.469 33.026.273 51.343-.126 1.993-.5 3.987-.818 5.959-.126.818-1.238 1.972-.546 2.434.5.336 6.735-.713 7.323-.818 2.707-.441 5.392-1.091 8.12-1.364 12.211-1.217 26.815-2.077 39.005-2.434 9.106-.273 18.233-.084 27.36-.273 8.582-.168 17.163-.525 25.724-.818 20.415-.692 40.768-2.812 61.2-3.525 9.358-.315 12.526-.273 20.856-.273.986 0 2.371.8 2.979 0 1.427-1.867-3.084-9.043-3.525-10.029-1.574-3.588-3.231-7.155-4.6-10.827-1.867-4.994-3.546-5.35-5.141-10.449-7.05-22.535-15.862-44.859-20.856-67.981-1.616-7.512-2.1-15.212-3.525-22.744-1.322-7.071-.965-8.246-.965-8.246" data-name="Pfad 436"/><path d="M136.202 115.599c0-4.952-.986-9.211-1.616-14.079-2.833-21.653-6.127-36.8-10.827-58.162-2.56-11.687-4.742-26.374-10.3-37.117-.923-1.8-6.295-.818-7.847-.818h-11.92c-9.463 0-19.24.273-28.7 0-13.561-.399-29.168-1.595-42.722-1.889-2.077-.042-4.658-1.343-6.232 0-.881.755-.273 5.623-.273 6.5 0 11.078 2.749 21.674 3.441 32.774 1.972 32.144 7.784 47.713 7.784 80" data-name="Pfad 437"/><path d="M163.122 92.12c-8.162-1.364-22.199-14.142-29.354-18.233" data-name="Pfad 438"/><path d="M4.226 109.996c7.721-6.441 14.142-19.028 19.093-27.738" data-name="Pfad 439"/><path d="M196.86 220.026c-28.051-28.053-54.616-52.036-84.431-78.116" data-name="Pfad 440"/><path d="M54.833 147.911c-1.175 6.441-39.7 78.325-45.95 85.606" data-name="Pfad 441"/><g data-name="Gruppe 286"><path d="M63.478 68.285c-7.449.5-21.381 7.931-16.7 17.793 3.9 8.246 15.128 11.078 23.814 8.141 17.079-5.791 24.276-21.947 34.557-25.346" data-name="Pfad 442"/><path d="M64.968 68.18c-12.463-.147-16.429-9.19-15.443-17.205 1.427-7.029 10.68-9.82 14.6-10.071 19.6-1.322 22.639 19.052 41.712 27.549" data-name="Pfad 443"/></g></g></svg>