<svg xmlns="http://www.w3.org/2000/svg" width="203.794" height="237.747"><g fill="none" stroke="#ffffa6" stroke-linecap="round" stroke-linejoin="round" stroke-width="6"><path d="M38.89 92.309c21.275 19.87 41.9 39.991 60.931 62.02 2.014 2.329 4.112 4.553 6.232 6.777 1.616 1.7 7.553 9.9 11.246 7.952 2.812-1.49 18.065-12.967 22.891-16.345 10.869-7.637 21.318-14.687 31.683-22.744 7.449-5.791 15.233-11.288 22.472-17.331 1.112-.923 4.07-5.141 5.413-2.434.357.734-.063 1.637 0 2.434.378 4.952.881 9.924.818 14.9-.189 15.778-4.49 30.864-5.959 46.58-1.7 18.233-1.469 33.025-.273 51.343.126 1.993.5 3.987.818 5.959.126.818 1.238 1.972.546 2.434-.5.336-6.735-.713-7.323-.818-2.707-.441-5.392-1.091-8.12-1.364-12.211-1.217-26.815-2.077-39.005-2.434-9.106-.273-18.233-.084-27.36-.273-8.582-.168-17.163-.525-25.724-.818-20.415-.692-40.768-2.812-61.2-3.525-9.358-.315-12.526-.273-20.856-.273-.986 0-2.371.8-2.979 0-1.427-1.867 3.084-9.043 3.525-10.029 1.574-3.588 3.231-7.155 4.6-10.827 1.867-4.994 3.546-5.35 5.141-10.449 7.05-22.535 15.862-44.859 20.856-67.981 1.616-7.512 2.1-15.212 3.525-22.744 1.322-7.071.965-8.246.965-8.246" data-name="Pfad 436"/><path d="M67.593 115.599c0-4.952.986-9.211 1.616-14.079 2.833-21.653 6.127-36.8 10.827-58.162 2.56-11.687 4.742-26.374 10.3-37.117.923-1.8 6.295-.818 7.847-.818h11.919c9.463 0 19.24.273 28.7 0 13.561-.399 29.168-1.595 42.723-1.889 2.077-.042 4.658-1.343 6.232 0 .881.755.273 5.623.273 6.5 0 11.078-2.749 21.674-3.441 32.774-1.972 32.144-7.784 47.713-7.784 80" data-name="Pfad 437"/><path d="M40.673 92.12c8.162-1.364 22.2-14.142 29.354-18.233" data-name="Pfad 438"/><path d="M199.569 109.996c-7.724-6.441-14.142-19.028-19.094-27.738" data-name="Pfad 439"/><path d="M6.934 220.026c28.053-28.053 54.616-52.036 84.431-78.116" data-name="Pfad 440"/><path d="M148.961 147.911c1.175 6.441 39.7 78.325 45.95 85.606" data-name="Pfad 441"/><g data-name="Gruppe 286"><path d="M140.316 68.285c7.449.5 21.381 7.931 16.7 17.793-3.9 8.246-15.128 11.078-23.814 8.141-17.078-5.791-24.275-21.947-34.556-25.347" data-name="Pfad 442"/><path d="M138.827 68.18c12.463-.147 16.427-9.189 15.442-17.206-1.427-7.029-10.68-9.82-14.6-10.071-19.6-1.322-22.642 19.052-41.715 27.549" data-name="Pfad 443"/></g></g></svg>