<svg xmlns="http://www.w3.org/2000/svg" width="292.019" height="284.478"><g fill="none" stroke="#ffffa6" stroke-linecap="round" stroke-linejoin="round" stroke-width="6"><path d="M139.66 27.14c23.912-8.07 19.47 24.238 16.695 37.461-6.514 31.025-20.8 73.38-46.377 92.941-4.562 3.47-9.595 3.7-15.503 3.763-22.443.307-15.32-37.438-12.63-50.09 6.5-30.502 29.295-62.593 53.708-81.647" data-name="Pfad 226"/><path d="M144.538 94.3c-7.33-2.668-14.854-4.099-22.43-5.876-2.57-.609-5.684-4.006-7.581-2.18-.268.254.805.343.878.696 1.204 4.914-5.127 15.813-7.737 19.666-.273.404-5.481 8.013-7.036 4.682-1.793-3.846 7.926-25.785 10.977-28.569 1.428-1.29 2.247-.033 1.99 1.303" data-name="Pfad 227"/><path d="M101.338 110.389c10.548 3.839 21.756 9.805 30.332 17.126" data-name="Pfad 228"/><path d="M154.312 31.794c7.147 41.58 45.8 60.855 81.641 73.9" data-name="Pfad 229"/><path d="M103.284 162.525c29.187-3.36 57.086-2.686 84.273 11.258 4.668 2.378 8.649 5.809 13.601 7.611" data-name="Pfad 230"/><path d="M239.377 104.65c-.726 26.243-5.869 45.973-23.778 66.363-4.081 4.65-11.298 14.598-18.29 14.669" data-name="Pfad 231"/><path d="M242.954 110.304c22.872 8.325 43.253 57.489 20.114 73.385-20.418 14.02-38.51 8.314-59.424.702" data-name="Pfad 232"/><path d="M227.17 196.777c-1.778 4.885-12.895 24.654-16.773 26.462-2.786 1.3-12.342-5.197-15.295-6.272s-10.714-2.692-12.058-6.049c-1.232-3.108 12.06-24.43 14.74-28.132" data-name="Pfad 233"/><path d="M201.903 224.397c-9.96 14.101-19.707 29.065-31.389 41.814-3.167 3.448-6.534 8.761-10.605 5.643-2.54-1.93-13.987-2.75-14.9-5.424-1.26-3.727 10.083-13.607 11.658-15.724 8.037-10.68 18.145-21.662 24.72-33.301" data-name="Pfad 234"/><path d="M87.433 30.788c-6.762-5.121-9.39-10.409-14.687-16.662" data-name="Pfad 235"/><path d="M64.897 48.967c-10.348-3.766-19.1-10.677-28.715-16.11" data-name="Pfad 236"/><path d="M53.948 72.14c-9.282-3.378-18.7-6.177-27.96-9.547" data-name="Pfad 237"/><path d="M44.628 123.522c-7.036-.499-13.586 1.744-19.94 4.688" data-name="Pfad 238"/><path d="M57.188 149.468c-4.359 2.035-8.834 3.198-13.226 5.246" data-name="Pfad 239"/><path d="M113.701 19.628c-6.544-3.162-8.833-8.622-13.028-14.299" data-name="Pfad 240"/><path d="m45.726 97.29-40.934-2.3" data-name="Linie 14"/></g></svg>