<svg xmlns="http://www.w3.org/2000/svg" width="292.019" height="284.478"><g fill="none" stroke="#ffffa6" stroke-linecap="round" stroke-linejoin="round" stroke-width="6"><path d="M152.358 27.14c-23.907-8.072-19.469 24.237-16.693 37.46 6.514 31.025 20.799 73.381 46.377 92.943 4.562 3.47 9.596 3.7 15.503 3.763 22.443.306 15.32-37.438 12.63-50.09-6.5-30.502-29.295-62.593-53.708-81.647" data-name="Pfad 226"/><path d="M147.48 94.3c7.33-2.668 14.855-4.098 22.431-5.876 2.57-.609 5.684-4.006 7.581-2.18.268.254-.805.343-.878.696-1.204 4.914 5.127 15.813 7.737 19.666.273.404 5.481 8.013 7.035 4.682 1.794-3.845-7.925-25.784-10.977-28.569-1.427-1.29-2.246-.033-1.99 1.304" data-name="Pfad 227"/><path d="M190.68 110.388c-10.548 3.84-21.758 9.805-30.332 17.126" data-name="Pfad 228"/><path d="M137.706 31.793c-7.147 41.582-45.8 60.855-81.64 73.9" data-name="Pfad 229"/><path d="M188.734 162.525c-29.19-3.363-57.082-2.682-84.273 11.258-4.668 2.378-8.65 5.809-13.601 7.611" data-name="Pfad 230"/><path d="M52.642 104.651c.725 26.242 5.865 45.974 23.777 66.362 4.082 4.65 11.298 14.598 18.29 14.668" data-name="Pfad 231"/><path d="M49.067 110.303c-22.873 8.325-43.254 57.488-20.114 73.385 20.417 14.02 38.51 8.315 59.424.703" data-name="Pfad 232"/><path d="M64.848 196.777c1.779 4.887 12.896 24.654 16.772 26.46 2.787 1.299 12.342-5.197 15.296-6.272s10.714-2.693 12.058-6.05c1.232-3.108-12.06-24.43-14.74-28.131" data-name="Pfad 233"/><path d="M90.116 224.397c9.961 14.103 19.707 29.065 31.389 41.814 3.17 3.448 6.534 8.763 10.606 5.646 2.54-1.93 13.987-2.75 14.9-5.423 1.26-3.728-10.083-13.607-11.658-15.724-8.037-10.68-18.145-21.663-24.72-33.302" data-name="Pfad 234"/><path d="M204.586 30.789c6.762-5.122 9.39-10.41 14.687-16.662" data-name="Pfad 235"/><path d="M227.12 48.967c10.348-3.767 19.1-10.677 28.715-16.11" data-name="Pfad 236"/><path d="M238.07 72.141c9.282-3.378 18.7-6.177 27.96-9.547" data-name="Pfad 237"/><path d="M247.39 123.521c7.037-.498 13.587 1.745 19.94 4.688" data-name="Pfad 238"/><path d="M234.831 149.469c4.358 2.032 8.834 3.197 13.226 5.245" data-name="Pfad 239"/><path d="M178.318 19.628c6.544-3.162 8.834-8.622 13.028-14.298" data-name="Pfad 240"/><path d="m246.293 97.29 40.934-2.3" data-name="Linie 14"/></g></svg>