<svg xmlns="http://www.w3.org/2000/svg" width="59.624" height="59.5" viewBox="0 0 59.624 59.5">
  <g id="Gruppe_277" data-name="Gruppe 277" transform="translate(8882.352 -397.25)">
    <path id="Pfad_71" data-name="Pfad 71" d="M557.8,110c-14.057,0-28.036,15.039-28.036,29.039S543.746,166,557.8,166s28.087-12.961,28.087-26.961S571.859,110,557.8,110Z" transform="translate(-9410.368 289)" fill="none" stroke="#ffffa6" stroke-linejoin="bevel" stroke-width="3.5"/>
    <path id="Pfad_339" data-name="Pfad 339" d="M-8868.013,416.285c2.52-.243,3.092-.973,10.519-.973s19.628.973,19.628.973" transform="translate(0.399 2.946)" fill="none" stroke="#ffffa6" stroke-width="3.5"/>
    <path id="Pfad_340" data-name="Pfad 340" d="M-8867.574,416.285s15.567-.629,22.994-.629,6.833.472,8.512.629" transform="translate(-0.719 10.937)" fill="none" stroke="#ffffa6" stroke-width="3.5"/>
    <path id="Pfad_341" data-name="Pfad 341" d="M-8867.745,416.285c3.785-.133,6.8,1.149,14.223,1.149a132.312,132.312,0,0,0,15.656-1.149" transform="translate(0.266 18.308)" fill="none" stroke="#ffffa6" stroke-width="3.5"/>
  </g>
</svg>
