<svg xmlns="http://www.w3.org/2000/svg" id="svg4467" width="76.662" height="76.5" version="1.1"><defs id="defs4461"><style id="style4459">.cls-1{fill:#ff0048}</style></defs><path id="Pfad_105" d="M38.299 0a31.937 31.937 0 0 0-14.215 3.525 44.294 44.294 0 0 0-12.193 9.1 46.239 46.239 0 0 0-8.602 12.643 38.421 38.421 0 0 0-2.424 7.07 31.032 31.032 0 0 0 2.442 21.215 40.826 40.826 0 0 0 8.64 11.736 42.792 42.792 0 0 0 12.21 8.14 34.113 34.113 0 0 0 28.29 0 42.927 42.927 0 0 0 12.233-8.138 40.866 40.866 0 0 0 8.664-11.736 30.942 30.942 0 0 0 2.45-21.217 38.353 38.353 0 0 0-2.433-7.072 46.273 46.273 0 0 0-8.62-12.643 44.425 44.425 0 0 0-12.216-9.094A32 32 0 0 0 38.3 0Zm.006 3.5a26.929 26.929 0 0 1 12.67 3.166 40.89 40.89 0 0 1 11.238 8.375 42.735 42.735 0 0 1 7.963 11.672 31.162 31.162 0 0 1 2.986 12.89 28.505 28.505 0 0 1-2.97 12.43 37.33 37.33 0 0 1-7.92 10.717 39.389 39.389 0 0 1-11.221 7.47A31.859 31.859 0 0 1 38.299 73a31.789 31.789 0 0 1-12.736-2.78 39.252 39.252 0 0 1-11.2-7.468 37.29 37.29 0 0 1-7.9-10.717 28.581 28.581 0 0 1-2.96-12.431A31.246 31.246 0 0 1 6.48 26.71a42.7 42.7 0 0 1 7.941-11.672 40.759 40.759 0 0 1 11.213-8.373A26.929 26.929 0 0 1 38.305 3.5Zm-.928 36.887-.004.002a.008.008 0 0 1 .004-.002z" class="cls-1"/><path id="Pfad_107" d="M57.61 40h-36.6a1.75 1.75 0 0 1-1.75-1.75 1.75 1.75 0 0 1 1.75-1.75h36.6a1.75 1.75 0 0 1 1.75 1.75A1.75 1.75 0 0 1 57.61 40z" class="cls-1" data-name="Pfad 107"/></svg>