<svg xmlns="http://www.w3.org/2000/svg" width="198.742" height="146.999"><g fill="none" stroke="#ff0048" stroke-linecap="round" stroke-linejoin="round" stroke-width="4"><path d="M158.069 14.985c1.27 0 3.9-.429 5.1 0 5.437 2 3.917 16.276 3.917 20.372 0 21.356-.393 42.694-.393 64.068 0 2.969-1.306 22.375.787 23.717 2.593 1.646 3.345-7.172 3.524-7.673 3.184-8.961 9.623-59.722 10.785-75.98.3-4.167 1.4-12.556-3.13-15.275-1.824-1.091-6.242-.8-8.424-1.18" data-name="Pfad 487"/><path d="M184.72 30.671c16.884 0 12.2 9.98 9.015 22.34-4.346 16.867-10.285 33.358-14.309 50.349-2.5 10.589-6.636 20.766-9.8 31.158-.483 1.592-1.7 7.584-4.7 6.081-5.312-2.647-4.114-22.411-4.114-26.847 0-8.21.662-16.741-.2-24.88-1.252-11.912-2.9-23.681-3.524-35.665-.7-13.361-1.878-26.561-2.343-39.886" data-name="Pfad 488"/><path d="M50.038 144.355h81.06c9.891 0 20.569 1.127 30.317-.644" data-name="Pfad 489"/><path d="M154.689 13.089C154.689 2.537 148.912 2 139.504 2" data-name="Pfad 490"/><path d="M132.957 2.268c-25.452 0-51.333.554-76.8 1.842-16.636.823-33.074 4.186-49.815 4.186" data-name="Pfad 491"/><path d="M6.503 8.815c-5.974 0-4.4 14.989-4.114 18.548.125 1.485-.2 4.7 1.109 5.741" data-name="Pfad 492"/><path d="M4.75 35.304c0 25.988 1.234 50.94 3.738 76.749.68 6.976-.948 19.478 2.987 25.667 2.522 3.953 8.12 5.741 14.345 6.725" data-name="Pfad 493"/><path d="M26.356 144.659c7.763 0 15.507.34 23.252.34" data-name="Pfad 494"/><path d="M22.207 49.04c9.963 0 19.5-1.95 29.423-2.379 18.906-.823 37.847-1.842 56.753-2.665 9.623-.429 19.8-2.79 29.423-1.18" data-name="Pfad 495"/><path d="M22.815 53.208c0 1.4-1.109 3.327 0 4.167 2.5 1.878 25.863-.59 29.709-.59 22.089 0 44.179-2.075 66.268-2.665 3.041-.089 18.87.3 20.8-1.18 2.057-1.592.912-7.977 1.18-10.41" data-name="Pfad 496"/><path d="M25.73 71.577c16.419 0 32.445-2.45 48.74-4.275" data-name="Pfad 497"/><path d="M23.942 80.824c13.486 0 27.545-2.057 40.923-3.738" data-name="Pfad 498"/><path d="M24.3 93.63h31.319" data-name="Pfad 499"/><path d="M24.3 99.497h29.709" data-name="Pfad 500"/><path d="M27.143 107.51c7.709 0 15.4-2.844 23.306-2.844" data-name="Pfad 501"/><path d="M29.987 112.84c7.78 0 16.616-4.74 24.2-2.844" data-name="Pfad 502"/><path d="M27.143 119.958c12.592 0 25.506-2.737 37.9-4.811" data-name="Pfad 503"/><path d="M28.038 127.26c6.993-.644 13.7-2.486 20.819-2.486" data-name="Pfad 504"/><path d="M81.41 65.871c0 14.881.358 29.78.358 44.644 0 7.655-1.592 17.85.894 25.255" data-name="Pfad 505"/><path d="M76.062 64.995c10.571 0 20.945 2.307 31.479 2.307 1.252 0 11.179-.179 11.554.179 2.146 1.95.537 11.286.537 13.522 0 13.343 1.431 26.579 1.431 39.85 0 1.341.358 14.023-.537 14.6-2.987 1.9-11.912.644-15.293.715-9.319.179-18.619-.537-27.938-.537" data-name="Pfad 506"/><path d="M131.044 69.252c4.99 0 9.945-.537 14.953-.537" data-name="Pfad 507"/><path d="M133.172 75.834c2.844-.2 14.81-3.076 15.114-1.252" data-name="Pfad 508"/><path d="M129.792 81.361c5.384 0 10.606-1.771 16.008-1.771" data-name="Pfad 509"/><path d="M130.328 95.759c2.558 0 19.639-3.13 20.1-.358" data-name="Pfad 510"/><path d="M132.814 104.845c6.278 0 12.431-1.252 18.673-1.252" data-name="Pfad 511"/><path d="M132.457 110.175c5.938 0 11.715-1.431 17.618-1.431" data-name="Pfad 512"/><path d="M130.507 116.22c6.761 0 13.432-1.252 20.1-1.252" data-name="Pfad 513"/><path d="M127.842 121.032a198.613 198.613 0 0 0 21.875-1.592" data-name="Pfad 514"/><path d="M136.731 130.637c5.491-.859 10.785-2.4 16.366-3.023" data-name="Pfad 515"/><path d="M134.066 137.755a77.348 77.348 0 0 0 21-4.1" data-name="Pfad 516"/><path d="M21.277 16.416h22.948" data-name="Pfad 517"/><path d="M58.82 14.824c4.632 0 9.1-.715 13.7-.715" data-name="Pfad 518"/><path d="M105.771 12.159a116.024 116.024 0 0 0 16.545-.894" data-name="Pfad 519"/><path d="M131.401 11.802h13.522" data-name="Pfad 520"/><path d="M24.21 43.102c0-1.753-.751-13.915-.161-14.917 1.127-1.95 11.018 5.527 11.966 6.063a48.535 48.535 0 0 0 6.886 3.273c2 .751 8.925 4.132 11.143 3.112 2.11-.965 1.305-14.072 1.305-16.562" data-name="Pfad 521"/><path d="M23.065 43.263h6.224" data-name="Pfad 522"/><path d="M52.077 24.569c2 0 3.756-.483 5.741-.483" data-name="Pfad 523"/><path d="M68.478 24.089a97.433 97.433 0 0 0 1.65 15.418" data-name="Pfad 524"/><path d="M65.366 22.283h18.369" data-name="Pfad 525"/><path d="M67.494 40.652c9.176 0 18.619-1.628 27.545-3.112" data-name="Pfad 526"/><path d="M82.572 22.122h8.854" data-name="Pfad 527"/><path d="M93.069 18.509a35.255 35.255 0 0 0 .161 4.758" data-name="Pfad 528"/><path d="M96.184 33.927v4.257" data-name="Pfad 529"/><path d="M70.446 29.83c3.667 0 7.333-.161 10.982-.161" data-name="Pfad 530"/><path d="M104.053 23.266a34.715 34.715 0 0 0 .823 5.58c.215 1.359.376 2.737.662 4.1 2.683 12.914 5.938-8.871 9.837-6.385 1.216.769 4.364 11.161 5.58 10.982.519-.072.233-3.506.483-6.063.394-3.792.519-7.548 1.145-11.3" data-name="Pfad 531"/><path d="M142.741 21.782c-1.842 0-3.738-.089-5.58 0-1.359.072-6.993 3.7-4.919 5.58 1.163 1.055 16.867 3.023 12.628 8.192-.912 1.109-14.058.662-15.9.662" data-name="Pfad 532"/><path d="M100.78 22.605c2.254-.143 4.346-.537 6.564-.823" data-name="Pfad 533"/><path d="M119.632 19.654c2.468 0 4.776-.662 7.208-.662" data-name="Pfad 534"/><path d="M128.325 34.41v3.935" data-name="Pfad 535"/><path d="M144.887 21.782v1.306" data-name="Pfad 536"/><path d="M145.209 19.654a10.951 10.951 0 0 0 .823 3.613" data-name="Pfad 537"/><path d="M106.11 37.343h2.522" data-name="Pfad 538"/><path d="M119.096 38.166a20.492 20.492 0 0 0 3.631-.376" data-name="Pfad 539"/><path d="M105.735 82.255c-1.2.215-2.54 0-3.613.554-4.65 2.45-2.379 11.215 2.5 11.465 6.761.34 10.91-13.826 1.091-12.019Z" data-name="Pfad 540"/><path d="M82.948 125.808c2.5-7.4 7.333-13.826 11.411-20.48 0 0 2.683-5.509 3.846-4.275 2.647 2.826 4.239 9.3 8.55 10.5 5.312 1.467 4.489-13.79 12.341-4.919" data-name="Pfad 541"/></g></svg>