<svg xmlns="http://www.w3.org/2000/svg" width="240" height="240"><g fill="none" stroke="#ffffa6" stroke-linecap="round" stroke-width="4" data-name="Gruppe 280"><path stroke-linejoin="bevel" stroke-width="3.38976" d="M14.343 107.026a29.082 29.082 0 0 0 3.017 2.426c2.936 1.756 18.53 3.735 21.881 3.05 36.47-7.34 54.345-11.694 89.282-24.514 6.975-2.553 19.184-13.773 24.02-19.406 11.81-13.774 13.04-30.932 25.648-44.067" data-name="Pfad 368"/><path stroke-linejoin="bevel" stroke-width="3.38976" d="M44.268 113.074c.304 2.681-.063 2.966 1.82 5.139 7.852 9.068 15.545 18.274 23.876 26.909.495.508 2.299 1.963 2.857 1.532 2.697-2.027 1.66-8.826 1.979-11.81.339-3.129.558-6.258.91-9.37.508-4.628 1.053-21.609 3.926-24.483" data-name="Pfad 369"/><path stroke-linejoin="bevel" stroke-width="3.38976" d="M91.111 103.69c1.277 2.984 1.485 3.862 4.23 6.958 7.373 8.315 14.38 17.077 22.664 24.483 1.053.942 0-2.825 0-4.23v-37.49" data-name="Pfad 370"/><path stroke-linejoin="bevel" stroke-width="3.38976" d="M131.922 91.911c2.362.4 4.214 2.25 6.356 3.32 9.273 4.628 18.163 10.39 28.106 13.294 1.58.463 1.005-3.192.91-4.836-.207-3.368-1.117-6.671-1.82-9.976-1.882-9.05-4.995-17.827-6.655-26.908" data-name="Pfad 371"/><path stroke-linejoin="bevel" stroke-width="3.38976" d="M106.896 154.459c23.686 5.091 45.264 11.3 68.374 15.482a40.352 40.352 0 0 0 33.581-9.193c6.864-5.954 13.678-12.769 16.806-16.903" data-name="Pfad 372"/><path stroke-linejoin="bevel" stroke-width="3.38976" d="M136.486 163.189c.34 2.394.75 4.788.99 7.182 1.309 12.736.815 25.776 3.767 38.24.447 1.9 2.921-2.6 4.342-3.958 2.49-2.394 3.67-4.9 5.602-8.092 3.463-5.762 11.89-23.206 18.801-25.185" data-name="Pfad 373"/><path stroke-linejoin="bevel" stroke-width="3.38976" d="M180.856 172.925c7.98 12.593 20.684 29.415 30.084 41.002.878 1.085.763-2.712.958-4.102a80.12 80.12 0 0 0 .606-11.076c0-4.067.032-8.155.143-12.225.096-3.463.594-25.345 1.932-27.611" data-name="Pfad 374"/><path stroke-linejoin="round" stroke-width="3.38976" d="M180.904 121.533a165.45 165.45 0 0 0 1.516 19.04" data-name="Pfad 375"/><path stroke-linejoin="round" stroke-width="3.38976" d="M176.978 133.024q7.852-2.561 15.72-5.138" data-name="Pfad 376"/><path stroke-linejoin="round" stroke-width="3.38976" d="M205.451 76.254c0 4.947.542 9.88.91 14.811" data-name="Pfad 377"/><path stroke-linejoin="round" stroke-width="3.38976" d="M201.221 87.729c6.13-1.309 12.242-2.745 18.435-3.623" data-name="Pfad 378"/><path stroke-linejoin="round" stroke-width="3.38976" d="M82.35 171.713c0 5.394 1.277 10.74 2.426 16.024" data-name="Pfad 379"/><path stroke-linejoin="round" stroke-width="3.38976" d="M74.64 181.081c6.72-1.102 13.455-2.347 20.254-2.712" data-name="Pfad 380"/><path stroke-linejoin="bevel" stroke-width="3.38976" d="M113.834 60.357c.288-1.707-3.638.99-4.357 2.315-.763 1.42-.654 5.617.431 4.995 1.852-1.085 3.415-4.152 3.926-7.293z" data-name="Pfad 381"/><path stroke-linejoin="bevel" stroke-width="3.38976" d="M110.76 207.99c-.368-1.44-1.884 2.457-2.12 3.926-.191 1.229.32 4.724.91 3.623a10.893 10.893 0 0 0 1.213-7.55z" data-name="Pfad 382"/><path stroke-linejoin="bevel" stroke-width="3.38976" d="M198.777 52.664c-2.027-.048-4.692 4.153-3.016 5.283 3.08 2.107 9.337 3.543 11.186.304 1.628-2.857-4.868-5.509-8.156-5.587z" data-name="Pfad 383"/><path stroke-linejoin="round" stroke-width="3.38976" d="M41.842 144.803c0 6.369 1.74 10.374 3.623 17.237" data-name="Pfad 384"/><path stroke-linejoin="round" stroke-width="3.38976" d="M37.612 153.582h13.295" data-name="Pfad 385"/><path stroke-linejoin="bevel" stroke-width="3.38976" d="M170.545 213.368c-1.931-.27-3.702 3.336-2.857 5.092.83 1.724 4.756 2.49 5.699.814 1.069-1.915-.687-5.602-2.857-5.905z" data-name="Pfad 386"/><path stroke-linejoin="bevel" stroke-width="3.38976" d="M131.874 19.802c-1.931-.27-3.703 3.336-2.857 5.095.83 1.724 4.756 2.49 5.698.815 1.069-1.916-.686-5.606-2.859-5.91z" data-name="Pfad 387"/></g></svg>