<svg xmlns="http://www.w3.org/2000/svg" width="254.97" height="240.534" viewBox="0 0 254.97 240.534">
  <g id="party" transform="translate(2.433 1.639)">
    <g id="Ebene_2" transform="translate(0.38 0.371)">
      <g id="Gruppe_280" data-name="Gruppe 280">
        <path id="Pfad_368" data-name="Pfad 368" d="M.38,100.7a34.317,34.317,0,0,0,3.56,2.863c3.465,2.072,21.866,4.407,25.821,3.6,43.035-8.663,64.128-13.8,105.355-28.928,8.23-3.013,22.638-16.253,28.344-22.9,13.937-16.253,15.387-36.5,30.265-52" transform="translate(-0.38 2.243)" fill="none" stroke="#ffffa6" stroke-linecap="round" stroke-linejoin="bevel" stroke-width="4"/>
        <path id="Pfad_369" data-name="Pfad 369" d="M19.13,65.507c.358,3.164-.075,3.5,2.147,6.064,9.266,10.7,18.344,21.564,28.175,31.753.584.6,2.712,2.317,3.371,1.808,3.183-2.392,1.959-10.415,2.335-13.937.4-3.691.659-7.383,1.074-11.055.6-5.462,1.243-25.5,4.633-28.891" transform="translate(16.183 44.573)" fill="none" stroke="#ffffa6" stroke-linecap="round" stroke-linejoin="bevel" stroke-width="4"/>
        <path id="Pfad_370" data-name="Pfad 370" d="M48.48,58.629c1.507,3.522,1.752,4.558,4.991,8.211,8.7,9.812,16.969,20.152,26.744,28.891,1.243,1.111,0-3.334,0-4.991V46.5" transform="translate(42.109 40.377)" fill="none" stroke="#ffffa6" stroke-linecap="round" stroke-linejoin="bevel" stroke-width="4"/>
        <path id="Pfad_371" data-name="Pfad 371" d="M74.05,59.455c2.787.471,4.972,2.656,7.5,3.917,10.942,5.462,21.433,12.261,33.166,15.688,1.865.546,1.186-3.767,1.074-5.707-.245-3.974-1.318-7.872-2.147-11.771-2.222-10.679-5.895-21.037-7.854-31.753" transform="translate(64.697 25.652)" fill="none" stroke="#ffffa6" stroke-linecap="round" stroke-linejoin="bevel" stroke-width="4"/>
        <path id="Pfad_372" data-name="Pfad 372" d="M58.37,90.624c27.949,6.008,53.412,13.334,80.683,18.269a47.617,47.617,0,0,0,39.626-10.848c8.1-7.025,16.14-15.067,19.832-19.945" transform="translate(50.846 68.291)" fill="none" stroke="#ffffa6" stroke-linecap="round" stroke-linejoin="bevel" stroke-width="4"/>
        <path id="Pfad_373" data-name="Pfad 373" d="M76.91,90.22c.4,2.825.885,5.65,1.168,8.475,1.544,15.029.961,30.416,4.445,45.125.527,2.241,3.447-3.07,5.123-4.671,2.938-2.825,4.332-5.782,6.611-9.549,4.087-6.8,14.031-27.384,22.186-29.719" transform="translate(67.223 78.997)" fill="none" stroke="#ffffa6" stroke-linecap="round" stroke-linejoin="bevel" stroke-width="4"/>
        <path id="Pfad_374" data-name="Pfad 374" d="M104.71,104.076c9.417,14.86,24.408,34.71,35.5,48.383,1.036,1.281.9-3.2,1.13-4.84a94.544,94.544,0,0,0,.716-13.07c0-4.8.038-9.624.169-14.426.113-4.087.7-29.908,2.279-32.582" transform="translate(91.78 76.63)" fill="none" stroke="#ffffa6" stroke-linecap="round" stroke-linejoin="bevel" stroke-width="4"/>
        <path id="Pfad_375" data-name="Pfad 375" d="M104.74,64.12a195.236,195.236,0,0,0,1.789,22.468" transform="translate(91.807 55.942)" fill="none" stroke="#ffffa6" stroke-linecap="round" stroke-linejoin="round" stroke-width="4"/>
        <path id="Pfad_376" data-name="Pfad 376" d="M102.28,74.164q9.266-3.023,18.551-6.064" transform="translate(89.634 59.458)" fill="none" stroke="#ffffa6" stroke-linecap="round" stroke-linejoin="round" stroke-width="4"/>
        <path id="Pfad_377" data-name="Pfad 377" d="M120.12,35.75c0,5.838.64,11.658,1.074,17.478" transform="translate(105.393 30.881)" fill="none" stroke="#ffffa6" stroke-linecap="round" stroke-linejoin="round" stroke-width="4"/>
        <path id="Pfad_378" data-name="Pfad 378" d="M117.47,44.945c7.232-1.544,14.445-3.239,21.753-4.275" transform="translate(103.052 35.227)" fill="none" stroke="#ffffa6" stroke-linecap="round" stroke-linejoin="round" stroke-width="4"/>
        <path id="Pfad_379" data-name="Pfad 379" d="M42.99,95.56c0,6.366,1.507,12.675,2.863,18.909" transform="translate(37.26 83.715)" fill="none" stroke="#ffffa6" stroke-linecap="round" stroke-linejoin="round" stroke-width="4"/>
        <path id="Pfad_380" data-name="Pfad 380" d="M38.16,102.932c7.929-1.3,15.877-2.769,23.9-3.2" transform="translate(32.993 87.398)" fill="none" stroke="#ffffa6" stroke-linecap="round" stroke-linejoin="round" stroke-width="4"/>
        <path id="Pfad_381" data-name="Pfad 381" d="M65.4,26.094c.339-2.015-4.294,1.168-5.142,2.731-.9,1.676-.772,6.629.509,5.895,2.185-1.281,4.03-4.9,4.633-8.607Z" transform="translate(52.003 21.779)" fill="none" stroke="#ffffa6" stroke-linecap="round" stroke-linejoin="bevel" stroke-width="4"/>
        <path id="Pfad_382" data-name="Pfad 382" d="M61.988,118.463c-.433-1.7-2.222,2.9-2.5,4.633-.226,1.45.377,5.575,1.074,4.275a12.854,12.854,0,0,0,1.431-8.908Z" transform="translate(51.786 103.62)" fill="none" stroke="#ffffa6" stroke-linecap="round" stroke-linejoin="bevel" stroke-width="4"/>
        <path id="Pfad_383" data-name="Pfad 383" d="M117.9,20.97c-2.392-.057-5.537,4.9-3.56,6.234,3.635,2.486,11.018,4.181,13.2.358,1.921-3.371-5.744-6.5-9.624-6.592Z" transform="translate(99.738 17.825)" fill="none" stroke="#ffffa6" stroke-linecap="round" stroke-linejoin="bevel" stroke-width="4"/>
        <path id="Pfad_384" data-name="Pfad 384" d="M17.61,78.7c0,7.515,2.053,12.242,4.275,20.34" transform="translate(14.84 68.821)" fill="none" stroke="#ffffa6" stroke-linecap="round" stroke-linejoin="round" stroke-width="4"/>
        <path id="Pfad_385" data-name="Pfad 385" d="M14.96,84.2H30.648" transform="translate(12.499 73.68)" fill="none" stroke="#ffffa6" stroke-linecap="round" stroke-linejoin="round" stroke-width="4"/>
        <path id="Pfad_386" data-name="Pfad 386" d="M99.951,121.668c-2.279-.32-4.369,3.936-3.371,6.008.979,2.034,5.612,2.938,6.724.961,1.262-2.26-.81-6.611-3.371-6.968Z" transform="translate(84.372 106.762)" fill="none" stroke="#ffffa6" stroke-linecap="round" stroke-linejoin="bevel" stroke-width="4"/>
        <path id="Pfad_387" data-name="Pfad 387" d="M75.721.388C73.442.068,71.352,4.324,72.35,6.4c.979,2.034,5.612,2.938,6.724.961C80.335,5.1,78.264.746,75.7.388Z" transform="translate(62.969 -0.371)" fill="none" stroke="#ffffa6" stroke-linecap="round" stroke-linejoin="bevel" stroke-width="4"/>
      </g>
    </g>
  </g>
</svg>
