<svg xmlns="http://www.w3.org/2000/svg" width="312.767" height="225.239"><g fill="none" stroke="#ffffa6" stroke-linecap="round" stroke-linejoin="round" stroke-miterlimit="7.07" stroke-width="6" data-name="Gruppe 263"><path d="M279.983 194.991a362.113 362.113 0 0 0-7.688-82.538c-3.844-18.091-9.5-36.407-22.387-49.749-7.689-7.688-17.412-13.116-27.362-17.412-41.836-17.865-91.359-18.091-133.645-.453-17.186 7.01-34.146 18.317-40.478 35.729-2.94 8.141-3.392 16.734-3.618 25.327-1.131 30.3-2.261 60.377-3.618 90.453" data-name="Pfad 271"/><path d="M245.163 196.8c1.357-18.769 1.357-37.764-4.07-55.855-4.523-15.151-12.663-29.4-20.578-42.965-2.94-4.749-5.653-9.95-9.95-14.02-3.844-3.618-8.141-5.879-12.89-8.141-17.186-8.141-37.086-11.533-55.855-7.688s-36.181 14.925-45.9 31.658c-8.375 14.247-10.637 31.433-11.767 48.167a439.942 439.942 0 0 0-.9 45.679" data-name="Pfad 272"/><path d="M205.586 198.609c1.809-12.663-.678-25.1-4.3-37.312-3.392-12.211-8.141-24.422-17.186-33.468s-22.839-14.02-34.6-9.5c-8.367 3.166-14.7 10.628-18.543 18.769s-5.422 17.188-7.005 26.009c-1.357 7.688-2.94 15.377-4.3 23.292" data-name="Pfad 273"/><path d="M3.197 201.775c2.035-29.849 4.07-59.7 5.879-89.322 1.809-27.588 4.975-58.342 26.005-76.433 12.89-11.08 30.076-15.151 46.357-19 30.755-7.005 61.961-14.241 93.62-14.018s64.217 8.144 88.191 28.269c26.231 21.709 40.025 55.628 44.548 89.1s.452 67.84-3.618 101.533" data-name="Pfad 274"/></g></svg>