<svg xmlns="http://www.w3.org/2000/svg" width="312.767" height="225.239" viewBox="0 0 312.767 225.239">
  <g id="Ebene_1" transform="translate(3.197 3)">
    <g id="Gruppe_263" data-name="Gruppe 263" transform="translate(0 0)">
      <path id="Pfad_271" data-name="Pfad 271" d="M252.351,176.352a362.113,362.113,0,0,0-7.688-82.538c-3.844-18.091-9.5-36.407-22.387-49.749-7.689-7.688-17.412-13.116-27.362-17.412C153.078,8.788,103.555,8.562,61.269,26.2c-17.186,7.01-34.146,18.317-40.478,35.729-2.94,8.141-3.392,16.734-3.618,25.327-1.131,30.3-2.261,60.377-3.618,90.453" transform="translate(24.435 15.639)" fill="none" stroke="#ffffa6" stroke-linecap="round" stroke-linejoin="round" stroke-miterlimit="7.07" stroke-width="6"/>
      <path id="Pfad_272" data-name="Pfad 272" d="M190.8,158.751c1.357-18.769,1.357-37.764-4.07-55.855-4.523-15.151-12.663-29.4-20.578-42.965-2.94-4.749-5.653-9.95-9.95-14.02-3.844-3.618-8.141-5.879-12.89-8.141-17.186-8.141-37.086-11.533-55.855-7.688s-36.181,14.925-45.9,31.658C33.182,75.987,30.92,93.173,29.79,109.907a439.942,439.942,0,0,0-.9,45.679" transform="translate(51.166 35.049)" fill="none" stroke="#ffffa6" stroke-linecap="round" stroke-linejoin="round" stroke-miterlimit="7.07" stroke-width="6"/>
      <path id="Pfad_273" data-name="Pfad 273" d="M132.163,132.623c1.809-12.663-.678-25.1-4.3-37.312-3.392-12.211-8.141-24.422-17.186-33.468s-22.839-14.02-34.6-9.5c-8.367,3.166-14.7,10.628-18.543,18.769S52.112,88.3,50.529,97.121c-1.357,7.688-2.94,15.377-4.3,23.292" transform="translate(70.226 62.986)" fill="none" stroke="#ffffa6" stroke-linecap="round" stroke-linejoin="round" stroke-miterlimit="7.07" stroke-width="6"/>
      <path id="Pfad_274" data-name="Pfad 274" d="M.422,199.173c2.035-29.849,4.07-59.7,5.879-89.322,1.809-27.588,4.975-58.342,26.005-76.433,12.89-11.08,30.076-15.151,46.357-19C109.418,7.413,140.624.177,172.283.4S236.5,8.544,260.474,28.669c26.231,21.709,40.025,55.628,44.548,89.1s.452,67.84-3.618,101.533" transform="translate(-0.422 -0.398)" fill="none" stroke="#ffffa6" stroke-linecap="round" stroke-linejoin="round" stroke-miterlimit="7.07" stroke-width="6"/>
    </g>
  </g>
</svg>
