<svg xmlns="http://www.w3.org/2000/svg" width="229.245" height="165.282"><g fill="none" stroke="#ff0048" stroke-linecap="round" stroke-linejoin="round" stroke-miterlimit="7.07" stroke-width="5" data-name="Gruppe 252"><path d="M24.27 142.831a264.678 264.678 0 0 1 5.619-60.328c2.81-13.223 6.942-26.611 16.363-36.363 5.62-5.62 12.727-9.587 20-12.727a127.434 127.434 0 0 1 97.684-.331c12.562 5.124 24.958 13.388 29.586 26.115 2.149 5.95 2.479 12.231 2.645 18.512.826 22.148 1.653 44.131 2.645 66.114" data-name="Pfad 241"/><path d="M49.724 144.149c-.992-13.719-.992-27.6 2.975-40.826 3.307-11.074 9.256-21.482 15.041-31.4 2.148-3.474 4.132-7.274 7.272-10.247a34.959 34.959 0 0 1 9.421-5.95c12.562-5.95 27.107-8.43 40.826-5.62s26.447 10.909 33.553 23.143c6.116 10.41 7.769 22.971 8.594 35.2a321.568 321.568 0 0 1 .661 33.388" data-name="Pfad 242"/><path d="M78.649 145.475c-1.322-9.256.5-18.347 3.14-27.272 2.479-8.925 5.95-17.851 12.562-24.462s16.694-10.248 25.288-6.942c6.116 2.314 10.744 7.768 13.553 13.719s3.967 12.562 5.124 19.008c.992 5.62 2.149 11.239 3.14 17.024" data-name="Pfad 243"/><path d="M226.58 147.79c-1.488-21.818-2.975-43.635-4.3-65.288-1.322-20.165-3.636-42.644-19.008-55.867-9.421-8.1-21.983-11.074-33.884-13.884-22.476-5.124-45.285-10.413-68.421-10.249S54.022 8.454 36.501 23.164C17.328 39.032 7.246 63.824 3.94 88.287s-.331 49.585 2.645 74.215" data-name="Pfad 244"/></g></svg>