<svg xmlns="http://www.w3.org/2000/svg" width="335.234" height="240.501"><defs><style>.cls-1{fill:#ffffa6}</style></defs><g id="Ebene_1" transform="translate(1.578 1.603)"><g id="Gruppe_178" data-name="Gruppe 178" transform="translate(.422 .398)"><path id="Pfad_154" d="M271.658 192.942a2 2 0 0 1-2-1.91c-1.407-31.194-2.555-61.441-3.91-97.741v-.022c-.243-9.23-.716-18.22-3.791-26.736-3.039-8.357-8.71-15.977-16.854-22.647A100.451 100.451 0 0 0 219.354 29.1l-.015-.006a180.639 180.639 0 0 0-35.09-10.56 188.635 188.635 0 0 0-72.93.264 178.97 178.97 0 0 0-34.813 10.783 119.8 119.8 0 0 0-15.434 7.9 72.77 72.77 0 0 0-13.486 10.474c-6.245 6.467-11.261 14.419-15.336 24.311-3.206 7.783-5.85 16.822-8.321 28.447a388.968 388.968 0 0 0-8.265 88.714 2 2 0 1 1-4 .1 392.951 392.951 0 0 1 8.348-89.631v-.008c2.522-11.871 5.235-21.131 8.536-29.144C32.825 60.369 38.114 52 44.72 45.164l.024-.025A76.687 76.687 0 0 1 58.975 34.07a123.745 123.745 0 0 1 15.953-8.165h.007a182.977 182.977 0 0 1 35.594-11.02 192.635 192.635 0 0 1 74.482-.27A184.658 184.658 0 0 1 220.872 25.4a104.4 104.4 0 0 1 26.768 15.392c8.708 7.131 14.792 15.333 18.081 24.379a62.667 62.667 0 0 1 3.16 13.943c.53 4.417.731 8.808.868 14.041 1.354 36.285 2.5 66.521 3.908 97.7a2 2 0 0 1-1.908 2.088Z" class="cls-1" data-name="Pfad 154" transform="translate(18.53 17.951)"/><path id="Pfad_155" d="M29.479 171.223a2 2 0 0 1-1.993-1.856 240.8 240.8 0 0 1-.552-30.7 128.972 128.972 0 0 1 5.029-30.367 149.071 149.071 0 0 1 9.87-24.174C45.7 76.422 49.978 69 54.384 61.451l.027-.045c.566-.914 1.138-1.867 1.692-2.79 2.645-4.407 5.38-8.964 9.383-12.757 4.5-4.24 9.6-6.842 14.437-9.145A103.465 103.465 0 0 1 123.954 26.5a87.611 87.611 0 0 1 17.579 1.747 82.972 82.972 0 0 1 15.194 4.667 79.932 79.932 0 0 1 13.986 7.514 73.971 73.971 0 0 1 12.132 10.214 68.112 68.112 0 0 1 9.608 12.758 85.065 85.065 0 0 1 9.514 25.6 194.6 194.6 0 0 1 3.46 27.306 478.106 478.106 0 0 1 .981 49.552 2 2 0 1 1-4-.119 474.074 474.074 0 0 0-.973-49.143v-.014a190.9 190.9 0 0 0-3.38-26.742A81.156 81.156 0 0 0 189 65.426v-.008a64.106 64.106 0 0 0-9.048-12.012 69.967 69.967 0 0 0-11.475-9.659 75.924 75.924 0 0 0-13.287-7.137 78.962 78.962 0 0 0-14.46-4.441 87.024 87.024 0 0 0-30.123-.683 100.264 100.264 0 0 0-14.824 3.35 105.119 105.119 0 0 0-14.141 5.488c-4.733 2.254-9.324 4.6-13.411 8.444-3.6 3.416-6.195 7.733-8.7 11.907a232.39 232.39 0 0 1-1.707 2.815c-4.368 7.488-8.6 14.839-12.417 22.435A145.162 145.162 0 0 0 35.8 109.45a125.046 125.046 0 0 0-4.867 29.434 236.958 236.958 0 0 0 .547 30.195 2 2 0 0 1-1.851 2.139 1.96 1.96 0 0 1-.15.005Z" class="cls-1" data-name="Pfad 155" transform="translate(40.338 40.158)"/><path id="Pfad_156" d="M46.884 141.214a2 2 0 0 1-1.977-1.717 74.73 74.73 0 0 1 .12-20.892 134.978 134.978 0 0 1 4.579-20.254 117.4 117.4 0 0 1 7.113-19.676A61.938 61.938 0 0 1 68.682 61.33a45.438 45.438 0 0 1 8.554-6.709 42.642 42.642 0 0 1 9.877-4.421 32.437 32.437 0 0 1 21.076.414 34 34 0 0 1 12.587 8.616 49 49 0 0 1 8.542 12.677c4.2 8.89 5.953 18.669 7.649 28.126l.084.47v.006c.667 3.78 1.4 7.642 2.11 11.377.853 4.49 1.734 9.133 2.534 13.8a2 2 0 1 1-3.942.676c-.793-4.629-1.672-9.254-2.521-13.726-.711-3.745-1.447-7.618-2.118-11.422l-.084-.471c-1.651-9.2-3.357-18.714-7.329-27.125a44.952 44.952 0 0 0-7.827-11.632 30.041 30.041 0 0 0-11.106-7.629h-.01a28.481 28.481 0 0 0-18.5-.317 38.642 38.642 0 0 0-8.949 4.008 41.433 41.433 0 0 0-7.8 6.118 58.021 58.021 0 0 0-11.185 16.24 113.6 113.6 0 0 0-6.869 19.031l-.009.033a131.176 131.176 0 0 0-4.456 19.675 70.8 70.8 0 0 0-.124 19.786 2 2 0 0 1-1.982 2.283Z" class="cls-1" data-name="Pfad 156" transform="translate(65.688 72.122)"/><path id="Pfad_157" d="M6.473 238.9a2 2 0 0 1-1.983-1.76C2.434 220.121.1 200.833-.957 182.071c-.562-9.935-.74-18.976-.545-27.639a244.832 244.832 0 0 1 2.086-27.5 196.048 196.048 0 0 1 5.655-27.274 169.543 169.543 0 0 1 9.79-26.207c8.5-17.927 19.734-32.745 33.386-44.044C61.9 18.924 77.119 10.947 94.648 5.695A169.557 169.557 0 0 1 120.029.239 200.788 200.788 0 0 1 145.964-1.6a247.738 247.738 0 0 1 25.357 1.172c7.916.75 16.133 1.851 25.12 3.364 16.648 2.8 33.366 6.615 49.533 10.3l1.595.364h.015c8.811 2.08 17.921 4.231 26.639 7.4a92.311 92.311 0 0 1 12.714 5.643 65.533 65.533 0 0 1 11.575 7.913c10.544 9.071 17.888 21.644 22.461 38.433 4.061 14.922 5.395 31.326 6.326 45.531v.009c1.954 31.995 4.189 64.777 6.351 96.48v.01a2 2 0 1 1-3.991.272v-.01c-2.162-31.71-4.4-64.5-6.352-96.508-.919-14.009-2.231-30.172-6.194-44.733-4.353-15.994-11.291-27.917-21.21-36.45a61.583 61.583 0 0 0-10.878-7.432 88.368 88.368 0 0 0-12.168-5.4c-8.5-3.084-17.489-5.208-26.186-7.261l-1.587-.362c-16.112-3.674-32.773-7.472-49.308-10.257-8.891-1.5-17.014-2.585-24.833-3.326A243.771 243.771 0 0 0 145.992 2.4a196.773 196.773 0 0 0-25.416 1.8A165.546 165.546 0 0 0 95.8 9.526c-17.006 5.1-31.747 12.816-43.814 22.948l-.011.009c-13.2 10.925-24.077 25.285-32.328 42.682a165.534 165.534 0 0 0-9.557 25.587 192.03 192.03 0 0 0-5.538 26.717A240.88 240.88 0 0 0 2.5 154.522c-.193 8.557-.017 17.494.539 27.323 1.052 18.635 3.374 37.855 5.422 54.813a2 2 0 0 1-1.746 2.225 2.02 2.02 0 0 1-.242.017Z" class="cls-1" data-name="Pfad 157" transform="translate(-.422 -.398)"/></g></g></svg>