<svg xmlns="http://www.w3.org/2000/svg" width="319.435" height="122.148" viewBox="0 0 319.435 122.148">
  <g id="sandwich" transform="translate(1.618 1.609)">
    <g id="Ebene_2" transform="translate(0.388 0.371)">
      <g id="Gruppe_281" data-name="Gruppe 281">
        <path id="Pfad_388" data-name="Pfad 388" d="M21.02,33.123c2.158,0,4.072,1.464,6.173,1.9,13.623,2.871,27.32,5.291,41.037,7.6C107,49.11,152.856,45.864,190.178,34.08c10.133-3.209,27.489-2.758,34.394-11.39" transform="translate(17.695 19.19)" fill="none" stroke="#ffffa6" stroke-linecap="round" stroke-linejoin="bevel" stroke-width="4"/>
        <path id="Pfad_389" data-name="Pfad 389" d="M23.767,51.5c-1.182-.957-2.946-1.464-3.565-2.852-1.539-3.415-4.278-7.562-2.608-10.921,4-8.012,11.6-13.7,18.032-19.927,3.04-2.946,8.388-1.145,12.572-1.67,17.3-2.12,34.47-4.8,51.732-7.356,9.251-1.37,18.5-2.664,27.752-4.034C152.319,1.12,176.469.482,201.237.482c7.993,0,17.488-1.2,24.206,4.278,8.65,7.055,10.789,18.933,13.041,29.178,1.182,5.348,1.595,8.406.469,13.754" transform="translate(14.235 -0.371)" fill="none" stroke="#ffffa6" stroke-linecap="round" stroke-linejoin="bevel" stroke-width="4"/>
        <path id="Pfad_390" data-name="Pfad 390" d="M60.521,5.37C49.675,12.594,49.6,20.494,49.6,31.94" transform="translate(42.742 4.011)" fill="none" stroke="#ffffa6" stroke-linecap="round" stroke-linejoin="round" stroke-width="4"/>
        <path id="Pfad_391" data-name="Pfad 391" d="M80.406,5.11c-6.755,4-9.72,13.116-10.921,20.884-.432,2.8,1.107,5.535,1.67,8.312" transform="translate(60.104 3.783)" fill="none" stroke="#ffffa6" stroke-linecap="round" stroke-linejoin="bevel" stroke-width="4"/>
        <path id="Pfad_392" data-name="Pfad 392" d="M105.46,1.7c-7.693,9.607-9.814,22.7-12.816,34.638a14.045,14.045,0,0,0,0,3.321" transform="translate(80.365 0.795)" fill="none" stroke="#ffffa6" stroke-linecap="round" stroke-linejoin="bevel" stroke-width="4"/>
        <path id="Pfad_393" data-name="Pfad 393" d="M37.042,33.69C34.115,47.181,23.683,63,27.792,77.354c1.107,3.884,15.668-5.179,17.319-5.929,3.359-1.539,6.774-2.89,10.208-4.278,23.23-9.344,46.1-19.346,69.052-29.178" transform="translate(22.801 28.831)" fill="none" stroke="#ffffa6" stroke-linecap="round" stroke-linejoin="bevel" stroke-width="4"/>
        <path id="Pfad_394" data-name="Pfad 394" d="M60.98,58.556c0,7.149,3.79,13.848,7.6,19.683.919,1.407,13.585-6.905,14.242-7.355C95.356,62.253,108,53.058,119.13,42.644c2.4-2.252,13.022-14.392,15.424-10.208" transform="translate(52.716 26.969)" fill="none" stroke="#ffffa6" stroke-linecap="round" stroke-linejoin="bevel" stroke-width="4"/>
        <path id="Pfad_395" data-name="Pfad 395" d="M88.8,53.071c.9,12.7,16.756,17.3,26.57,20.171,1.52.45,8.857,0,10.921-.713,11.409-4.053,29.872-17.957,32.743-30.6,1.107-4.879-.9-8.707-1.67-13.285" transform="translate(77.098 24.405)" fill="none" stroke="#ffffa6" stroke-linecap="round" stroke-linejoin="bevel" stroke-width="4"/>
        <path id="Pfad_396" data-name="Pfad 396" d="M50.98,71.927c-8.087,0-12.1-2.027-21.823-4.278-8.369-1.933-16.813-3.584-25.144-5.686-8.069-2.045-.882-21.072,4.278-23.718,5.929-3.077,7.374,12.4,10.208,5.46,1.595-3.94,2.8-13.717-2.139-15.668-2.214-.863-5.066-.357-6.886-1.9-4.672-4,1.876-14.73,7.6-13.529,2.627.544.544,3.584,2.852,4.5,1.407.563,3.04-.826,4.5-.469,4.016.957,5.085,4.8,9.72,5.216" transform="translate(-0.388 10.278)" fill="none" stroke="#ffffa6" stroke-linecap="round" stroke-linejoin="bevel" stroke-width="4"/>
        <path id="Pfad_397" data-name="Pfad 397" d="M125.09,64c2.439.488,4.447,2.4,6.886,2.852,21.823,3.978,43.626,8.463,65.73,10.433,2.946.263,10.189-6.736,8.538-10.677-4.466-10.658-22.367-4.241-24.919-17.319-1.22-6.23,4.053-11.634,2.608-17.075-.976-3.678-10.789-1.557-9.964-3.79,1.52-4.128,9.57-8.819,7.355-14.467-1.708-4.372-13.6-4.372-16.85-2.852-7.149,3.359-8.8,5.61-13.041,10.208" transform="translate(108.902 8.236)" fill="none" stroke="#ffffa6" stroke-linecap="round" stroke-linejoin="bevel" stroke-width="4"/>
        <path id="Pfad_398" data-name="Pfad 398" d="M16.834,46.78c0,1.351-.263,2.683-.244,4.034.15,7.112.188,14.242.713,21.353.225,2.946,6.755,4.222,8.782,4.747A130.357,130.357,0,0,0,52.9,80.48c21.485.863,43.251,2.983,64.773,1.182,20.9-1.745,41.9-5.929,62.634-9.026,10.47-1.557,20.9-2.983,31.317-4.991,2.852-.544,15.48-1.295,18.5-3.565,5.648-4.222,7.355-15.931,7.355-22.31" transform="translate(13.812 35.912)" fill="none" stroke="#ffffa6" stroke-linecap="round" stroke-linejoin="bevel" stroke-width="4"/>
        <path id="Pfad_399" data-name="Pfad 399" d="M49.47,51.135c5.423,0,10.771-1.126,16.137-1.9" transform="translate(42.629 42.459)" fill="none" stroke="#ffffa6" stroke-linecap="round" stroke-linejoin="round" stroke-width="4"/>
        <path id="Pfad_400" data-name="Pfad 400" d="M83.11,48.652c6.83-.319,3.34.056,10.433-1.182" transform="translate(72.111 40.908)" fill="none" stroke="#ffffa6" stroke-linecap="round" stroke-linejoin="round" stroke-width="4"/>
        <path id="Pfad_401" data-name="Pfad 401" d="M122.18,46.33c3.847,0,7.412-2.2,10.921-3.79" transform="translate(106.352 36.587)" fill="none" stroke="#ffffa6" stroke-linecap="round" stroke-linejoin="round" stroke-width="4"/>
        <path id="Pfad_402" data-name="Pfad 402" d="M143.93,19.53c4.672,0,1.67,9.194,2.608,13.754.375,1.8,4.3-.488,5.46.957,3.734,4.672-3.3,9.213,4.5,9.72" transform="translate(125.414 16.421)" fill="none" stroke="#ffffa6" stroke-linecap="round" stroke-linejoin="bevel" stroke-width="4"/>
        <path id="Pfad_403" data-name="Pfad 403" d="M136.47,33.06c9.119.6,7.205,7.13,18.032,5.929" transform="translate(118.876 28.279)" fill="none" stroke="#ffffa6" stroke-linecap="round" stroke-linejoin="round" stroke-width="4"/>
        <path id="Pfad_404" data-name="Pfad 404" d="M10.65,34.449c4.635,0,11.2-.619,14.955,0,1.989.319,3.453,2.477,5.46,2.608,2.439.15,5.348-1.2,8.069-1.426" transform="translate(8.607 29.254)" fill="none" stroke="#ffffa6" stroke-linecap="round" stroke-linejoin="bevel" stroke-width="4"/>
        <path id="Pfad_405" data-name="Pfad 405" d="M13.81,20.79a37.777,37.777,0,0,1,4.747,6.4" transform="translate(11.376 17.525)" fill="none" stroke="#ffffa6" stroke-linecap="round" stroke-linejoin="round" stroke-width="4"/>
        <path id="Pfad_406" data-name="Pfad 406" d="M93.91,50.514c1.82,5.423,7.168,7.843,12.009,10.433,20.6,11.014,38.447-14.542,40.361-33.137" transform="translate(81.576 23.677)" fill="none" stroke="#ffffa6" stroke-linecap="round" stroke-linejoin="bevel" stroke-width="4"/>
        <path id="Pfad_407" data-name="Pfad 407" d="M100.36,47.857c.544-5.216,3.227-10,5.066-14.917" transform="translate(87.229 28.173)" fill="none" stroke="#ffffa6" stroke-linecap="round" stroke-linejoin="round" stroke-width="4"/>
        <path id="Pfad_408" data-name="Pfad 408" d="M114.125,44.875c-.488-4.222-3.246-8.707-4.785-12.215" transform="translate(95.099 27.928)" fill="none" stroke="#ffffa6" stroke-linecap="round" stroke-linejoin="round" stroke-width="4"/>
        <path id="Pfad_409" data-name="Pfad 409" d="M35.412,45.412c-.319,0-1.032-.3-.938,0,.826,2.571.994,5.629,2.89,7.562.769.788,1.182-1.9,1.67-2.871a1.944,1.944,0,0,0,.131-.732c.188-2.346-.826-4.41-3.753-3.678-.544.131-.9.676-1.332,1.013" transform="translate(29.141 38.987)" fill="none" stroke="#ffffa6" stroke-linecap="round" stroke-linejoin="bevel" stroke-width="4"/>
        <path id="Pfad_410" data-name="Pfad 410" d="M49.385,41.389c-.15-.075-.3-.244-.469-.206-1.426.319-3.678-.094-4.222,1.276-.919,2.289.338,4.935.732,7.374.188,1.163,4.56.994,5.367.676C60.4,46.662,55.933,32.138,46.833,41" transform="translate(38.154 32.765)" fill="none" stroke="#ffffa6" stroke-linecap="round" stroke-linejoin="bevel" stroke-width="4"/>
        <path id="Pfad_411" data-name="Pfad 411" d="M39.317,36.265c-.206,0-.469-.15-.6,0-1.238,1.445-4.71,3.284-3.34,4.616,1.9,1.858,5.4.657,7.975-.075.3-.075.6-3.978.394-4.278-1.989-3.152-4.71-2.12-6.961-.544" transform="translate(30.002 29.521)" fill="none" stroke="#ffffa6" stroke-linecap="round" stroke-linejoin="bevel" stroke-width="4"/>
        <path id="Pfad_412" data-name="Pfad 412" d="M74.087,45.277c-.319.075-.732-.038-.938.206-1.783,2.177-6.492,4.578-4.9,6.905,1.52,2.214,5.273-1.67,7.243-3.49.844-.769.188-2.27.206-3.415.038-2.608-2.946-3.34-4.822-2.608" transform="translate(58.804 36.646)" fill="none" stroke="#ffffa6" stroke-linecap="round" stroke-linejoin="bevel" stroke-width="4"/>
      </g>
    </g>
  </g>
</svg>
