<svg xmlns="http://www.w3.org/2000/svg" width="240" height="240"><g fill="none" stroke="#ffffa6" stroke-linecap="round" stroke-width="2.993" data-name="Gruppe 281"><path stroke-linejoin="bevel" d="M30.972 114.903c1.615 0 3.047 1.096 4.62 1.422 10.193 2.148 20.442 3.959 30.707 5.687 29.01 4.854 63.323 2.425 91.25-6.393 7.583-2.401 20.57-2.064 25.737-8.523" data-name="Pfad 388"/><path stroke-linejoin="bevel" d="M30.439 114.017c-.885-.716-2.205-1.095-2.668-2.134-1.151-2.555-3.2-5.658-1.951-8.172 2.993-5.995 8.68-10.251 13.493-14.91 2.274-2.205 6.276-.858 9.407-1.25 12.945-1.587 25.793-3.592 38.71-5.505 6.922-1.025 13.843-1.993 20.766-3.018 18.435-2.71 36.506-3.187 55.04-3.187 5.98 0 13.086-.897 18.112 3.202 6.473 5.279 8.074 14.167 9.759 21.833.884 4.002 1.193 6.29.35 10.292" data-name="Pfad 389"/><path stroke-linejoin="round" d="M79.272 82.778C71.156 88.184 71.1 94.095 71.1 102.66" data-name="Pfad 390"/><path stroke-linejoin="bevel" d="M107.143 82.413c-5.054 2.993-7.273 9.814-8.172 15.627-.323 2.095.829 4.142 1.25 6.22" data-name="Pfad 391"/><path stroke-linejoin="bevel" d="M141.051 77.625c-5.756 7.19-7.343 16.986-9.59 25.92a10.51 10.51 0 0 0 0 2.484" data-name="Pfad 392"/><path stroke-linejoin="bevel" d="M46.782 122.541c-2.19 10.095-9.996 21.932-6.922 32.673.829 2.907 11.724-3.875 12.96-4.436 2.513-1.152 5.069-2.163 7.638-3.201 17.383-6.992 34.496-14.477 51.67-21.834" data-name="Pfad 393"/><path stroke-linejoin="bevel" d="M87.079 139.755c0 5.35 2.836 10.362 5.687 14.728.688 1.053 10.165-5.167 10.657-5.503 9.379-6.459 18.84-13.34 27.168-21.132 1.796-1.685 9.744-10.769 11.542-7.638" data-name="Pfad 394"/><path stroke-linejoin="bevel" d="M126.14 133.732c.674 9.503 12.539 12.945 19.882 15.093 1.138.337 6.628 0 8.172-.533 8.537-3.033 22.353-13.437 24.501-22.897.828-3.651-.673-6.516-1.25-9.941" data-name="Pfad 395"/><path stroke-linejoin="bevel" d="M39.86 137.27c-6.052 0-9.054-1.516-16.33-3.2-6.262-1.447-12.58-2.682-18.815-4.255-6.038-1.53-.66-15.768 3.201-17.748 4.437-2.302 5.518 9.279 7.639 4.086 1.193-2.949 2.095-10.264-1.6-11.724-1.657-.646-3.791-.267-5.153-1.422-3.496-2.993 1.403-11.022 5.687-10.124 1.965.408.407 2.682 2.134 3.368 1.052.421 2.274-.618 3.367-.351 3.005.716 3.805 3.592 7.273 3.903" data-name="Pfad 396"/><path stroke-linejoin="bevel" d="M177.094 129.811c1.825.365 3.327 1.796 5.152 2.134 16.33 2.977 32.645 6.333 49.185 7.807 2.204.197 7.624-5.04 6.388-7.99-3.341-7.975-16.736-3.173-18.646-12.959-.913-4.662 3.033-8.705 1.952-12.777-.73-2.752-8.073-1.165-7.456-2.836 1.137-3.089 7.16-6.599 5.503-10.825-1.278-3.272-10.176-3.272-12.608-2.134-5.35 2.513-6.585 4.198-9.758 7.638" data-name="Pfad 397"/><path stroke-linejoin="bevel" d="M24.935 137.635c0 1.01-.197 2.008-.183 3.019.112 5.321.14 10.656.533 15.977.169 2.205 5.055 3.16 6.572 3.553a97.543 97.543 0 0 0 20.065 2.668c16.077.646 32.364 2.232 48.468.884 15.64-1.305 31.353-4.436 46.868-6.754 7.834-1.165 15.639-2.232 23.434-3.734 2.134-.407 11.583-.97 13.843-2.668 4.226-3.16 5.503-11.92 5.503-16.694" data-name="Pfad 398"/><path stroke-linejoin="round" d="M70.918 145.793c4.058 0 8.06-.843 12.075-1.422" data-name="Pfad 399"/><path stroke-linejoin="round" d="M118.151 142.774c5.11-.239 2.5.042 7.807-.884" data-name="Pfad 400"/><path stroke-linejoin="round" d="M173.008 137.803c2.879 0 5.546-1.646 8.172-2.836" data-name="Pfad 401"/><path stroke-linejoin="bevel" d="M203.547 102.66c3.496 0 1.25 6.88 1.951 10.292.281 1.346 3.218-.366 4.086.716 2.794 3.496-2.47 6.894 3.367 7.273" data-name="Pfad 402"/><path stroke-linejoin="round" d="M193.072 121.657c6.824.449 5.392 5.335 13.493 4.437" data-name="Pfad 403"/><path stroke-linejoin="bevel" d="M16.412 123.426c3.469 0 8.381-.463 11.19 0 1.49.239 2.585 1.853 4.086 1.951 1.826.113 4.002-.897 6.038-1.067" data-name="Pfad 404"/><path stroke-linejoin="round" d="M20.849 104.429a28.268 28.268 0 0 1 3.552 4.789" data-name="Pfad 405"/><path stroke-linejoin="bevel" d="M133.315 131.274c1.362 4.058 5.364 5.869 8.986 7.807 15.415 8.241 28.77-10.882 30.201-24.796" data-name="Pfad 406"/><path stroke-linejoin="round" d="M142.371 132.65c.408-3.903 2.415-7.483 3.791-11.162" data-name="Pfad 407"/><path stroke-linejoin="round" d="M158.56 130.235c-.365-3.159-2.428-6.515-3.58-9.14" data-name="Pfad 408"/><path stroke-linejoin="bevel" d="M50.306 138.912c-.238 0-.772-.224-.702 0 .619 1.924.744 4.212 2.163 5.659.575.59.884-1.422 1.25-2.149a1.455 1.455 0 0 0 .098-.547c.14-1.756-.618-3.3-2.809-2.752-.407.098-.673.505-.996.758" data-name="Pfad 409"/><path stroke-linejoin="bevel" d="M67.506 131.246c-.112-.056-.224-.182-.35-.154-1.068.239-2.753-.07-3.16.955-.688 1.713.253 3.693.548 5.518.14.87 3.412.743 4.016.505 7.189-2.878 3.846-13.746-2.963-7.115" data-name="Pfad 410"/><path stroke-linejoin="bevel" d="M53.873 124.985c-.154 0-.351-.113-.45 0-.926 1.08-3.524 2.457-2.499 3.454 1.422 1.39 4.041.491 5.968-.056.224-.057.449-2.977.295-3.202-1.489-2.358-3.525-1.586-5.209-.407" data-name="Pfad 411"/><path stroke-linejoin="bevel" d="M101.442 137.06c-.239.056-.548-.029-.702.154-1.334 1.629-4.858 3.425-3.666 5.167 1.137 1.656 3.945-1.25 5.42-2.612.631-.575.14-1.699.154-2.555.028-1.952-2.205-2.5-3.609-1.952" data-name="Pfad 412"/></g></svg>