<svg xmlns="http://www.w3.org/2000/svg" width="274.206" height="240.5"><defs><style>.cls-1{fill:#ffffa6}</style></defs><g id="Ebene_1" transform="translate(1.7 1.61)"><g id="Gruppe_176" data-name="Gruppe 176" transform="translate(.3 .39)"><path id="Pfad_138" d="M95.4-1.61a7.248 7.248 0 0 1 2.483.419c2.309.84 4.8 3.015 7.841 6.845 2.444 3.079 4.834 6.716 6.943 9.924 1.61 2.45 3 4.567 4.089 5.945A52.888 52.888 0 0 1 121.7 28.5a17.646 17.646 0 0 1 2.574 8.716 15.2 15.2 0 0 1-2.191 7.177 42.707 42.707 0 0 1-5.039 7.007 104.591 104.591 0 0 1-10.374 10.232 7.406 7.406 0 0 0 1.925.217c3.545 0 8.618-1.625 13.093-3.059a69.868 69.868 0 0 1 8.125-2.28c1.859-.355 3.754-.877 5.586-1.382a40.684 40.684 0 0 1 10.787-1.943c.331 0 .663.008.986.023a17.414 17.414 0 0 1 9.267 3.248 11.22 11.22 0 0 1 4.9 8.467v.1a18.3 18.3 0 0 1-1.4 6.178 22.265 22.265 0 0 0-1.082 3.69q-.005.032-.012.063a16.524 16.524 0 0 0 .114 5.54c.062.468.126.951.181 1.435 1.5 9.66 3.018 19.413 4.49 28.845s3 19.2 4.493 28.864l.051.272c.76 4.059 1.546 8.256 3.875 11.051 3.8 4.556 14.158 11.8 19.882 15.071 5.446 2.971 11.639 6.508 16.246 10.893a25.96 25.96 0 0 1 8.48 16.535v.052a31.7 31.7 0 0 1-1.377 12.1 49.183 49.183 0 0 1-7.728 14.6 2 2 0 0 1-2.87.367c-4.45-3.612-10.229-6.9-17.668-10.062-6.707-2.848-14.094-5.318-21.238-7.707-5.99-2-12.185-4.075-17.933-6.356a94.114 94.114 0 0 1-16.026-7.906l-.031-.02c-9.257-6.171-14.151-13.286-19.818-21.523-1.558-2.264-3.169-4.606-4.945-7.034-14.35-19.544-26.425-38.766-38.1-57.355-11.632-18.544-23.668-37.703-37.934-57.133a2 2 0 0 1-.177-.289 2.056 2.056 0 0 1 .41-2.388 6.16 6.16 0 0 1 .434-.416c.29-.258.7-.6 1.261-1.052 1.012-.815 2.49-1.965 4.394-3.419 3.482-2.659 8.344-6.3 13.692-10.253 9.432-6.971 20.768-15.2 23.551-16.92.919-.668 2.058-1.591 3.372-2.656a95.665 95.665 0 0 1 8.287-6.213C89.876-.469 92.881-1.61 95.4-1.61Zm13.2 67.455c-3.183 0-5.468-1.007-6.791-2.993a2 2 0 0 1 .372-2.636 107.214 107.214 0 0 0 11.838-11.431c5.175-6.007 6.261-9.609 6.261-11.573a13.8 13.8 0 0 0-2.059-6.752 49.664 49.664 0 0 0-4.589-6.444l-.008-.01c-1.2-1.514-2.632-3.7-4.295-6.231-2.062-3.138-4.4-6.7-6.733-9.634-3.1-3.908-5.016-5.188-6.075-5.573A3.272 3.272 0 0 0 95.4 2.39c-1.705 0-4.07.96-7.028 2.855a91.155 91.155 0 0 0-7.928 5.955c-1.389 1.125-2.588 2.1-3.607 2.833q-.062.045-.128.085c-2.089 1.277-11.253 7.855-22.286 16C44.459 37.466 37.841 42.5 35.278 44.57c13.887 19.045 25.653 37.776 37.039 55.9 11.639 18.53 23.674 37.692 37.941 57.122 1.813 2.478 3.44 4.843 5.014 7.132a128.265 128.265 0 0 0 8.241 11.121 50.459 50.459 0 0 0 10.487 9.33 90.306 90.306 0 0 0 15.329 7.547c5.646 2.24 11.787 4.294 17.726 6.28 7.217 2.414 14.68 4.909 21.532 7.819a81.633 81.633 0 0 1 16.946 9.332 43.864 43.864 0 0 0 5.935-11.735 27.776 27.776 0 0 0 1.214-10.569 20.836 20.836 0 0 0-2.365-7.771 24.848 24.848 0 0 0-4.893-6.264c-4.26-4.056-9.954-7.307-15.421-10.289l-.035-.019a124.426 124.426 0 0 1-11.029-7.281c-3.19-2.35-7.507-5.77-9.958-8.711-3-3.6-3.919-8.526-4.734-12.876l-.056-.3-.011-.062c-1.5-9.676-3.023-19.444-4.5-28.891s-3-19.216-4.5-28.892q-.007-.043-.011-.085a67.231 67.231 0 0 0-.175-1.394 20.248 20.248 0 0 1-.077-6.82 25.758 25.758 0 0 1 1.253-4.337 15.306 15.306 0 0 0 1.168-4.794 7.356 7.356 0 0 0-3.273-5.387 13.314 13.314 0 0 0-7.087-2.475 17.448 17.448 0 0 0-.8-.019 37.141 37.141 0 0 0-9.723 1.8c-1.912.527-3.889 1.072-5.91 1.457h-.023a67.477 67.477 0 0 0-7.622 2.154c-4.746 1.526-10.135 3.252-14.305 3.252Z" class="cls-1" data-name="Pfad 138" transform="translate(55.437 -.39)"/><path id="Pfad_139" d="M215.76 213.679a19.887 19.887 0 0 1-3.56-.4 87.767 87.767 0 0 1-9.941-2.669c-7.628-2.421-16.832-5.862-25.733-9.19-6.867-2.567-13.353-4.993-18.058-6.535-1.265-.4-2.582-.776-3.855-1.139-3.988-1.139-8.112-2.318-11.806-4.49-5.541-3.21-9.515-8.067-13.11-12.768-7.818-9.987-15.765-20.113-23.45-29.907-28.978-36.923-58.942-75.106-88.041-113.474A2 2 0 0 1 18.6 30.3c3.819-2.864 7.63-5.706 11.317-8.454s7.492-5.586 11.306-8.446a2 2 0 0 1 3.021.772 22.189 22.189 0 0 0 5.5 7.237A2 2 0 1 1 47.09 24.4a27.378 27.378 0 0 1-5.346-6.392c-3.187 2.386-6.356 4.748-9.437 7.045-3.166 2.36-6.424 4.789-9.7 7.24 28.7 37.8 58.219 75.422 86.784 111.822 7.688 9.8 15.638 19.928 23.46 29.919l.014.018c3.354 4.386 7.039 8.906 11.951 11.749l.012.007c3.256 1.915 6.959 2.973 10.881 4.094 1.3.372 2.65.757 3.971 1.174l.021.007c4.783 1.568 11.311 4.009 18.223 6.593 8.523 3.187 17.336 6.482 24.721 8.861a98.072 98.072 0 0 0 9.466 2.649c3.188.67 4.212.481 4.411.426a37.312 37.312 0 0 0 7.176-7.748 20.178 20.178 0 0 0 2.478-4.612 4.633 4.633 0 0 0 .269-3 2 2 0 1 1 3.728-1.45 8.292 8.292 0 0 1-.217 5.757 23.807 23.807 0 0 1-2.965 5.575 41.04 41.04 0 0 1-8.093 8.7 4.923 4.923 0 0 1-3.138.845Z" class="cls-1" data-name="Pfad 139" transform="translate(33.35 24.82)"/><path id="Pfad_140" d="M43.018 82.929a2 2 0 0 1-1.359-3.468 49.225 49.225 0 0 0 6.953-7.992 50.311 50.311 0 0 0 5.066-9.2 50.821 50.821 0 0 0 3.052-10.042 50.417 50.417 0 0 0 .914-10.506v-.037a22.994 22.994 0 0 0-.988-7.272 33.363 33.363 0 0 0-3.926-7.214c-.332-.508-.674-1.033-1.006-1.554-1.911-2.6-3.777-5.291-5.581-7.9s-3.663-5.292-5.553-7.858a2 2 0 1 1 3.22-2.373c1.925 2.613 3.8 5.327 5.622 7.952 1.8 2.6 3.663 5.291 5.553 7.856q.041.055.077.113c.331.521.681 1.056 1.018 1.574a36.272 36.272 0 0 1 4.37 8.135 26.841 26.841 0 0 1 1.193 8.518 54.424 54.424 0 0 1-.986 11.323 54.829 54.829 0 0 1-3.293 10.834 54.319 54.319 0 0 1-5.47 9.936 53.232 53.232 0 0 1-7.518 8.646 1.993 1.993 0 0 1-1.358.529Z" class="cls-1" data-name="Pfad 140" transform="translate(72.004 13.949)"/><path id="Pfad_141" d="M83.179 50.238a2 2 0 0 1-1.54-.723L45.661 6.178a2 2 0 0 1 3.078-2.555L84.717 46.96a2 2 0 0 1-1.538 3.278Z" class="cls-1" data-name="Pfad 141" transform="translate(80.632 7.391)"/><path id="Pfad_142" d="M98.2 109.6a25.272 25.272 0 0 1-4.237-.381 2 2 0 0 1-.222-.05c-.336-.06-1.52-.127-2.39-.176-3.764-.211-4.981-.355-5.8-.9-.933-.622-1.645-1.9-2.944-7.175l-.067-.273-.015-.063c-1.492-6.916-3.011-12.926-4.481-18.738-1.478-5.846-3.007-11.891-4.513-18.876q-.012-.055-.02-.11c-.763-4.833-1.562-9.445-2.978-16.244-.134-.6-.275-1.219-.412-1.815-1-4.384-2.043-8.916-1.529-13.546A2 2 0 0 1 70 29.557a74.77 74.77 0 0 1 15.6-3.342 2 2 0 0 1 .5 3.969 68.469 68.469 0 0 0-13.631 2.806c-.141 3.536.683 7.131 1.549 10.913.139.606.283 1.233.42 1.853l.006.026c1.429 6.859 2.237 11.521 3.007 16.394 1.488 6.893 3 12.887 4.469 18.684 1.476 5.837 3 11.873 4.507 18.844l.063.254a32.455 32.455 0 0 0 1.408 4.749c.868.133 2.644.232 3.676.29a20.3 20.3 0 0 1 3.148.291 22.177 22.177 0 0 0 7.01.057c1.232-.131 2.629-.28 4.453-.371a2 2 0 0 1 .2 4 70.622 70.622 0 0 0-4.228.354 35.953 35.953 0 0 1-3.957.272Z" class="cls-1" data-name="Pfad 142" transform="translate(120.761 47.599)"/><path id="Pfad_143" d="M46.3 46.35a2 2 0 0 1-.561-3.92c10.408-3.046 21.51-5.822 33.941-8.486a2 2 0 1 1 .838 3.911c-12.335 2.645-23.343 5.396-33.656 8.414a2 2 0 0 1-.562.081Z" class="cls-1" data-name="Pfad 143" transform="translate(79.079 60.886)"/><path id="Pfad_144" d="M52.5 57a2 2 0 0 1-.684-3.88c10.446-3.8 18.882-7.241 26.546-10.834a2 2 0 1 1 1.7 3.622c-7.775 3.645-16.315 7.131-26.877 10.971A2 2 0 0 1 52.5 57Z" class="cls-1" data-name="Pfad 144" transform="translate(89.778 75.036)"/><path id="Pfad_145" d="M58.9 61.769a2 2 0 0 1-.588-3.912c3.565-1.1 7.248-2.139 10.81-3.147 3.54-1 7.2-2.038 10.723-3.122a2 2 0 1 1 1.176 3.823c-3.565 1.1-7.248 2.139-10.81 3.147-3.54 1-7.2 2.038-10.723 3.122a2 2 0 0 1-.588.089Z" class="cls-1" data-name="Pfad 145" transform="translate(100.822 91.257)"/><path id="Pfad_146" d="M107 94.751a1.991 1.991 0 0 1-1.105-.335c-15.53-10.323-33.956-19.035-54.761-25.893a304.233 304.233 0 0 0-35.9-9.392c-.949-.192-1.7-.344-2.213-.458-.3-.067-.52-.121-.684-.168A2.056 2.056 0 0 1 10.7 56.5a2 2 0 0 1 2.855-1.809c.39.1 1.405.3 2.473.52a308.044 308.044 0 0 1 36.359 9.513c21.145 6.97 39.894 15.839 55.728 26.361A2 2 0 0 1 107 94.751Z" class="cls-1" data-name="Pfad 146" transform="translate(21.098 96.434)"/><path id="Pfad_147" d="M89.429 75.181a2 2 0 0 1-.547-.076c-2.947-.836-6.423-1.769-10.449-2.849-11.254-3.02-26.668-7.156-41.219-12.191a223.653 223.653 0 0 1-20.961-8.328A95.013 95.013 0 0 1-.91 41.793a2 2 0 0 1 2.42-3.186 91.1 91.1 0 0 0 16.432 9.5 219.682 219.682 0 0 0 20.581 8.174c14.417 4.99 29.751 9.1 40.948 12.107 4.04 1.084 7.53 2.02 10.5 2.864a2 2 0 0 1-.545 3.925Z" class="cls-1" data-name="Pfad 147" transform="translate(-.3 68.306)"/><path id="Pfad_148" d="M39.885 47.488c-10.716 0-15.662-3.789-20.464-7.468a37.16 37.16 0 0 0-7.638-4.894 2 2 0 0 1 1.633-3.651 40.9 40.9 0 0 1 8.437 5.37 31.778 31.778 0 0 0 8.335 5.093 23.8 23.8 0 0 0 5.767 1.344 40.816 40.816 0 0 0 8.091.02 2 2 0 0 1 .342 3.985 53.474 53.474 0 0 1-4.503.201Z" class="cls-1" data-name="Pfad 148" transform="translate(20.925 56.399)"/></g></g></svg>