<svg xmlns="http://www.w3.org/2000/svg" width="319.126" height="226.826" viewBox="0 0 319.126 226.826">
  <g id="ticket" transform="translate(1.625 1.533)">
    <g id="Ebene_2" transform="translate(0.366 0.367)">
      <g id="Gruppe_284" data-name="Gruppe 284">
        <path id="Pfad_425" data-name="Pfad 425" d="M1.916,43.136c18.385-3.188,39.683,1.731,59.222-1.1,53.588-7.75,108.908-18.66,162.5-29.515C238.557,9.5,253.369,5.762,268.1,1.942c.11,0,7.557-2.336,8.794-1.319,2.721,2.226,2.693,18.77,3.078,22.452.522,4.947,2.666,8.134,4.479,12.861.852,2.171,3.82,9.948,2.116,12.669-1.649,2.638-6.073,1.594-8.794,3.078-11.57,6.376-16.983,30.559-13.218,42.266,3.71,11.542,19.814,14.977,29.954,14.977,2.776,0,6.1-1.649,8.354,0,1.456,1.072,1.182,10.47,1.319,11.46,1.457,10.992,4.122,21.71,6.156,32.593.385,1.979,6.4,23.112,5.276,23.771-5.524,3.325-18.247,3.435-24.651,5.276-23.139,6.678-46.5,10.031-70.462,12.339-44.355,4.26-87.995,12.669-132.1,18.495-20.171,2.666-40.727,2.94-60.761,6.156-4.26.687-8.464,5.881-12.339,3.957-.385-.192-5.936-23.414-6.156-25.09-.357-2.418-2.528-35.863-2.2-36.11,2.006-1.594,4.947,1.511,7.475,1.759,3.737.385,9.673.412,13.218-.44,12.559-3,24.761-16.928,26.877-29.515,3.133-18.77-19.9-24.211-33.912-24.211-2.528,0-11.46,1.539-13.218,0-3.518-3.133-1.759-19.512-1.759-22.452,0-14.235-8.684-36.55-3.737-43.8Z" transform="translate(-0.366 -0.367)" fill="none" stroke="#ffffa6" stroke-linecap="round" stroke-linejoin="bevel" stroke-width="4"/>
        <g id="Gruppe_283" data-name="Gruppe 283" transform="translate(84.728 39.886)">
          <path id="Pfad_426" data-name="Pfad 426" d="M35.761,54.919c-.577,11.954,3.133,24.843,6.018,36.248,3.957,15.692-3.655,48.284,17.753,51.115,4.919.66,10.168.192,15.115.192a73.683,73.683,0,0,0,12.861-.824c7.283-1.044,14.538-2.418,21.848-3.27,10.773-1.264,28.361-5.029,39.106-6.376,1.951-.247,7.09-.11,8.162-2.253,2.226-4.452,0-21.875,0-27.756a339.134,339.134,0,0,0-6.321-65.35c-1.209-6.046-1.731-16.571-8.162-19.4-13.658-5.991-39.161.934-52.269,4.067-13.686,3.3-27.426,6.843-41.249,9.591-3.16.632-8.217.3-10.608,3.05-3.6,4.122-2.006,15.829-2.253,20.941Z" transform="translate(-23.47 -14.881)" fill="none" stroke="#ffffa6" stroke-linecap="round" stroke-linejoin="bevel" stroke-width="4"/>
          <path id="Pfad_427" data-name="Pfad 427" d="M47.86,32.26c20.666,0,36.825-8.547,55.539-11.24" transform="translate(-2.069 -4.148)" fill="none" stroke="#ffffa6" stroke-linecap="round" stroke-linejoin="round" stroke-width="4"/>
          <path id="Pfad_428" data-name="Pfad 428" d="M77.94,22.735c2.061-.44,6.4-2.034,8.382-1.4,1.154.357,1.511,7.09,1.621,8.162.55,4.644,4.534,17.863-1.237,18.577l-3.628.934" transform="translate(50.515 -3.857)" fill="none" stroke="#ffffa6" stroke-linecap="round" stroke-linejoin="bevel" stroke-width="4"/>
          <path id="Pfad_429" data-name="Pfad 429" d="M43.3,28.3a29,29,0,0,0-11.844,3.05c-.66.3.165,8.354.192,8.794.357,3.49.769,17.4,4.479,19.4,3.38,1.814,8.079-2.253,11.542-3.105" transform="translate(-31.197 8.578)" fill="none" stroke="#ffffa6" stroke-linecap="round" stroke-linejoin="bevel" stroke-width="4"/>
          <path id="Pfad_430" data-name="Pfad 430" d="M49.233,63.137c0,3.243-.11,6.98.824,10,5.5,17.753,11.02-4.892,11.02-11.24" transform="translate(0.324 67.315)" fill="none" stroke="#ffffa6" stroke-linecap="round" stroke-linejoin="bevel" stroke-width="4"/>
          <path id="Pfad_431" data-name="Pfad 431" d="M73.19,60.3a66.186,66.186,0,0,0,2.034,14.483c1.072,4.617,5.551,4.644,7.365.6,2.583-5.8,2.858-10.91,2.858-17.148" transform="translate(42.211 60.916)" fill="none" stroke="#ffffa6" stroke-linecap="round" stroke-linejoin="bevel" stroke-width="4"/>
          <path id="Pfad_432" data-name="Pfad 432" d="M40.72,32.02c0,6.568,3.05,13.6,4.7,19.814.55,2.006.44,8.986,2.666,10,5.634,2.556,21.9-1.319,28.168-2.034C97.661,57.33,111.759,53.922,133,50.377" transform="translate(-14.55 15.081)" fill="none" stroke="#ffffa6" stroke-linecap="round" stroke-linejoin="bevel" stroke-width="4"/>
          <path id="Pfad_433" data-name="Pfad 433" d="M42.58,36.51c15.06,0,29.927-.247,45.124-.824,13.191-.495,18.577-4.837,31.438-6.98,1.456-.247,5.111-1.154,6.54-.6,1.319.522,2.666,25.695,2.666,28.168" transform="translate(-11.299 7.925)" fill="none" stroke="#ffffa6" stroke-linecap="round" stroke-linejoin="bevel" stroke-width="4"/>
          <path id="Pfad_434" data-name="Pfad 434" d="M50.6,50.4c-2.913,1.429-2.8,6.293-2.253,9.481.522,3.05,9.179,4.095,11.24,3.05,9.921-4.947.385-17.121-8.986-12.559Z" transform="translate(-1.758 45.401)" fill="none" stroke="#ffffa6" stroke-linecap="round" stroke-linejoin="bevel" stroke-width="4"/>
          <path id="Pfad_435" data-name="Pfad 435" d="M79.579,46.923c-3.847-.715-6.65,4.4-8.986,7.557-1.869,2.528,2.253,6.568,4.095,7.365,8.437,3.545,23.139-11.487,4.892-14.895Z" transform="translate(36.839 41.015)" fill="none" stroke="#ffffa6" stroke-linecap="round" stroke-linejoin="bevel" stroke-width="4"/>
        </g>
      </g>
    </g>
  </g>
</svg>
