<svg xmlns="http://www.w3.org/2000/svg" width="240" height="240"><g fill="none" stroke="#ffffa6" stroke-linecap="round" stroke-width="2.858" data-name="Gruppe 284"><path stroke-linejoin="bevel" d="M8.447 70.89c13.135-2.278 28.35 1.236 42.31-.786 38.285-5.537 77.807-13.331 116.094-21.086 10.659-2.159 21.24-4.83 31.765-7.558.079 0 5.399-1.67 6.283-.943 1.944 1.59 1.924 13.41 2.199 16.04.373 3.535 1.904 5.812 3.2 9.189.608 1.55 2.729 7.107 1.511 9.05-1.178 1.885-4.338 1.14-6.282 2.2-8.266 4.555-12.133 21.832-9.444 30.196 2.65 8.246 14.156 10.7 21.4 10.7 1.983 0 4.358-1.178 5.969 0 1.04.766.844 7.48.942 8.187 1.04 7.853 2.945 15.51 4.398 23.285.275 1.414 4.572 16.512 3.77 16.983-3.947 2.375-13.037 2.454-17.612 3.77-16.531 4.77-33.22 7.166-50.34 8.814-31.688 3.044-62.866 9.052-94.376 13.214-14.41 1.904-29.096 2.1-43.409 4.398-3.043.49-6.047 4.201-8.815 2.827-.275-.137-4.24-16.728-4.398-17.925-.255-1.728-1.806-25.622-1.572-25.798 1.433-1.139 3.534 1.08 5.34 1.257 2.67.275 6.911.294 9.444-.315 8.972-2.143 17.69-12.094 19.201-21.086 2.239-13.41-14.217-17.297-24.227-17.297-1.806 0-8.187 1.1-9.443 0-2.514-2.238-1.257-13.94-1.257-16.04 0-10.17-6.204-26.112-2.67-31.292z" data-name="Pfad 425"/><g data-name="Gruppe 283"><path stroke-linejoin="bevel" d="M76.653 97.434c-.412 8.54 2.238 17.749 4.3 25.897 2.826 11.21-2.612 34.495 12.682 36.517 3.515.472 7.265.138 10.799.138a52.641 52.641 0 0 0 9.188-.589c5.203-.746 10.387-1.728 15.609-2.336 7.696-.903 20.262-3.593 27.938-4.555 1.394-.177 5.066-.079 5.831-1.61 1.59-3.18 0-15.628 0-19.83a242.286 242.286 0 0 0-4.515-46.687c-.864-4.32-1.237-11.839-5.832-13.86-9.757-4.28-27.977.667-37.342 2.905-9.778 2.358-19.594 4.89-29.47 6.852-2.257.452-5.87.215-7.578 2.18-2.572 2.944-1.433 11.308-1.61 14.96z" data-name="Pfad 426"/><path stroke-linejoin="round" d="M100.586 88.914c14.764 0 26.309-6.106 39.679-8.03" data-name="Pfad 427"/><path stroke-linejoin="bevel" d="M159.643 82.317c1.473-.314 4.573-1.453 5.989-1 .824.255 1.08 5.065 1.158 5.83.393 3.319 3.239 12.763-.884 13.273l-2.592.667" data-name="Pfad 428"/><path stroke-linejoin="bevel" d="M76.519 95.177a20.718 20.718 0 0 0-8.462 2.179c-.472.214.118 5.968.137 6.282.255 2.494.55 12.431 3.2 13.86 2.415 1.296 5.772-1.61 8.246-2.218" data-name="Pfad 429"/><path stroke-linejoin="bevel" d="M103.277 162.028c0 2.317-.079 4.987.588 7.144 3.93 12.684 7.873-3.495 7.873-8.03" data-name="Pfad 430"/><path stroke-linejoin="bevel" d="M150.317 155.43a47.285 47.285 0 0 0 1.453 10.347c.766 3.298 3.966 3.318 5.262.428 1.845-4.143 2.042-7.794 2.042-12.25" data-name="Pfad 431"/><path stroke-linejoin="bevel" d="M86.568 102.48c0 4.692 2.18 9.716 3.358 14.156.393 1.433.315 6.42 1.905 7.144 4.025 1.826 15.646-.942 20.124-1.453 15.293-1.765 25.365-4.2 40.54-6.732" data-name="Pfad 432"/><path stroke-linejoin="bevel" d="M90.22 100.575c10.759 0 21.38-.176 32.238-.588 9.424-.354 13.271-3.456 22.46-4.987 1.04-.176 3.651-.824 4.672-.429.942.373 1.905 18.358 1.905 20.124" data-name="Pfad 433"/><path stroke-linejoin="bevel" d="M102.766 137.273c-2.081 1.02-2 4.496-1.61 6.773.373 2.18 6.558 2.926 8.03 2.18 7.088-3.535.275-12.233-6.42-8.973z" data-name="Pfad 434"/><path stroke-linejoin="bevel" d="M151.044 131.655c-2.749-.51-4.751 3.144-6.42 5.399-1.335 1.806 1.61 4.692 2.926 5.262 6.027 2.532 16.53-8.207 3.495-10.642z" data-name="Pfad 435"/></g></g></svg>