<svg xmlns="http://www.w3.org/2000/svg" width="275.715" height="241.286" viewBox="0 0 275.715 241.286">
  <g id="t-shirt" transform="translate(1.979 2.216)">
    <g id="Ebene_2" transform="translate(0.39 0.38)">
      <g id="Gruppe_282" data-name="Gruppe 282">
        <path id="Pfad_413" data-name="Pfad 413" d="M88.394,68.787c1.323.874,3.024-.236,4.323.827a9.73,9.73,0,0,1,4.11-1.866c7.535-1.559,12.047-6.661,14.693-13.417a29.7,29.7,0,0,0,1.961-8.811,13.3,13.3,0,0,0-1.063-5.339c-.638-1.8-2.5-2.268-4.087-2.6a15.783,15.783,0,0,1-3.047-.945c-5.787-2.669-11.2-1.323-16.7,1.016a40.354,40.354,0,0,0-12.874,8.74C70.3,51.85,64.324,56.645,58.938,62.126c-3.472,3.52-7.063,6.945-10.677,10.3-1.819,1.7-2.716,4.087-4.7,5.6" transform="translate(58.415 47.007)" fill="none" stroke="#ffffa6" stroke-linecap="round" stroke-linejoin="bevel" stroke-width="4"/>
        <path id="Pfad_414" data-name="Pfad 414" d="M124.822,3.16a5.113,5.113,0,0,1-1.181,3.968c-3.779,4.11-6.614,8.976-10.11,13.346a56.843,56.843,0,0,1-7.819,7.63,40.614,40.614,0,0,1-14.834,7.748c-3.59,1.11-6.945,2.764-10.653,3.614a34.714,34.714,0,0,1-15.661-.047,34.273,34.273,0,0,1-12.708-5.457,23.206,23.206,0,0,1-4.11-4.087C46.327,28.2,44.6,26.853,43.162,25.2c-2.409-2.787-3.331-6.165-4.488-9.5-.543-1.559-2.244-2.622-2.055-4.535" transform="translate(48.94 3.407)" fill="none" stroke="#ffffa6" stroke-linecap="round" stroke-linejoin="bevel" stroke-width="4"/>
        <path id="Pfad_415" data-name="Pfad 415" d="M87.36,105.782c.945-3.449,1.087-7.016,1.866-10.488.827-3.756,1.087-7.583,1.89-11.338a85.892,85.892,0,0,0,1.866-12.094A88.516,88.516,0,0,1,95.3,59.082,55.586,55.586,0,0,0,96.62,43.256a3.572,3.572,0,0,1,0-1.228c.614-1.724-.4-1.89-1.654-1.866" transform="translate(118.078 53.806)" fill="none" stroke="#ffffa6" stroke-linecap="round" stroke-linejoin="bevel" stroke-width="4"/>
        <path id="Pfad_416" data-name="Pfad 416" d="M94.745,67.94c1.37.118.945,1.3.78,1.842-.78,2.362-.26,4.819-.709,7.228-1.488,8.362-2.811,16.771-4.535,25.086-.732,3.59-1.087,7.275-1.8,10.866-1.016,5.15-1.866,10.346-3.142,15.449-1.11,4.37-2.244,8.693-3.732,12.945-.4,1.134.307,2.315.189,3.5" transform="translate(110.079 91.648)" fill="none" stroke="#ffffa6" stroke-linecap="round" stroke-linejoin="bevel" stroke-width="4"/>
        <path id="Pfad_417" data-name="Pfad 417" d="M170.8,18.364a2.477,2.477,0,0,1-2.5.094,10.9,10.9,0,0,0-4.89-.945,113.442,113.442,0,0,1-14.173-.661c-7.2-.591-14.409-.85-21.59-1.417-3.85-.307-7.653-1.228-11.527-1.606-5.693-.567-11.126-2.528-16.842-3.213A136.549,136.549,0,0,1,79.1,6.884c-1.89-.52-3.118-2.315-5.126-2.5" transform="translate(99.839 5.069)" fill="none" stroke="#ffffa6" stroke-linecap="round" stroke-linejoin="bevel" stroke-width="4"/>
        <path id="Pfad_418" data-name="Pfad 418" d="M92.117,49.83c.827,2.646,3.307,4.3,4.3,6.8,1.842,4.653,4.583,9,5.5,13.984.331,1.8.543,3.661.8,5.5a13.719,13.719,0,0,1,.118,1.7v6.472a4.245,4.245,0,0,1-.26,1.323c-.425,1.276-.4,2.669-1.3,3.945-2.008,2.835-4.465,3.567-7.7,3.071-2.787-.449-5.433-1.654-8.22-1.819-3.142-.189-5.244-1.937-7.157-4.016a13.245,13.245,0,0,0-2.764-1.748c-4.252-2.929-7.464-7.063-11.716-9.9-4.819-3.213-9.354-6.827-13.937-10.37-2.008-1.535-3.661-3.5-5.787-4.913" transform="translate(59.014 66.979)" fill="none" stroke="#ffffa6" stroke-linecap="round" stroke-linejoin="bevel" stroke-width="4"/>
        <path id="Pfad_419" data-name="Pfad 419" d="M177.3,102.988a33.445,33.445,0,0,0-11.315-1.654c-2.905.118-5.74-.732-8.646-.874-3.9-.213-7.819-.071-11.74-.331-8.126-.52-16.181,1.063-24.26.921-4.772-.071-9.449,1.2-14.2.874-6.094-.425-12.283,0-18.307-1.252a96.887,96.887,0,0,0-17.079-1.7c-4.8-.142-9.59-.354-14.409-.189-4.465.165-8.929-.78-13.37-1.346-3.4-.425-6.779-1.134-10.275-.9-2.929.189-5.905-.425-8.835.094-1.842.331-3.756.213-5.551.78a1.657,1.657,0,0,1-1.016,0c-2.717-1.157-4.653.378-6.567,1.89-.283.236-.543.142-.827.189" transform="translate(13.94 130.442)" fill="none" stroke="#ffffa6" stroke-linecap="round" stroke-linejoin="bevel" stroke-width="4"/>
        <path id="Pfad_420" data-name="Pfad 420" d="M121.243,10.65c-.4,5.6-.354,11.173-1.937,16.7a58.274,58.274,0,0,0-2.031,16.842c.047,3.189-1.134,6.26-1.441,9.449-.52,5.291-1.984,10.441-2.953,15.661-.307,1.654-.331,3.425-.5,5.126-.378,4.016-.78,8.008-3.094,11.527" transform="translate(147.951 13.61)" fill="none" stroke="#ffffa6" stroke-linecap="round" stroke-linejoin="bevel" stroke-width="4"/>
        <path id="Pfad_421" data-name="Pfad 421" d="M33.138,44.17c.992,1.276.614,2.669.449,4.11-.4,3.425-.449,6.874-1.016,10.3-.5,3.024-1.323,5.976-1.8,9.024-.8,5.362-1.984,10.677-2.835,16.039-.614,3.921-1.039,7.866-1.913,11.764a46.4,46.4,0,0,0-.543,6.354c-.307,3.614-1.37,7.134-2.008,10.7-1.016,5.622-2.764,11.1-3.779,16.677-.685,3.8-1.417,7.653-2.1,11.48-.52,2.811-1.134,5.646-1.724,8.457-.591,2.858-.992,5.787-1.606,8.646a35.775,35.775,0,0,1-1.37,5.315A7.615,7.615,0,0,0,12.776,168" transform="translate(15.995 59.27)" fill="none" stroke="#ffffa6" stroke-linecap="round" stroke-linejoin="bevel" stroke-width="4"/>
        <path id="Pfad_422" data-name="Pfad 422" d="M50.752,42.41c-.142,1.654-.26,3.283-.4,4.937a2.613,2.613,0,0,1-2.882,2.669c-4.8.047-9.378-1.11-14.008-2.173-4.7-1.087-8.953-3.331-13.559-4.559-3.071-.8-6.331-.9-9.425-1.583-2.48-.543-5.055-.591-7.417-1.559-1.016-.4-1.772.425-2.669.614" transform="translate(-0.39 53.636)" fill="none" stroke="#ffffa6" stroke-linecap="round" stroke-linejoin="bevel" stroke-width="4"/>
        <path id="Pfad_423" data-name="Pfad 423" d="M73.122.38c-1.134.449-36.259.165-37.44.189-4.7.071-9.331.874-13.984,1.181A95.973,95.973,0,0,0,11.233,3.1c-2.858.52-5.74,1.016-8.291,2.764A2.32,2.32,0,0,0,1.761,8.2c.165,3.236.9,6.425,1.087,9.661.071,1.37.071,2.74.142,4.11.26,5.835.425,11.669.709,17.48A45.569,45.569,0,0,1,3.6,49.112c-.213,1.323.449,2.622.378,3.9-.236,3.921.283,7.866-.78,11.716-.283,1.016.472,1.842.472,2.882A124.574,124.574,0,0,1,1.808,86.34c-.4,2.433-.449,4.937-.638,7.394" transform="translate(0.672 -0.38)" fill="none" stroke="#ffffa6" stroke-linecap="round" stroke-linejoin="bevel" stroke-width="4"/>
        <path id="Pfad_424" data-name="Pfad 424" d="M134.456,48.113c.094-1.7-.614-2.693-2.362-2.882-1.89-.213-3.52-1.276-5.339-1.63l-6.992-.4a38.734,38.734,0,0,0-3.9-1.465,22.067,22.067,0,0,0-6.59-.354c-4.583.354-9.023-.921-13.583-1.157-1.535-.071-2.882.5-4.323.5" transform="translate(123.541 53.885)" fill="none" stroke="#ffffa6" stroke-linecap="round" stroke-linejoin="bevel" stroke-width="4"/>
      </g>
    </g>
  </g>
</svg>
