<svg xmlns="http://www.w3.org/2000/svg" width="240" height="240"><g fill="none" stroke="#ffffa6" stroke-linecap="round" stroke-linejoin="bevel" stroke-width="3.194" data-name="Gruppe 282"><path d="M129.173 118.037c1.056.698 2.414-.188 3.451.66a7.769 7.769 0 0 1 3.282-1.49c6.016-1.244 9.618-5.317 11.73-10.711a23.713 23.713 0 0 0 1.567-7.035 10.619 10.619 0 0 0-.85-4.263c-.509-1.437-1.995-1.81-3.262-2.076a12.601 12.601 0 0 1-2.433-.755c-4.62-2.13-8.942-1.056-13.334.812a32.22 32.22 0 0 0-10.279 6.978c-4.319 4.358-9.09 8.186-13.39 12.562-2.773 2.81-5.64 5.545-8.525 8.224-1.453 1.357-2.169 3.263-3.753 4.471" data-name="Pfad 413"/><path d="M150.692 30.828a4.082 4.082 0 0 1-.942 3.169c-3.018 3.281-5.281 7.166-8.073 10.655a45.385 45.385 0 0 1-6.242 6.092 32.427 32.427 0 0 1-11.844 6.186c-2.866.887-5.545 2.207-8.506 2.886a27.716 27.716 0 0 1-12.504-.038 27.364 27.364 0 0 1-10.146-4.357 18.528 18.528 0 0 1-3.282-3.263c-1.133-1.337-2.511-2.413-3.66-3.732-1.923-2.226-2.659-4.923-3.583-7.585-.433-1.245-1.791-2.094-1.64-3.621" data-name="Pfad 414"/><path d="M175.983 153.003c.755-2.753.868-5.601 1.49-8.373.66-3 .868-6.055 1.51-9.053a68.578 68.578 0 0 0 1.489-9.656 70.673 70.673 0 0 1 1.85-10.204 44.381 44.381 0 0 0 1.055-12.636 2.852 2.852 0 0 1 0-.98c.49-1.376-.32-1.509-1.321-1.49" data-name="Pfad 415"/><path d="M175.493 153.003c1.094.095.754 1.038.623 1.471-.623 1.886-.208 3.848-.566 5.771-1.188 6.677-2.245 13.39-3.621 20.03-.585 2.866-.868 5.808-1.437 8.675-.812 4.112-1.49 8.26-2.509 12.335-.886 3.489-1.792 6.94-2.98 10.335-.319.906.245 1.849.151 2.795" data-name="Pfad 416"/><path d="M228.041 44.295a1.978 1.978 0 0 1-1.996.075 8.703 8.703 0 0 0-3.904-.755 90.574 90.574 0 0 1-11.316-.528c-5.749-.471-11.505-.678-17.238-1.13-3.074-.246-6.11-.981-9.204-1.283-4.545-.453-8.883-2.019-13.447-2.566a109.023 109.023 0 0 1-16.11-2.98c-1.51-.414-2.49-1.848-4.093-1.995" data-name="Pfad 417"/><path d="M132.623 118.848c.66 2.112 2.64 3.433 3.434 5.43 1.47 3.714 3.659 7.185 4.39 11.164.265 1.437.434 2.923.64 4.392a10.954 10.954 0 0 1 .094 1.357v5.167a3.39 3.39 0 0 1-.208 1.057c-.339 1.018-.32 2.13-1.038 3.15-1.603 2.263-3.565 2.847-6.147 2.451-2.226-.358-4.338-1.32-6.563-1.452-2.51-.151-4.187-1.547-5.715-3.207a10.575 10.575 0 0 0-2.207-1.395c-3.395-2.339-5.959-5.64-9.354-7.905-3.847-2.565-7.468-5.45-11.127-8.28-1.604-1.225-2.923-2.794-4.62-3.922" data-name="Pfad 418"/><path d="M164.647 211.96a26.703 26.703 0 0 0-9.034-1.32c-2.32.094-4.583-.585-6.903-.698-3.114-.17-6.243-.057-9.373-.264-6.488-.415-12.92.848-19.37.735-3.81-.057-7.544.958-11.338.698-4.865-.34-9.807 0-14.616-1a77.356 77.356 0 0 0-13.637-1.357c-3.832-.113-7.656-.283-11.504-.151-3.565.132-7.13-.623-10.675-1.075-2.715-.339-5.412-.905-8.204-.718-2.338.15-4.714-.34-7.054.075-1.47.264-2.999.17-4.432.623a1.323 1.323 0 0 1-.81 0c-2.17-.924-3.716.301-5.244 1.509-.226.188-.434.113-.66.15" data-name="Pfad 419"/><path d="M226.887 44.955c-.32 4.471-.282 8.92-1.546 13.334a46.527 46.527 0 0 0-1.622 13.447c.038 2.546-.905 4.998-1.15 7.544-.416 4.224-1.584 8.336-2.358 12.504-.245 1.32-.264 2.734-.4 4.093-.301 3.206-.622 6.393-2.47 9.203" data-name="Pfad 420"/><path d="M51.186 108.174c.792 1.019.49 2.13.359 3.281-.32 2.735-.359 5.489-.812 8.224-.399 2.414-1.056 4.771-1.437 7.205-.638 4.281-1.584 8.525-2.263 12.806-.49 3.13-.83 6.28-1.528 9.392a37.047 37.047 0 0 0-.433 5.074c-.245 2.885-1.094 5.696-1.603 8.543-.812 4.488-2.207 8.862-3.018 13.315-.546 3.034-1.13 6.11-1.676 9.166-.415 2.244-.906 4.508-1.377 6.752-.472 2.282-.792 4.62-1.282 6.903a28.563 28.563 0 0 1-1.094 4.244 6.08 6.08 0 0 0-.093 3.963" data-name="Pfad 421"/><path d="M52.167 102.27c-.113 1.32-.207 2.622-.319 3.942a2.086 2.086 0 0 1-2.301 2.131c-3.832.038-7.488-.886-11.184-1.735-3.753-.868-7.148-2.66-10.826-3.64-2.452-.639-5.055-.718-7.525-1.264-1.98-.433-4.036-.472-5.922-1.245-.811-.319-1.415.34-2.131.49" data-name="Pfad 422"/><path d="M70.876 25.585c-.905.359-28.95.132-29.893.151-3.752.057-7.45.698-11.165.943a76.627 76.627 0 0 0-8.355 1.078c-2.282.415-4.583.811-6.62 2.207a1.852 1.852 0 0 0-.943 1.865c.132 2.584.719 5.13.868 7.713.057 1.094.057 2.188.113 3.282.208 4.659.34 9.317.566 13.956a36.383 36.383 0 0 1-.079 7.714c-.17 1.056.359 2.093.302 3.114-.188 3.13.226 6.28-.623 9.354-.226.811.377 1.47.377 2.301a99.462 99.462 0 0 1-1.486 14.954c-.32 1.943-.359 3.942-.51 5.904" data-name="Pfad 423"/><path d="M217.947 107.022c.075-1.357-.49-2.15-1.886-2.3-1.509-.17-2.81-1.02-4.262-1.302l-5.583-.32a30.926 30.926 0 0 0-3.114-1.169 17.619 17.619 0 0 0-5.261-.283c-3.66.283-7.204-.735-10.845-.923-1.226-.057-2.301.399-3.452.399" data-name="Pfad 424"/></g></svg>