<svg xmlns="http://www.w3.org/2000/svg" width="103.5" height="103.5" viewBox="0 0 103.5 103.5">
  <defs>
    <style>
      .cls-1 {
        fill: #fcfcff;
      }

      .cls-1, .cls-2 {
        stroke: #ff0048;
        stroke-width: 3.5px;
      }

      .cls-2 {
        fill: none;
        stroke-linecap: round;
        stroke-linejoin: bevel;
      }
    </style>
  </defs>
  <g id="Gruppe_169" data-name="Gruppe 169" transform="translate(-1081.9 -1901.493)">
    <path id="Pfad_109" data-name="Pfad 109" class="cls-1" d="M1101.077,1950.243c-25,0-49.516,28.831-49.516,53.832s24.516,46.169,49.516,46.169,50.484-21.169,50.484-46.169S1126.077,1950.243,1101.077,1950.243Z" transform="translate(32.089 -47)"/>
    <path id="Pfad_108" data-name="Pfad 108" class="cls-2" d="M270.5,5376.5h66.11a84.954,84.954,0,0,0-12.874,7.591,82.593,82.593,0,0,0-10.954,9.981,77.078,77.078,0,0,0,2.053-17.573,114.916,114.916,0,0,0-2.053-19.838s5,4.988,10.954,10.335a96.194,96.194,0,0,0,12.874,9.5" transform="translate(-4241.717 2256.8) rotate(-90)"/>
  </g>
</svg>
