<svg xmlns="http://www.w3.org/2000/svg" width="161.428" height="162.237"><defs><style>.cls-1{fill:#ff0048}</style></defs><g id="Timer" transform="translate(1.63 1.624)"><path id="Pfad_110" data-name="Pfad 110" class="cls-1" d="M66.006 20.222c3.725 0 16.371.865 18.059 1.021q.1.005.2.021l.047.006a2.035 2.035 0 0 1 1.367.8c.443.115.888.225 1.2.3.8.2 1.225.305 1.485.394l.025.009a61.191 61.191 0 0 1 14.253 6.942 93.145 93.145 0 0 1 19.643 17.933c6.213 7.782 9.988 15.921 11.22 24.192 1.222 8.228-.465 19.022-2.281 25.765a81.4 81.4 0 0 1-8.453 20.631 54.164 54.164 0 0 1-12.715 14.75 51.071 51.071 0 0 1-16.84 8.774 70.332 70.332 0 0 1-20.654 2.868c-3.193 0-6.556-.174-9.993-.517a49.038 49.038 0 0 1-15.731-4.282A52.467 52.467 0 0 1 33.7 131.09a67.711 67.711 0 0 1-17.579-26.583 78.875 78.875 0 0 1-4.378-17.818 74.2 74.2 0 0 1-.078-18.166c1.54-12.643 6.425-23.651 14.127-31.832 4.421-4.7 10.768-8.747 18.354-11.7a72.925 72.925 0 0 1 21.116-4.751h.009c.192-.012.429-.018.735-.018ZM82.2 25.108c-3.857-.282-13.252-.886-16.193-.886a8.13 8.13 0 0 0-.487.01 68.823 68.823 0 0 0-19.92 4.482c-7.037 2.742-12.879 6.448-16.9 10.718-7.113 7.557-11.633 17.784-13.069 29.575a70.2 70.2 0 0 0 .076 17.186 74.87 74.87 0 0 0 4.156 16.913 63.7 63.7 0 0 0 16.513 25.016A48.473 48.473 0 0 0 48.51 136.2a45.047 45.047 0 0 0 14.45 3.933c3.305.33 6.534.5 9.6.5a66.354 66.354 0 0 0 19.477-2.691 47.089 47.089 0 0 0 15.529-8.083 50.183 50.183 0 0 0 11.769-13.67 77.427 77.427 0 0 0 8.023-19.618 79.158 79.158 0 0 0 2.2-12.064 50.177 50.177 0 0 0-.015-12.074c-1.126-7.564-4.622-15.062-10.389-22.285A89.163 89.163 0 0 0 100.351 33a57.235 57.235 0 0 0-13.287-6.449c-.153-.048-.708-.186-1.156-.3-.717-.178-1.53-.38-2.2-.572a11.46 11.46 0 0 1-.962-.312 3.376 3.376 0 0 1-.539-.259Z" transform="translate(9.345 15.981)"/><path id="Pfad_111" data-name="Pfad 111" class="cls-1" d="M65.487 24.635a48.622 48.622 0 0 1 16.687 3.095A59.478 59.478 0 0 1 97.5 36.1a57.759 57.759 0 0 1 12.226 12.393 45.634 45.634 0 0 1 7.3 15.261 41.462 41.462 0 0 1 1.257 10.639 51.922 51.922 0 0 1-1.3 10.985 63.455 63.455 0 0 1-9.024 20.923 61.591 61.591 0 0 1-6.381 8.076 53.849 53.849 0 0 1-7.564 6.7A44.831 44.831 0 0 1 85.442 126a37.661 37.661 0 0 1-9.4 2.7 56.369 56.369 0 0 1-8.161.612 45.509 45.509 0 0 1-19.787-4.337A44.919 44.919 0 0 1 33.3 113.517a54.634 54.634 0 0 1-9.467-16.16 63.314 63.314 0 0 1-4-18.569c-.813-12.865 2.251-25.191 8.627-34.705 7.24-10.794 18.275-17.414 31.924-19.146a2 2 0 0 1 .268-.016 40.648 40.648 0 0 1 4.835-.286Zm2.395 100.68a52.355 52.355 0 0 0 7.579-.57 36.636 36.636 0 0 0 16.2-6.9 53.99 53.99 0 0 0 12.964-13.757 59.415 59.415 0 0 0 8.458-19.588 42.494 42.494 0 0 0 .072-19.75 41.66 41.66 0 0 0-6.678-13.922A53.766 53.766 0 0 0 95.093 39.3 55.483 55.483 0 0 0 80.8 31.487a44.641 44.641 0 0 0-15.314-2.852 36.531 36.531 0 0 0-4.6.287 2.106 2.106 0 0 1-.258.016 42.6 42.6 0 0 0-17.075 5.921 38.79 38.79 0 0 0-11.768 11.45C25.9 55.1 23.072 66.542 23.83 78.535a59.318 59.318 0 0 0 3.741 17.4 50.648 50.648 0 0 0 8.768 14.983 40.333 40.333 0 0 0 31.543 14.397Z" transform="translate(15.609 19.209)"/><path id="Pfad_112" data-name="Pfad 112" class="cls-1" d="M40.567 31.393a2 2 0 0 1-1.922-1.452A59.825 59.825 0 0 1 36.75 14.38a2 2 0 0 1 4 0 55.711 55.711 0 0 0 1.741 14.464 2 2 0 0 1-1.924 2.549Z" transform="translate(28.075 10.244)"/><path id="Pfad_113" data-name="Pfad 113" class="cls-1" d="M51.893 31.072a2 2 0 0 1-1.951-1.572C48.693 23.857 48.7 17.873 48.7 12.086v-.866a2 2 0 0 1 4 0v.869c0 5.571-.007 11.333 1.148 16.551a2 2 0 0 1-1.955 2.432Z" transform="translate(36.816 7.933)"/><path id="Pfad_114" data-name="Pfad 114" class="cls-1" d="M32.77 14.984a2 2 0 1 1 0-4c15.466 0 30.755-.748 45.442-2.224a2 2 0 1 1 .4 3.98c-14.82 1.489-30.243 2.244-45.842 2.244Z" transform="translate(23.701 7.589)"/><path id="Pfad_115" data-name="Pfad 115" class="cls-1" d="M32.043 23.264a1.991 1.991 0 0 1-1.1-.333c-1.724-1.143-2.6-3.552-2.75-7.581a80.422 80.422 0 0 1 .388-9.061c.137-1.686.255-3.141.255-4.088a2 2 0 1 1 4 0c0 1.109-.124 2.64-.269 4.412a77.494 77.494 0 0 0-.377 8.586c.144 3.813.955 4.394.964 4.4a2 2 0 0 1-1.107 3.667Z" transform="translate(21.794 1.335)"/><path id="Pfad_116" data-name="Pfad 116" class="cls-1" d="M80.31 18.919a2 2 0 0 1-2-2c0-.64-.361-3.652-1.014-7.423a55.683 55.683 0 0 0-1.453-6.688c-.589-.066-1.684-.154-3.671-.228a153.058 153.058 0 0 0-3.828-.093h-.07c-7.424-.262-14.987 0-22.3.247-5.164.177-10.5.36-15.774.36a2 2 0 0 1 0-4c5.2 0 10.507-.182 15.637-.357 7.373-.253 15-.514 22.55-.248.349 0 2.411.031 4.461.116 1.273.053 2.312.117 3.087.192 1.305.126 2.277.276 2.895 1.054l.008.01c.343.439.741 1.175 1.32 3.569.322 1.331.675 3.075 1.021 5.042a78.908 78.908 0 0 1 1.132 8.447 2 2 0 0 1-2.001 2Z" transform="translate(21.821)"/><path id="Pfad_117" data-name="Pfad 117" class="cls-1" d="M34.7 15.777a2 2 0 0 1-1.977-1.715 26.358 26.358 0 0 1-.138-4.535c.016-.569.031-1.107.031-1.637a2 2 0 0 1 4 0c0 .587-.017 1.178-.032 1.749a23.036 23.036 0 0 0 .1 3.853 2 2 0 0 1-1.984 2.285Z" transform="translate(25.005 5.497)"/><path id="Pfad_118" data-name="Pfad 118" class="cls-1" d="M40.124 19.184a2.017 2.017 0 0 1-.244-.015 2.542 2.542 0 0 1-2.026-1.681 8.193 8.193 0 0 1-.474-1.626 35.583 35.583 0 0 1-.5-4.031 107.33 107.33 0 0 1-.3-7.2 2 2 0 0 1 4 0c0 .749.039 3.28.216 5.954a25.774 25.774 0 0 0 .651 5.1 2 2 0 0 1-1.324 3.5Z" transform="translate(27.951 3.112)"/><path id="Pfad_119" data-name="Pfad 119" class="cls-1" d="M44.1 17.423a2 2 0 0 1-1.741-1.013c-1.348-2.374-1.314-6.025-1.289-8.692 0-.327.006-.636.006-.919a2 2 0 0 1 4 0c0 .3 0 .62-.006.957-.02 2.087-.05 5.241.767 6.678a2 2 0 0 1-1.737 2.989Z" transform="translate(31.229 4.7)"/><path id="Pfad_120" data-name="Pfad 120" class="cls-1" d="M49.284 18.243a2 2 0 0 1-1.935-1.5A49.324 49.324 0 0 1 45.9 4.97a2 2 0 0 1 4 0 45.819 45.819 0 0 0 1.322 10.773 2 2 0 0 1-1.938 2.5Z" transform="translate(34.768 3.361)"/><path id="Pfad_121" data-name="Pfad 121" class="cls-1" d="M56.319 16.956a2 2 0 0 1-1.744-1.018A19.646 19.646 0 0 1 52.17 6.16a2 2 0 0 1 4 0 15.707 15.707 0 0 0 1.889 7.813 2 2 0 0 1-1.74 2.983Z" transform="translate(39.355 4.231)"/><path id="Pfad_122" data-name="Pfad 122" class="cls-1" d="M71.921 36.821a2 2 0 0 1-1.3-3.523c.5-.424 1-.844 1.489-1.25 1.483-1.236 2.883-2.4 4.211-3.732a2 2 0 0 1 2.828 2.828C77.7 32.6 76.16 33.881 74.674 35.12c-.479.4-.975.813-1.458 1.224a1.992 1.992 0 0 1-1.295.477Z" transform="translate(52.339 21.473)"/><path id="Pfad_123" data-name="Pfad 123" class="cls-1" d="M76.289 41.227a2 2 0 0 1-1.831-2.8 12.425 12.425 0 0 1 4.259-4.676c.386-.3.751-.576 1.1-.862a2 2 0 0 1 2.543 3.088c-.4.33-.81.644-1.207.948a9.216 9.216 0 0 0-3.029 3.107 2 2 0 0 1-1.835 1.195Z" transform="translate(55.536 24.911)"/><path id="Pfad_124" data-name="Pfad 124" class="cls-1" d="M85.465 43.08a1.993 1.993 0 0 1-1.366-.539c-3.807-3.56-8.881-8.951-11.44-14.412a2 2 0 1 1 3.622-1.7c1.263 2.7 4.119 7.173 10.55 13.188a2 2 0 0 1-1.367 3.461Z" transform="translate(54.204 19.681)"/><path id="Pfad_125" data-name="Pfad 125" class="cls-1" d="M87.511 45.848a2 2 0 0 1-1.136-3.648 15.152 15.152 0 0 0 1.992-1.584 33.216 33.216 0 0 0-.764-.8 7.772 7.772 0 0 1-.529-.569l-.029-.037c-.408-.535-1.271-1.748-2.365-3.283a491.625 491.625 0 0 0-4.206-5.844 87.987 87.987 0 0 0-1.942-2.568c-.28.216-.564.439-.789.616a12.475 12.475 0 0 1-2.11 1.5 2 2 0 0 1-1.737-3.6c.226-.143.915-.684 1.375-1.046.54-.424 1.1-.863 1.569-1.2a2.807 2.807 0 0 1 2.839-.688c.836.369 1.479.993 8.259 10.51.994 1.4 1.857 2.607 2.248 3.125l.286.3c1.539 1.584 2.346 2.473 2.273 3.619-.055.987-.586 2.429-4.1 4.849a1.991 1.991 0 0 1-1.134.348Z" transform="translate(54.446 17.952)"/><path id="Pfad_126" data-name="Pfad 126" class="cls-1" d="M49 50.543a5.247 5.247 0 0 1 2.185.5 8.571 8.571 0 0 0 1.279.4c1.422.372 3.37.882 4.173 2.844v.008a9.2 9.2 0 0 1 .484 4.474 10.107 10.107 0 0 1-1.556 4.351 5.781 5.781 0 0 1-4.831 2.758 6.426 6.426 0 0 1-2.467-.52 7.115 7.115 0 0 1-3.894-4.349A10.613 10.613 0 0 1 44 55.561a7.43 7.43 0 0 1 1.488-3.31A4.536 4.536 0 0 1 49 50.543Zm3.947 5.292a5.811 5.811 0 0 0-1.5-.519 11.665 11.665 0 0 1-1.933-.633 1.288 1.288 0 0 0-.514-.14c-.408 0-.871.774-1.076 1.8-.517 2.592.574 4.782 1.881 5.325a2.471 2.471 0 0 0 .932.214 1.95 1.95 0 0 0 1.515-.995 6.257 6.257 0 0 0 .693-5.052Z" transform="translate(33.235 38.161)"/><path id="Pfad_127" data-name="Pfad 127" class="cls-1" d="M52.2 63.485a2 2 0 0 1-1.527-3.291c4.722-5.59 10.339-10.3 15.771-14.865 1.86-1.562 3.784-3.176 5.633-4.794a2 2 0 0 1 2.635 3.01 345.105 345.105 0 0 1-5.7 4.848c-5.3 4.451-10.787 9.054-15.287 14.382a2 2 0 0 1-1.525.71Z" transform="translate(37.914 30.478)"/><path id="Pfad_128" data-name="Pfad 128" class="cls-1" d="M47.31 36.128a2 2 0 0 1-2-2V27.15a2 2 0 1 1 4 0v6.978a2 2 0 0 1-2 2Z" transform="translate(34.337 19.586)"/><path id="Pfad_129" data-name="Pfad 129" class="cls-1" d="M49.04 89.287a2 2 0 0 1-2-2v-6.6a2 2 0 0 1 4 0v6.6a2 2 0 0 1-2 2Z" transform="translate(35.602 58.75)"/><path id="Pfad_130" data-name="Pfad 130" class="cls-1" d="M69.7 56.678a2 2 0 0 1 0-4 26.707 26.707 0 0 0 5.666-.816 43.588 43.588 0 0 1 4.449-.8 2 2 0 1 1 .444 3.975 39.928 39.928 0 0 0-4.046.734 30.173 30.173 0 0 1-6.513.907Z" transform="translate(50.715 38.531)"/><path id="Pfad_131" data-name="Pfad 131" class="cls-1" d="M29.583 58.1c-1.382 0-2.772-.062-4.115-.123-1.312-.059-2.669-.12-3.988-.12a2 2 0 1 1 0-4c1.408 0 2.811.063 4.167.124s2.643.119 3.936.119a2 2 0 1 1 0 4Z" transform="translate(15.442 40.587)"/><path id="Pfad_132" data-name="Pfad 132" class="cls-1" d="M35.293 42.63a2 2 0 0 1-1.525-.7 24.453 24.453 0 0 0-3.548-3.193c-.782-.619-1.591-1.259-2.377-1.965a2 2 0 0 1 2.673-2.976c.693.622 1.418 1.2 2.186 1.8a27.845 27.845 0 0 1 4.114 3.739 2 2 0 0 1-1.523 3.3Z" transform="translate(21.075 25.533)"/><path id="Pfad_133" data-name="Pfad 133" class="cls-1" d="M51.853 58.42H36.65a2 2 0 0 1 0-4h15.2a2 2 0 0 1 0 4Z" transform="translate(26.539 40.997)"/><g id="Gruppe_174" data-name="Gruppe 174" transform="translate(.37 58.181)"><path id="Pfad_134" data-name="Pfad 134" class="cls-1" d="M5.732 65.421a2.021 2.021 0 0 1-.221-.012A2 2 0 0 1 3.742 63.2c.126-1.144.241-2.263.352-3.345 1.08-10.512 1.933-18.815 10.647-27.512a2 2 0 1 1 2.826 2.831A27.788 27.788 0 0 0 10.345 46.7c-1.3 4.058-1.747 8.462-2.271 13.561a498.302 498.302 0 0 1-.355 3.374 2 2 0 0 1-1.987 1.786Z" transform="translate(3.551 -33.76)"/><path id="Pfad_135" data-name="Pfad 135" class="cls-1" d="M.372 52.007a2 2 0 0 1-1.966-2.381l.067-.346c.846-4.368 1.644-8.494 2.866-12.743a2 2 0 0 1 3.844 1.105c-1.172 4.079-1.955 8.12-2.783 12.4l-.067.346a2 2 0 0 1-1.961 1.619Z" transform="translate(-.37 -31.324)"/></g><g id="Gruppe_175" data-name="Gruppe 175" transform="translate(138.336 116.567)"><path id="Pfad_136" data-name="Pfad 136" class="cls-1" d="M80.051 97.946a2 2 0 0 1-1.253-3.56 28.407 28.407 0 0 0 8.621-12 41.179 41.179 0 0 0 2.664-14.91 2 2 0 0 1 4 0 48.52 48.52 0 0 1-.7 8.31 41.637 41.637 0 0 1-2.237 8.064A32.354 32.354 0 0 1 81.3 97.506a1.992 1.992 0 0 1-1.249.44Z" transform="translate(-80.05 -67.48)"/><path id="Pfad_137" data-name="Pfad 137" class="cls-1" d="M87.82 91.059a2 2 0 0 1-1.42-3.412 20.256 20.256 0 0 0 4.138-5.42 14.329 14.329 0 0 0 1.288-6.4 2 2 0 0 1 4 0 18.162 18.162 0 0 1-1.682 8.129 23.96 23.96 0 0 1-4.909 6.511 1.994 1.994 0 0 1-1.415.592Z" transform="translate(-74.366 -61.372)"/></g><path id="Linie_11" data-name="Linie 11" class="cls-1" d="M0 5.931A2 2 0 0 1-1.542 5.2a2 2 0 0 1 .269-2.816l4.761-3.926a2 2 0 0 1 2.812.269 2 2 0 0 1-.269 2.816l-4.758 3.93A1.992 1.992 0 0 1 0 5.931Z" transform="translate(50.912 128.289)"/><path id="Linie_12" data-name="Linie 12" class="cls-1" d="M6.37 6.329a1.991 1.991 0 0 1-1.122-.346l-6.372-4.329a2 2 0 0 1-.53-2.778 2 2 0 0 1 2.778-.53L7.5 2.674a2 2 0 0 1-1.13 3.655Z" transform="translate(112.918 122.87)"/><path id="Linie_13" data-name="Linie 13" class="cls-1" d="M0 7.281a1.991 1.991 0 0 1-1.219-.416 2 2 0 0 1-.364-2.8l4.068-5.286a2 2 0 0 1 2.8-.364 2 2 0 0 1 .364 2.8L1.584 6.5A2 2 0 0 1 0 7.281Z" transform="translate(110.476 59.254)"/></g></svg>