<svg xmlns="http://www.w3.org/2000/svg" width="59.624" height="59.5"><defs><style>.cls-1{fill:none;stroke:#ff0048;stroke-width:3.5px;stroke-linejoin:bevel}</style></defs><g id="Gruppe_164" data-name="Gruppe 164" transform="translate(1.75 1.75)"><path id="Pfad_71" data-name="Pfad 71" class="cls-1" d="M557.8 110c-14.057 0-28.036 15.039-28.036 29.039S543.746 166 557.8 166s28.087-12.961 28.087-26.961S571.859 110 557.8 110Z" transform="translate(-529.766 -110)"/><path id="Pfad_72" data-name="Pfad 72" class="cls-1" d="M547.751 123.778H568l4.065 3.853v20.52l-3.747 3.538h-20.991l-3.81-3.885v-20.173Z" transform="translate(-529.862 -110.096)"/><path id="Pfad_73" data-name="Pfad 73" d="M557.95 131.088c-3.431 0-7.047 4.01-7.047 7.434s3.616 6.262 7.047 6.262 6.677-2.838 6.677-6.262-3.245-7.434-6.677-7.434Z" transform="translate(-529.914 -110.147)" style="fill:none;stroke:#ff0048;stroke-width:3.5px"/><path id="Pfad_74" data-name="Pfad 74" d="m565.948 128.939.377.281h0" transform="translate(-530.019 -110.132)" style="stroke-linecap:square;stroke-linejoin:bevel;fill:none;stroke:#ff0048;stroke-width:3.5px"/></g></svg>