<svg xmlns="http://www.w3.org/2000/svg" width="59.624" height="59.5" viewBox="0 0 59.624 59.5">
  <defs>
    <style>
      .cls-1, .cls-2, .cls-3 {
        fill: none;
        stroke: #ffffa6;
        stroke-width: 3.5px;
      }

      .cls-1, .cls-3 {
        stroke-linejoin: bevel;
      }

      .cls-3 {
        stroke-linecap: square;
      }
    </style>
  </defs>
  <g id="Gruppe_169" data-name="Gruppe 169" transform="translate(1.75 1.75)">
    <path id="Pfad_71" data-name="Pfad 71" class="cls-1" d="M557.8,110c-14.057,0-28.036,15.039-28.036,29.039S543.746,166,557.8,166s28.087-12.961,28.087-26.961S571.859,110,557.8,110Z" transform="translate(-529.766 -110)"/>
    <path id="Pfad_72" data-name="Pfad 72" class="cls-1" d="M547.751,123.778H568l4.065,3.853v20.52l-3.747,3.538H547.327l-3.81-3.885V127.631Z" transform="translate(-529.862 -110.096)"/>
    <path id="Pfad_73" data-name="Pfad 73" class="cls-2" d="M557.95,131.088c-3.431,0-7.047,4.01-7.047,7.434s3.616,6.262,7.047,6.262,6.677-2.838,6.677-6.262S561.382,131.088,557.95,131.088Z" transform="translate(-529.914 -110.147)"/>
    <path id="Pfad_74" data-name="Pfad 74" class="cls-3" d="M565.948,128.939l.377.281h0" transform="translate(-530.019 -110.132)"/>
  </g>
</svg>
