<?xml version="1.0" encoding="UTF-8" standalone="no"?>
<svg
   width="413.21341"
   height="193.6003"
   viewBox="0 0 413.21341 193.6003"
   version="1.1"
   id="svg1528"
   sodipodi:docname="islove.svg"
   inkscape:version="1.2.1 (9c6d41e410, 2022-07-14)"
   xmlns:inkscape="http://www.inkscape.org/namespaces/inkscape"
   xmlns:sodipodi="http://sodipodi.sourceforge.net/DTD/sodipodi-0.dtd"
   xmlns="http://www.w3.org/2000/svg"
   xmlns:svg="http://www.w3.org/2000/svg">
  <sodipodi:namedview
     id="namedview1530"
     pagecolor="#ffffff"
     bordercolor="#666666"
     borderopacity="1.0"
     inkscape:showpageshadow="2"
     inkscape:pageopacity="0.0"
     inkscape:pagecheckerboard="0"
     inkscape:deskcolor="#d1d1d1"
     showgrid="false"
     inkscape:zoom="1.4380403"
     inkscape:cx="116.13026"
     inkscape:cy="97.702405"
     inkscape:window-width="1440"
     inkscape:window-height="874"
     inkscape:window-x="0"
     inkscape:window-y="0"
     inkscape:window-maximized="1"
     inkscape:current-layer="Gruppe_173" />
  <defs
     id="defs1500">
    <style
       id="style1498">
      .cls-1, .cls-2, .cls-3 {
        fill: #ffffa6;
      }

      .cls-1 {
        font-size: 60px;
      }

      .cls-1, .cls-2 {
        font-family: GTFlexaTrial-CmBd, GT Flexa Trial;
      }

      .cls-2 {
        font-size: 160px;
      }
    </style>
  </defs>
  <g
     id="Gruppe_173"
     data-name="Gruppe 173"
     transform="translate(7313.2538,-37.300957)">
    <text
       id="IS"
       class="cls-1"
       x="-7300"
       y="158"><tspan
         x="-7300"
         y="158"
         id="tspan1502">IS</tspan></text>
    <g
       id="Gruppe_172"
       data-name="Gruppe 172"
       transform="translate(-5729,-183)">
      <text
         id="L-2"
         data-name="L"
         class="cls-2"
         transform="translate(-1512,378)"><tspan
           x="0"
           y="0"
           id="tspan1516">L</tspan></text>
      <text
         id="V-2"
         data-name="V"
         class="cls-2"
         transform="translate(-1341,378)"><tspan
           x="0"
           y="0"
           id="tspan1519">V</tspan></text>
      <text
         id="E-2"
         data-name="E"
         class="cls-2"
         transform="translate(-1268,378)"><tspan
           x="0"
           y="0"
           id="tspan1522">E</tspan></text>
      <path
         id="Pfad_9-2"
         data-name="Pfad 9"
         class="cls-3"
         d="m 85.782,53.635 a 23.144,23.144 0 0 0 23.59,-22.889 V 28.608 C 109.372,11.339 95.369,0 78.094,0 48.722,0 21.593,32.322 0,55.45 c 21.593,23.127 48.722,55.45 78.094,55.45 17.275,0 31.271,-11.339 31.271,-28.615 V 80.147 A 23.127,23.127 0 0 0 85.775,57.279 v -3.644 z m -1.416,29.617 c -6.441,7.436 -15.7,5.235 -23,1.009 C 54.791,80.455 37.5,67.2 25.391,55.457 c 11.865,-11.536 29.4,-25 35.974,-28.8 7.31,-4.226 16.561,-6.427 23,1.009 4.1,4.731 6.272,19.651 -20.331,25.356 V 57.9 c 26.604,5.693 24.425,20.621 20.332,25.352 z"
         transform="rotate(-90,-539.1065,912.7925)" />
    </g>
  </g>
</svg>
