<svg width="413.213" height="193.6" version="1.1" id="svg1528" xmlns="http://www.w3.org/2000/svg"><defs id="defs1500"><style id="style1498">.cls-2{fill:#ffffa6;font-family:GTFlexaTrial-CmBd,GT Flexa Trial;font-size:160px}</style></defs><g id="Gruppe_173" data-name="Gruppe 173" transform="translate(7313.254 -37.301)"><text id="IS" x="-7300" y="158" style="font-family:GTFlexaTrial-CmBd,GT Flexa Trial;font-size:60px;fill:#ffffa6"><tspan x="-7300" y="158" id="tspan1502">IS</tspan></text><g id="Gruppe_172" data-name="Gruppe 172" transform="translate(-5729 -183)"><text id="L-2" data-name="L" class="cls-2" transform="translate(-1512 378)"><tspan x="0" y="0" id="tspan1516">L</tspan></text><text id="V-2" data-name="V" class="cls-2" transform="translate(-1341 378)"><tspan x="0" y="0" id="tspan1519">V</tspan></text><text id="E-2" data-name="E" class="cls-2" transform="translate(-1268 378)"><tspan x="0" y="0" id="tspan1522">E</tspan></text><path id="Pfad_9-2" data-name="Pfad 9" d="M85.782 53.635a23.144 23.144 0 0 0 23.59-22.889v-2.138C109.372 11.339 95.369 0 78.094 0 48.722 0 21.593 32.322 0 55.45c21.593 23.127 48.722 55.45 78.094 55.45 17.275 0 31.271-11.339 31.271-28.615v-2.138a23.127 23.127 0 0 0-23.59-22.868v-3.644zm-1.416 29.617c-6.441 7.436-15.7 5.235-23 1.009C54.791 80.455 37.5 67.2 25.391 55.457c11.865-11.536 29.4-25 35.974-28.8 7.31-4.226 16.561-6.427 23 1.009 4.1 4.731 6.272 19.651-20.331 25.356V57.9c26.604 5.693 24.425 20.621 20.332 25.352z" transform="rotate(-90 -539.106 912.793)" style="fill:#ffffa6"/></g></g></svg>