<?xml version="1.0" encoding="UTF-8"?><svg id="a" xmlns="http://www.w3.org/2000/svg" viewBox="0 0 156.06 158.24"><defs><style>.b{fill:#ff0048;}</style></defs><path class="b" d="M122.4,76.53c19.95,0,33.66-15.76,33.66-32.66v-3.05C156.06,16.18,136.08,0,111.43,0,69.52,0,30.81,46.12,0,79.12c30.81,33,69.52,79.12,111.43,79.12,24.65,0,44.62-16.18,44.62-40.83v-3.05c0-16.9-13.71-32.63-33.66-32.63v-5.2h.01Zm-2.02,42.26c-9.19,10.61-22.4,7.47-32.82,1.44-9.38-5.43-34.05-24.35-51.33-41.1,16.93-16.46,41.95-35.67,51.33-41.1,10.43-6.03,23.63-9.17,32.82,1.44,5.85,6.75,8.95,28.04-29.01,36.18v6.96c37.96,8.13,34.85,29.43,29.01,36.18Z"/></svg>