<?xml version="1.0" encoding="UTF-8"?><svg id="a" xmlns="http://www.w3.org/2000/svg" viewBox="0 0 687.2 139.8"><defs><style>.b{fill:#ff0048;}</style></defs><path class="b" d="M107.5,68.1c17.5,0,29.6-13.8,29.6-28.7v-2.7C137.1,15,119.5,.8,97.9,.8,61.1,.8,27.1,41.3,0,70.3c27.1,29,61.1,69.5,97.9,69.5,21.7,0,39.2-14.2,39.2-35.9v-2.7c0-14.8-12-28.7-29.6-28.7v-4.4Zm-1.7,37.1c-8.1,9.3-19.7,6.6-28.8,1.3-8.2-4.8-29.9-21.4-45.1-36.1,14.9-14.5,36.9-31.3,45.1-36.1,9.2-5.3,20.8-8.1,28.8,1.3,5.1,5.9,7.9,24.6-25.5,31.8v6.2c33.3,7,30.6,25.7,25.5,31.6Z"/><g><path class="b" d="M202.3,87.3c-.6,18.6-9.2,27.9-25.8,27.9-10.3,0-17.8-3.4-22.6-10.3-4.6-6.7-6.9-17.2-6.9-31.6s2.3-24.8,6.9-31.4c4.6-6.9,12-10.3,22.1-10.3,9.3,0,16,3,20.1,9,4,6,6,16,6,29.8v8.9h-35.3c.3,8.2,1.3,13.6,3.1,16.4,.8,1,1.5,1.7,2.3,2.1s1.8,.6,3,.6c2.3,0,4-.9,5.2-2.7,1.2-1.8,1.9-4.6,2.1-8.4h19.8Zm-30-39c-.9,.4-1.7,1.2-2.4,2.3-1.7,2.5-2.7,7.1-3.1,13.9h16.4c-.1-6.3-.7-10.7-1.8-13.1-1.1-2.4-3-3.6-5.8-3.6-1.3-.2-2.4,0-3.3,.5Z"/><path class="b" d="M218.1,112.9V33.8h19.8l-7.3,21.9h3.5c2-6.2,4-11.1,5.9-14.5s4-5.9,6.4-7.4,5.3-2.3,8.7-2.3c10.2,0,15.3,6.6,15.3,19.7v25.5h-20v-18.1c0-2.5-.4-4.2-1.2-5.3-.8-1.1-2.1-1.6-3.9-1.6-2.3,0-4.1,1.1-5.4,3.4-1.3,2.3-2,5.3-2,9v48.8h-19.8Z"/><path class="b" d="M283.4,112.9V33.8h19.8l-6.3,18.9h3.5c2.1-5.4,4.1-9.5,6-12.4,1.8-2.9,4-5.1,6.4-6.5,2.5-1.5,5.6-2.2,9.3-2.2,5.6,0,9.8,1.8,12.7,5.3,2.9,3.5,4.4,8.7,4.4,15.5v60.5h-20V59.4c0-6.2-2.3-9.3-6.9-9.3-2.9,0-5.2,1.2-6.8,3.5-1.6,2.4-2.4,5.6-2.4,9.8v49.5h-19.7Z"/></g><path class="b" d="M445.4,34.6c0,7.2-1.6,13.6-4.7,19.2-2.9,5.1-7,8.9-12.2,11.6s-11.3,4-18.1,4h-6.4v43.5h-21.1V.1h27.6c6.9,0,12.9,1.3,18.1,4s9.3,6.5,12.2,11.4c3,5.7,4.6,12,4.6,19.1Zm-21.4,0c0-3.2-.7-6-2.1-8.4-1.1-1.9-2.6-3.5-4.7-4.6-2-1.1-4.4-1.7-7.1-1.7h-6.1v29.7h6.1c2.7,0,5-.6,7.1-1.8,2-1.2,3.6-2.7,4.7-4.7,1.4-2.3,2.1-5.2,2.1-8.5Z"/><path class="b" d="M455.2,112.9V33.8h19.8l-7.3,21.9h3.5c2-6.2,4-11.1,5.9-14.5s4-5.9,6.4-7.4,5.3-2.3,8.7-2.3c10.2,0,15.3,6.6,15.3,19.7v25.5h-20v-18.1c0-2.5-.4-4.2-1.2-5.3s-2.1-1.6-3.9-1.6c-2.3,0-4.1,1.1-5.4,3.4-1.3,2.3-2,5.3-2,9v48.8h-19.8Z"/><path class="b" d="M542.7,23.8h-20.5V.9h20.5V23.8Zm-.3,89.1h-19.8V33.8h19.8V112.9Z"/><path class="b" d="M564.9,107.1c-4.7-6.9-7.1-18.2-7.1-33.9s2.4-26.9,7.1-33.8c3.7-5.3,8.8-7.9,15.5-7.9,4.7,0,8.5,1.6,11.4,4.9,2.9,3.3,5.6,8.7,8.1,16.2h3.5l-6.3-18.9V0h19.8V112.8h-19.8l6.3-18.9h-3.5c-2.5,7.5-5.2,12.9-8.1,16.2-2.9,3.3-6.7,4.9-11.4,4.9-6.6,.2-11.7-2.5-15.5-7.9Zm28.8-13.8c2.5-3.4,3.7-10.1,3.7-20s-1.2-16.4-3.7-19.8c-1.6-2.3-3.5-3.4-5.8-3.4s-4.3,1.1-5.8,3.4c-2.5,3.8-3.7,10.4-3.7,19.8s1.2,16.2,3.7,20c1.4,2.2,3.3,3.2,5.8,3.2s4.3-1.1,5.8-3.2Z"/><path class="b" d="M687.2,87.3c-.6,18.6-9.2,27.9-25.8,27.9-10.3,0-17.8-3.4-22.6-10.3-4.6-6.7-6.9-17.2-6.9-31.6s2.3-24.8,6.9-31.4c4.6-6.9,12-10.3,22.1-10.3,9.3,0,16,3,20.1,9,4,6,6,16,6,29.8v8.9h-35.3c.3,8.2,1.3,13.6,3.1,16.4,.8,1,1.5,1.7,2.3,2.1s1.8,.6,3,.6c2.3,0,4-.9,5.2-2.7,1.2-1.8,1.9-4.6,2.1-8.4h19.8Zm-30-39c-.9,.4-1.7,1.2-2.4,2.3-1.7,2.5-2.7,7.1-3.1,13.9h16.4c-.1-6.3-.7-10.7-1.8-13.1-1.1-2.4-3-3.6-5.8-3.6-1.3-.2-2.5,.1-3.3,.5Z"/></svg>