<svg xmlns="http://www.w3.org/2000/svg" width="158.934" height="185"><defs><style>.cls-1{fill:#ff0048}</style></defs><g id="Liebesbrief" transform="translate(1.624 1.618)"><path id="Pfad_174" data-name="Pfad 174" class="cls-1" d="M151.087 155.944a9.43 9.43 0 0 1-.753-.037c-.5-.04-1.163-.116-1.961-.226a91.367 91.367 0 0 1-2.955-.46 84.256 84.256 0 0 1-2.306-.419c-1.355-.259-2.635-.5-3.921-.632-8.965-.893-20.338-1.6-30.423-1.9-3.9-.117-7.881-.125-11.732-.133-3.173-.007-6.453-.013-9.69-.08-5.072-.1-10.22-.285-15.2-.465-1.635-.059-3.325-.12-4.986-.177-8.088-.274-16.283-.841-24.207-1.39-7.785-.539-15.835-1.1-23.752-1.372-6.481-.218-9.071-.216-14.232-.213H2.948c-.077.008-.269.054-.4.084a5.6 5.6 0 0 1-1.308.193 2.737 2.737 0 0 1-2.235-1.064c-1.149-1.5-.5-3.616.186-5.287a39.608 39.608 0 0 1 1.993-3.966c.136-.244.3-.546.35-.64.265-.6.536-1.213.8-1.8.951-2.141 1.935-4.356 2.752-6.556a20.687 20.687 0 0 1 2.162-4.251 14.035 14.035 0 0 0 1.832-3.837c1.717-5.489 3.6-11.046 5.413-16.421 4.031-11.934 8.207-24.275 10.88-36.673.673-3.127 1.1-6.392 1.514-9.55.353-2.695.718-5.482 1.238-8.223.42-2.248.61-3.669.693-4.538l-1.573-1.471a2 2 0 0 1 2.73-2.923l.9.842a2 2 0 0 1 1.883 1.419 2.239 2.239 0 0 1 .089.429C46.969 57.462 63.032 73.1 77.869 90.272c1.576 1.822 3.244 3.587 4.817 5.238.24.252.53.6.9 1.033a32.593 32.593 0 0 0 3.3 3.509c1.593 1.38 2.231 1.3 2.236 1.3 1.311-.7 7.256-5.051 11.6-8.232 2.578-1.889 4.8-3.52 6.126-4.445 1.847-1.3 3.7-2.592 5.5-3.844 6.647-4.632 12.926-9.007 19.245-13.919a493.388 493.388 0 0 1 6.465-4.911c3.7-2.776 7.519-5.646 11.089-8.626.085-.072.325-.329.5-.517 1.1-1.181 2.616-2.8 4.514-2.521a3.035 3.035 0 0 1 2.3 1.781l.007.015a3.835 3.835 0 0 1 .234 2.327 4.158 4.158 0 0 0-.039.312c.053.69.11 1.394.165 2.075.257 3.184.523 6.476.481 9.765-.089 7.45-1.334 14.765-2.538 21.84-.824 4.841-1.675 9.846-2.14 14.82a237.9 237.9 0 0 0-.209 39.915 36.122 36.122 0 0 0 .474 3.586q.067.4.132.808c.03.066.085.174.124.251a4.723 4.723 0 0 1 .453 1.142 2.408 2.408 0 0 1-1 2.584 2.613 2.613 0 0 1-1.518.386ZM6.577 144.442c4.1 0 6.941.02 12.763.216 7.988.279 16.073.838 23.891 1.379 7.89.546 16.049 1.111 24.068 1.383 1.665.057 3.357.118 4.994.177 4.962.179 10.093.364 15.134.463 3.2.066 6.464.073 9.618.08 3.879.008 7.889.016 11.842.135 10.172.3 21.65 1.014 30.7 1.916 1.464.146 2.893.419 4.274.683.762.146 1.482.283 2.212.4l.03.005c.709.127 1.858.307 2.891.448l-.051-.306a39.682 39.682 0 0 1-.519-3.982 241.545 241.545 0 0 1 .218-40.543c.479-5.124 1.343-10.205 2.18-15.119 1.178-6.922 2.4-14.081 2.481-21.218.039-3.1-.219-6.3-.469-9.394-.046-.564-.092-1.143-.137-1.72l-.131.14a10.229 10.229 0 0 1-.864.86c-3.649 3.046-7.514 5.948-11.251 8.754-2.115 1.588-4.3 3.23-6.412 4.87-6.4 4.976-12.722 9.38-19.413 14.043a1605.926 1605.926 0 0 0-5.491 3.837c-1.289.9-3.606 2.6-6.059 4.4-6.16 4.514-10.633 7.768-12.092 8.541a4.351 4.351 0 0 1-3.644.138 9.674 9.674 0 0 1-2.785-1.7 33.7 33.7 0 0 1-4.03-4.2 24.918 24.918 0 0 0-.739-.855c-1.606-1.685-3.311-3.49-4.946-5.38-13.925-16.129-28.97-30.909-42.44-43.62a91.319 91.319 0 0 1-.339 1.917c-.5 2.634-.857 5.363-1.2 8-.424 3.237-.863 6.584-1.57 9.872-2.726 12.621-6.934 25.071-11 37.112-1.81 5.353-3.681 10.889-5.384 16.334a17.806 17.806 0 0 1-2.269 4.782 16.788 16.788 0 0 0-1.807 3.51c-.859 2.313-1.868 4.585-2.844 6.782-.263.592-.535 1.2-.8 1.8l-.006.013c-.092.2-.228.452-.5.948-.421.756-1.057 1.9-1.566 3.028a14.69 14.69 0 0 0-.44 1.076c.084-.006.17-.009.257-.009Z" transform="translate(0 27.438)"/><path id="Pfad_175" data-name="Pfad 175" class="cls-1" d="M116.805 96.323a2 2 0 0 1-2-2c0-14.537 1.481-24.743 3.049-35.548 1.176-8.105 2.393-16.486 3.054-27.264.239-3.826.785-7.593 1.312-11.235a99.115 99.115 0 0 0 1.38-14.323c0-.218.021-.5.053-.932a26.3 26.3 0 0 0 .1-2.636 11.643 11.643 0 0 0-1.206.2 11.485 11.485 0 0 1-2 .274c-5.652.122-11.871.452-17.885.771-5.217.277-10.613.563-15.571.708-4.992.144-10.14.1-15.118.048-2.448-.023-4.979-.047-7.432-.047H55.2c-.347 0-.766-.037-1.3-.084-.643-.057-1.442-.128-2.157-.126a5.266 5.266 0 0 0-1.081.087c-3.292 6.526-5.042 15.154-6.59 22.78-.389 1.92-.757 3.733-1.144 5.5-3.465 15.745-6.2 28.18-8.454 45.406-.147 1.138-.319 2.236-.485 3.3a47.256 47.256 0 0 0-.764 7.476 2 2 0 1 1-4 0 51.076 51.076 0 0 1 .812-8.094c.162-1.036.33-2.106.47-3.195 2.276-17.4 5.029-29.91 8.514-45.748.379-1.732.744-3.531 1.131-5.434 1.624-8 3.465-17.077 7.116-24.134a3.276 3.276 0 0 1 1.886-1.58 6.617 6.617 0 0 1 1.855-.346 22.5 22.5 0 0 1 3.248.12c.38.034.773.069.944.069h9.338c2.472 0 5.013.024 7.47.047C76.95.43 82.059.478 86.973.337s10.281-.429 15.475-.7c6.045-.32 12.3-.652 18.013-.776a8.41 8.41 0 0 0 1.306-.2c1.411-.282 3.344-.668 4.919.676 1.128.967 1.206 2.626.957 5.982-.018.246-.041.551-.042.639a103.645 103.645 0 0 1-1.421 14.892c-.516 3.563-1.05 7.247-1.279 10.908-.671 10.941-1.9 19.406-3.088 27.591-1.547 10.658-3.008 20.725-3.008 34.974a2 2 0 0 1-2 2Z" transform="translate(19.872)"/><path id="Pfad_176" data-name="Pfad 176" class="cls-1" d="M18.4 50.488a2 2 0 0 1-.327-3.973c3.766-.629 10.006-5.252 15.019-8.966a86.2 86.2 0 0 1 7.318-5.085 2 2 0 0 1 1.986 3.472 84.376 84.376 0 0 0-6.923 4.827c-5.637 4.176-12.026 8.909-16.741 9.7a2.015 2.015 0 0 1-.332.025Z" transform="translate(11.608 21.783)"/><path id="Pfad_177" data-name="Pfad 177" class="cls-1" d="M99.99 61.925a1.992 1.992 0 0 1-1.28-.464c-5.557-4.636-10.168-12.894-13.872-19.529-.541-.968-1.051-1.882-1.546-2.753a2 2 0 1 1 3.477-1.979c.5.884 1.017 1.805 1.562 2.78 3.544 6.347 7.955 14.247 12.942 18.408a2 2 0 0 1-1.282 3.536Z" transform="translate(54.525 24.353)"/><path id="Pfad_178" data-name="Pfad 178" class="cls-1" d="M2.32 129.83a2 2 0 0 1-1.414-3.414c23.465-23.465 45.711-43.33 66.256-61.3a2 2 0 1 1 2.638 3.009c-34.676 30.333-52.243 47.3-66.061 61.119a1.994 1.994 0 0 1-1.419.586Z" transform="translate(1.251 42.665)"/><path id="Pfad_179" data-name="Pfad 179" class="cls-1" d="M106.017 138.559a2 2 0 0 1-1.518-.7c-2.8-3.265-12.386-20.434-19.74-34.144-4.279-7.973-8.259-15.621-11.213-21.533-5.124-10.26-5.4-11.773-5.5-12.343a2 2 0 1 1 3.935-.718c.046.254.512 1.993 5.147 11.274 2.935 5.878 6.9 13.49 11.159 21.433 9.264 17.272 17.18 31.019 19.25 33.429a2 2 0 0 1-1.516 3.3Z" transform="translate(44.85 44.507)"/><g id="Gruppe_181" data-name="Gruppe 181" transform="translate(74.892 30.089)"><path id="Pfad_180" data-name="Pfad 180" class="cls-1" d="M78.613 54.731a19.279 19.279 0 0 1-6.145-.985 34.6 34.6 0 0 1-10.256-5.66 80.341 80.341 0 0 1-7.542-6.946c-3.321-3.345-6.19-6.234-9.268-7.251a2 2 0 0 1 1.256-3.8c3.986 1.318 7.321 4.676 10.85 8.231 4.3 4.33 9.173 9.238 16.242 11.635a15.667 15.667 0 0 0 9.5.082 10.709 10.709 0 0 0 6.715-5.423 4.823 4.823 0 0 0-.206-4.8 12.57 12.57 0 0 0-5.039-4.354 16.685 16.685 0 0 0-6.173-1.934 2 2 0 0 1 .27-3.991 20.541 20.541 0 0 1 7.765 2.385 16.621 16.621 0 0 1 6.624 5.871 8.787 8.787 0 0 1 .37 8.539 14.647 14.647 0 0 1-9.134 7.527 19.6 19.6 0 0 1-5.829.874Z" transform="translate(-45.487 -10.026)"/><path id="Pfad_181" data-name="Pfad 181" class="cls-1" d="M45.7 42.086a2 2 0 0 1-.815-3.827c5.97-2.66 9.822-6.918 13.547-11.036 2.64-2.919 5.134-5.676 8.225-7.7a18.354 18.354 0 0 1 5.311-2.423 19.57 19.57 0 0 1 6.547-.594 19.254 19.254 0 0 1 7.273 2.19c3.318 1.789 5.392 4.313 6 7.3q.015.076.025.154a14.363 14.363 0 0 1-3.09 11.25 12.3 12.3 0 0 1-4.523 3.234 17.04 17.04 0 0 1-6.445 1.238 2 2 0 1 1-.047-4c3.547-.042 6.242-1.088 8.008-3.108a10.356 10.356 0 0 0 2.141-8.048c-.485-2.215-2.417-3.669-3.962-4.5a15.178 15.178 0 0 0-5.634-1.719h-.011a14.535 14.535 0 0 0-9.4 2.371 41.448 41.448 0 0 0-7.45 7.038c-3.817 4.22-8.143 9-14.885 12.006a1.994 1.994 0 0 1-.815.174Z" transform="translate(-45.7 -18.451)"/></g></g></svg>