<svg xmlns="http://www.w3.org/2000/svg" width="368" height="194"><defs><style>.cls-2{fill:#ffffa6;font-family:GTFlexaTrial-CmBd,GT Flexa Trial;font-size:160px}</style></defs><g id="Gruppe_170" data-name="Gruppe 170" transform="translate(7572 124)"><text id="IS" transform="translate(-7245 -4)" style="font-family:GTFlexaTrial-CmBd,GT Flexa Trial;font-size:60px;fill:#ffffa6"><tspan x="0" y="0">IS</tspan></text><g id="Gruppe_169" data-name="Gruppe 169" transform="translate(-6060 -345)"><text id="L" class="cls-2" transform="translate(-1512 378)"><tspan x="0" y="0">L</tspan></text><text id="V" class="cls-2" transform="translate(-1341 378)"><tspan x="0" y="0">V</tspan></text><text id="E" class="cls-2" transform="translate(-1268 378)"><tspan x="0" y="0">E</tspan></text><path id="Pfad_9" data-name="Pfad 9" d="M85.782 53.635a23.144 23.144 0 0 0 23.59-22.889v-2.138C109.372 11.339 95.369 0 78.094 0 48.722 0 21.593 32.322 0 55.45c21.593 23.127 48.722 55.45 78.094 55.45 17.275 0 31.271-11.339 31.271-28.615v-2.138a23.127 23.127 0 0 0-23.59-22.868v-3.644Zm-1.416 29.617c-6.441 7.436-15.7 5.235-23 1.009C54.791 80.455 37.5 67.2 25.391 55.457c11.865-11.536 29.4-25 35.974-28.8 7.31-4.226 16.561-6.427 23 1.009 4.1 4.731 6.272 19.651-20.331 25.356V57.9c26.604 5.693 24.425 20.621 20.332 25.352Z" transform="rotate(-90 -539.106 912.793)" style="fill:#ffffa6"/></g></g></svg>