<svg xmlns="http://www.w3.org/2000/svg" width="76.662" height="76.5" viewBox="0 0 76.662 76.5">
  <defs>
    <style>
      .cls-1 {
        fill: #ff0048;
      }
    </style>
  </defs>
  <g id="Gruppe_157" data-name="Gruppe 157" transform="translate(-801.648 -5539.25)">
    <path id="Pfad_105" data-name="Pfad 105" class="cls-1" d="M566.314,108.25a32,32,0,0,1,14.227,3.53,44.425,44.425,0,0,1,12.216,9.094,46.273,46.273,0,0,1,8.62,12.642,38.353,38.353,0,0,1,2.433,7.072,30.942,30.942,0,0,1-2.45,21.217,40.866,40.866,0,0,1-8.664,11.736,42.927,42.927,0,0,1-12.232,8.138,34.113,34.113,0,0,1-28.291,0,42.792,42.792,0,0,1-12.21-8.14,40.826,40.826,0,0,1-8.64-11.737,31.032,31.032,0,0,1-2.442-21.214,38.421,38.421,0,0,1,2.425-7.071,46.239,46.239,0,0,1,8.6-12.642,44.294,44.294,0,0,1,12.194-9.1A31.937,31.937,0,0,1,566.314,108.25Zm0,73a31.859,31.859,0,0,0,12.753-2.78A39.389,39.389,0,0,0,590.288,171a37.33,37.33,0,0,0,7.919-10.716,28.505,28.505,0,0,0,2.971-12.431,31.162,31.162,0,0,0-2.987-12.89,42.735,42.735,0,0,0-7.963-11.672,40.89,40.89,0,0,0-11.238-8.375,26.929,26.929,0,0,0-25.339,0,40.759,40.759,0,0,0-11.214,8.374,42.7,42.7,0,0,0-7.941,11.671,31.246,31.246,0,0,0-2.978,12.892,28.581,28.581,0,0,0,2.961,12.433,37.29,37.29,0,0,0,7.9,10.715,39.252,39.252,0,0,0,11.2,7.469A31.789,31.789,0,0,0,566.314,181.25Z" transform="translate(273.632 5431)"/>
    <path id="Pfad_106" data-name="Pfad 106" class="cls-1" d="M-833.615,6219.933l-.1,0a1.75,1.75,0,0,1-1.645-1.849,187.672,187.672,0,0,0,0-20.008c-.631-9.1-1.655-18.981-1.666-19.08a1.75,1.75,0,0,1,1.56-1.922,1.75,1.75,0,0,1,1.922,1.56c.01.1,1.041,10.039,1.676,19.2a187.468,187.468,0,0,1,0,20.454A1.75,1.75,0,0,1-833.615,6219.933Z" transform="translate(1674.289 -620.998)"/>
    <path id="Pfad_107" data-name="Pfad 107" class="cls-1" d="M-812.637,6202.25h-36.6a1.75,1.75,0,0,1-1.75-1.75,1.75,1.75,0,0,1,1.75-1.75h36.6a1.75,1.75,0,0,1,1.75,1.75A1.75,1.75,0,0,1-812.637,6202.25Z" transform="translate(1671.895 -623)"/>
  </g>
</svg>
